<ttFont>
<head>
    <!-- Most of this table will be recalculated by the compiler -->
    <tableVersion value="1.0"/>
    <fontRevision value="2.004"/>
    <checkSumAdjustment value="0xe8642483"/>
    <magicNumber value="0x5f0f3cf5"/>
    <flags value="00000000 00000011"/>
    <unitsPerEm value="1000"/>
    <created value="Thu Oct  8 09:57:20 2009"/>
    <modified value="Thu Oct  8 09:57:20 2009"/>
    <xMin value="-544"/>
    <yMin value="-304"/>
    <xMax value="1774"/>
    <yMax value="1146"/>
    <macStyle value="00000000 00000001"/>
    <lowestRecPPEM value="3"/>
    <fontDirectionHint value="2"/>
    <indexToLocFormat value="0"/>
    <glyphDataFormat value="0"/>
  </head>
          <CharString index="0">
            rmoveto
            25 -19 18 -22 8 vhcurveto
            11 -27 -27 2 -39 hhcurveto
            -61 -54 -11 -53 -28 21 -17 24 24 21 17 28 10 -3 9 -5 8 hvcurveto
            1 10 11 1 12 hhcurveto
            20 12 -2 -6 8 hvcurveto
            2 -2 1 -4 -15 vvcurveto
            -6 -2 -5 -5 -3 vhcurveto
            -24 -15 -20 -20 -7 -24 rrcurveto
            -1 -6 -1 -6 -7 vvcurveto
            -16 vlineto
            -10 8 -8 9 10 8 8 10 vhcurveto
            15 vlineto
            19 17 9 47 16 vhcurveto
            11 3 rlineto
            21 7 20 15 24 vvcurveto
            endchar
          </CharString>
          <CharString index="1">
            927 630 rmoveto
            56 vlineto
            -142 -4 -143 4 rlineto
            -56 33 vlineto
            15 20 -1 -1 15 hvcurveto
            23 -2 1 -1 -20 vvcurveto
            -371 vlineto
            -148 -121 -42 -114 -187 -12 114 70 vhcurveto
            402 -88 callsubr
            -399 vlineto
            -125 107 -118 239 224 86 126 116 vhcurveto
            375 vlineto
            16 1 1 2 2 vhcurveto
            6 9 50 0 12 hhcurveto
            return
          </CharString>
          <CharString index="2">
            hstemhm
            hintmask 11100000
            -106 callgsubr
            return
          </CharString>
          <CharString index="3">
            rmoveto
            41 10 -31 40 -43 hhcurveto
            -17 -12 -8 -3 -5 hvcurveto
            -158 -107 27 -58 177 46 15 4 31 11 6 34 rlinecurve
            endchar
          </CharString>
          <CharString index="4">
            679 66 callsubr
            355 -72 callsubr
            -185 vlineto
            -83 -64 -39 -76 -86 -1 22 48 vhcurveto
            340 -72 callsubr
            -226 vlineto
            -116 111 -11 86 33 74 0 71 57 vhcurveto
            -71 vlineto
            return
          </CharString>
          <CharString index="5">
            rmoveto
            -46 hlineto
            -90 -4 -93 -28 -57 hhcurveto
            -57 -93 28 90 -4 hvcurveto
            -46 hlineto
            -121 3 100 -70 97 hhcurveto
            97 100 71 120 3 hvcurveto
            return
          </CharString>
          <CharString index="6">
            -20 -105 callsubr
            return
          </CharString>
          <CharString index="7">
            -2 callsubr
            hintmask 11000101
            -91 callsubr
            hintmask 10100110
            54 -54 -74 8 -55 hhcurveto
            -185 -88 -110 -118 -119 92 -112 198 36 58 4 27 50 hvcurveto
            hintmask 01100101
            -84 callgsubr
            return
          </CharString>
          <CharString index="8">
            -101 callsubr
            hintmask 00011000
            return
          </CharString>
          <CharString index="9">
            951 99 rmoveto
            25 -18 0 -14 -14 -15 0 -23 -2 vhcurveto
            -54 -5 -35 -13 -22 hhcurveto
            -65 -9 65 78 -10 hvcurveto
            -10 67 -8 60 -94 35 rrcurveto
            55 17 110 45 97 vvcurveto
            108 -130 80 -198 vhcurveto
            -410 31 callsubr
            hlineto
            2 24 146 2 9 hhcurveto
            179 -4 rlineto
            56 -107 264 139 vlineto
            19 42 0 -33 41 hvcurveto
            36 -28 0 -24 -72 vvcurveto
            -80 0 -95 231 119 16 89 22 vhcurveto
            -319 399 rmoveto
            -63 -13 -69 -166 vhcurveto
            -145 264 149 hlineto
            161 14 -67 -65 hvcurveto
            return
          </CharString>
          <CharString index="10">
            606 218 rmoveto
            119 -87 116 -196 -198 -85 -117 -118 -117 89 -107 194 195 88 108 116 vhcurveto
            -139 12 rmoveto
            -86 0 -99 -144 -144 0 99 86 80 0 97 144 144 0 -97 -80 vhcurveto
            return
          </CharString>
          <CharString index="11">
            46 -37 36 -45 -46 -36 -38 -43 -46 37 -36 45 46 36 38 43 vhcurveto
            return
          </CharString>
          <CharString index="12">
            -20 -96 callgsubr
            hintmask 00110000
            return
          </CharString>
          <CharString index="13">
            -29 -50 1 2 -29 hvcurveto
            -56 160 -93 vlineto
            -26 0 -56 -150 -45 -110 4 67 -79 vhcurveto
            -47 40 -36 63 126 vvcurveto
            101 23 73 53 50 vhcurveto
            61 66 99 13 62 hhcurveto
            112 106 -68 -129 25 hvcurveto
            -21 4 1 -3 28 hhcurveto
            7 hlineto
            29 3 3 29 hvcurveto
            213 vlineto
            20 0 12 -23 -12 -2 -1 -9 -10 vhcurveto
            -67 -58 rlineto
            68 -101 -92 0 -32 hhcurveto
            -289 -153 -162 -193 -161 115 -194 336 54 116 2 52 51 hvcurveto
            -16 23 60 -26 8 hhcurveto
            18 0 17 15 hvcurveto
            187 vlineto
            return
          </CharString>
          <CharString index="14">
            803 269 rmoveto
            -63 hlineto
            -143 -27 -43 -70 -172 hhcurveto
            -183 268 66 hlineto
            85 29 -23 -87 hvcurveto
            63 276 -63 hlineto
            -86 -28 -24 -86 vhcurveto
            -66 243 173 hlineto
            return
          </CharString>
          <CharString index="15">
            -34 callgsubr
            hintmask 1110011010000000
            -93 callsubr
            hintmask 1010010100000000
            140 57 -39 -144 20 hvcurveto
            63 hlineto
            -34 239 rlineto
            -677 3 callsubr
            695 hlineto
            hintmask 0000000010000000
            return
          </CharString>
          <CharString index="16">
            551 114 rmoveto
            22 -22 0 -10 -18 -5 -1 -16 -8 vhcurveto
            -74 -36 -91 0 -17 hhcurveto
            -158 -5 117 46 -2 hvcurveto
            337 hlineto
            21 14 0 30 29 -7 75 -48 49 hvcurveto
            return
          </CharString>
          <CharString index="17">
            -20 -92 callsubr
            return
          </CharString>
          <CharString index="18">
            -95 callgsubr
            hintmask 00011000
            return
          </CharString>
          <CharString index="19">
            107 27 callsubr
            -143 -2 -16 hhcurveto
            -22 -139 2 2 -22 hvcurveto
            -56 107 return
          </CharString>
          <CharString index="20">
            rmoveto
            -32 33 rlineto
            hintmask 00010000
            -80 callgsubr
            hintmask 00001000
            -81 callsubr
            hintmask 00010000
            32 -33 rlineto
            hintmask 00001000
            -80 callsubr
            hintmask 00010000
            -82 callgsubr
          </CharString>
          <CharString index="21">
            897 388 rmoveto
            104 callsubr
            hhcurveto
            -35 -34 1 3 -35 hvcurveto
            -56 vlineto
            30 8 -2 -4 16 hvcurveto
            -117 -271 -120 277 rlineto
            50 56 hlineto
            -3 -73 -4 -42 hhcurveto
            -30 -41 1 3 -30 hvcurveto
            -56 60 vlineto
            11 -23 0 -2 -3 vvcurveto
            -3 -3 -7 -1 -2 vhcurveto
            -92 -212 -110 252 rlineto
            51 56 hlineto
            -130 -4 rlineto
            -38 -68 4 -6 hhcurveto
            -56 60 vlineto
            159 -367 rlineto
            -27 12 15 0 23 hhcurveto
            22 17 0 27 12 hvcurveto
            112 260 112 -259 rlineto
            -28 12 15 0 24 hhcurveto
            23 15 0 27 12 hvcurveto
            151 348 7 14 1 1 17 2 rlinecurve
            2 15 8 0 20 hhcurveto
            return
          </CharString>
          <CharString index="22">
            944 hmoveto
            56 -107 574 -88 callsubr
            -245 -371 245 -88 callsubr
            -574 -49 callgsubr
            273 371 -273 -68 callsubr
            return
          </CharString>
          <CharString index="23">
            1289 630 rmoveto
            56 vlineto
            -3 -37 -36 -1 -37 hhcurveto
            -147 4 rlineto
            -56 18 vlineto
            7 73 0 -8 -3 -3 -6 -1 -3 hvcurveto
            -183 -443 -192 463 rlineto
            92 56 hlineto
            -4 -53 -74 0 -54 hhcurveto
            -154 4 rlineto
            -56 87 vlineto
            32 -77 -160 -386 -191 463 rlineto
            91 56 hlineto
            -180 -4 -154 4 rlineto
            -56 87 vlineto
            254 -613 rlineto
            -23 10 5 -6 34 hhcurveto
            29 9 1 28 12 hvcurveto
            188 454 187 -454 rlineto
            -29 12 15 0 24 hhcurveto
            33 6 5 24 10 hvcurveto
            246 595 rlineto
            18 7 15 0 50 hhcurveto
            return
          </CharString>
          <CharString index="24">
            71 -39 58 -61 -51 -30 -39 -42 -43 30 -39 52 31 21 17 0 vhcurveto
            -8 -88 -49 -50 -40 -30 rrcurveto
            -6 -5 -6 -4 -9 vvcurveto
            -10 14 -15 11 17 114 85 143 vhcurveto
            return
          </CharString>
          <CharString index="25">
            846 434 rmoveto
            -24 239 rlineto
            -748 hlineto
            -24 -239 rlineto
            63 hlineto
            109 11 14 74 145 hhcurveto
            90 -561 -152 133 callgsubr
            55 1 27 hhcurveto
            119 1 123 -1 rlineto
            29 47 -1 -2 29 hvcurveto
            56 -152 561 89 vlineto
            145 14 -73 -110 11 hvcurveto
            return
          </CharString>
          <CharString index="26">
            11 -24 -24 10 -27 hhcurveto
            -44 -16 -15 -84 -86 hvcurveto
            return
          </CharString>
          <CharString index="27">
            17 17 33 27 41 hhcurveto
            24 20 -7 -16 36 hvcurveto
            return
          </CharString>
          <CharString index="28">
            -44 -23 2 14 -18 hvcurveto
            -8 7 -2 17 35 vvcurveto
            335 11 callgsubr
            25 0 -4 12 hvcurveto
            8 -4 3 -10 -9 vvcurveto
            -244 vlineto
            -40 20 -37 34 -18 vhcurveto
            -23 44 43 -3 70 hhcurveto
            61 56 28 44 32 hvcurveto
            -72 vlineto
            188 6 rlineto
            56 vlineto
            -19 -26 0 4 -11 hvcurveto
            -9 4 -3 10 9 vvcurveto
            274 vlineto
            79 16 64 46 73 vvcurveto
            return
          </CharString>
          <CharString index="29">
            -14 callsubr
            0 82 4 48 49 82 -4 0 vhcurveto
            return
          </CharString>
          <CharString index="30">
            715 269 rmoveto
            -63 hlineto
            -89 -11 -32 -124 -176 hhcurveto
            -118 574 134 56 hlineto
            -2 -23 -53 -1 -24 hhcurveto
            -107 -1 rlineto
            -62 -68 0 4 -55 hvcurveto
            31 callsubr
            624 vlineto
            return
          </CharString>
          <CharString index="31">
            rmoveto
            38 -39 30 -33 -35 -17 -31 -12 -5 vhcurveto
            -51 -122 51 -38 100 83 rlineto
            11 9 18 15 28 vvcurveto
            213 hmoveto
            38 -39 30 -33 -35 -17 -31 -12 -5 vhcurveto
            -51 -122 51 -38 100 83 rlineto
            11 9 18 15 28 vvcurveto
            endchar
          </CharString>
          <CharString index="32">
            944 hmoveto
            56 -39 vlineto
            -48 -3 3 11 -9 hvcurveto
            -301 345 270 201 rlineto
            9 12 7 5 67 hhcurveto
            27 56 hlineto
            0 -62 -4 -45 vhcurveto
            -161 62 callsubr
            18 16 0 -6 24 hvcurveto
            -402 -300 rlineto
            306 -88 callsubr
            -574 -49 callgsubr
            190 vlineto
            123 91 240 -275 rlineto
            -6 -22 -2 0 -40 hhcurveto
            -56 vlineto
            4 52 78 0 53 hhcurveto
            return
          </CharString>
          <CharString index="33">
            188 rmoveto
            111 -98 48 -43 22 vhcurveto
            72 35 33 46 57 vvcurveto
            149 -189 0 -38 -162 -71 -81 -97 -93 86 -49 10 -6 vhcurveto
            hintmask 10100100
            -79 -31 -53 -53 -83 vvcurveto
            -161 183 -14 81 183 85 89 111 vhcurveto
            -124 318 rmoveto
            -50 -31 -33 -44 -24 vhcurveto
            -163 82 rlineto
            hintmask 11011000
            -35 18 -11 18 20 vvcurveto
            51 51 22 88 92 53 -37 -67 vhcurveto
            22 -371 rmoveto
            -78 -87 -18 -75 vhcurveto
            hintmask 00100100
            -96 -70 40 84 62 36 44 58 29 hvcurveto
            142 -71 rlineto
            54 -28 38 -19 -45 vvcurveto
            endchar
          </CharString>
          <CharString index="34">
            rmoveto
            -158 107 rlineto
            3 -5 -12 8 -17 hhcurveto
            -43 -31 -40 -41 10 hvcurveto
            6 -34 31 -11 15 -4 177 -46 rcurveline
            endchar
          </CharString>
          <CharString index="35">
            vlineto
            -194 -85 callgsubr
            return
          </CharString>
          <CharString index="36">
            151 hintmask 11001000
            -89 callgsubr
            return
          </CharString>
          <CharString index="37">
            -91 callgsubr
            -30 258 rmoveto
            -27 -58 -177 46 -15 4 -31 11 -6 34 rlinecurve
            41 -10 31 40 43 hhcurveto
            17 12 -8 -3 5 hvcurveto
            endchar
          </CharString>
          <CharString index="38">
            -99 callsubr
            216 return
          </CharString>
          <CharString index="39">
            -107 -56 vlineto
            2 23 143 2 16 hhcurveto
            22 139 -2 -2 22 hvcurveto
            return
          </CharString>
          <CharString index="40">
            -95 callsubr
            -69 return
          </CharString>
          <CharString index="41">
            8 callsubr
            hintmask 11000100
            -76 callgsubr
            return
          </CharString>
          <CharString index="42">
            43 -30 39 -52 -31 -21 -17 0 vhcurveto
            8 88 49 50 40 30 rrcurveto
            6 5 6 4 9 vvcurveto
            10 -14 15 -11 -17 -114 -85 -143 -71 39 -58 61 51 30 39 42 vhcurveto
            return
          </CharString>
          <CharString index="43">
            120 -66 callsubr
            return
          </CharString>
          <CharString index="44">
            754 492 rmoveto
            44 -26 42 -41 -44 -22 -34 -33 -30 18 -30 35 -6 vhcurveto
            -15 -14 -22 -9 -26 -6 rrcurveto
            34 11 callgsubr
            26 0 -4 11 hvcurveto
            9 -4 2 -10 -9 vvcurveto
            -207 vlineto
            -63 -59 -49 -72 vhcurveto
            return
          </CharString>
          <CharString index="45">
            rmoveto
            -102 callgsubr
            271 hmoveto
            -102 callgsubr
            endchar
          </CharString>
          <CharString index="46">
            rmoveto
            -14 24 -160 -58 -160 58 -16 -24 175 -141 rlineto
            endchar
          </CharString>
          <CharString index="47">
            -55 callgsubr
            -67 193 vlineto
            return
          </CharString>
          <CharString index="48">
            -63 hlineto
            -38 -258 rlineto
            63 hlineto
            8 57 13 28 10 1 rrcurveto
            1 3 40 4 70 hhcurveto
            163 hlineto
            -27 -30 -13 -11 -34 -36 rrcurveto
            -68 -73 -84 -139 -153 vvcurveto
            -77 64 0 5 32 17 18 5 5 vhcurveto
            16 19 0 10 67 vvcurveto
            161 29 89 60 61 vhcurveto
            170 175 2 3 2 3 1 3 rlinecurve
            2 3 0 2 37 vvcurveto
            endchar
          </CharString>
          <CharString index="49">
            -79 callgsubr
            endchar
          </CharString>
          <CharString index="50">
            48 -39 34 -42 -48 -34 -39 -42 -48 39 -34 42 48 34 39 42 vhcurveto
            return
          </CharString>
          <CharString index="51">
            -174 -85 callgsubr
            -291 -14 callsubr
            4 77 4 47 hhcurveto
            31 callgsubr
            154 vlineto
            return
          </CharString>
          <CharString index="52">
            -14 callsubr
            3 78 4 46 49 75 -4 3 hhcurveto
            return
          </CharString>
          <CharString index="53">
            rmoveto
            -18 22 -158 -99 -158 99 -20 -22 177 -185 rlineto
            endchar
          </CharString>
          <CharString index="54">
            -91 callgsubr
            endchar
          </CharString>
          <CharString index="55">
            -20 hstemhm
            47 139 146 139 -89 139 hintmask 11001100
            -49 callsubr
            hintmask 11001010
            -2 -3 -9 -15 -22 vvcurveto
            -41 30 -28 39 41 29 28 42 96 -134 3 -58 -223 -59 -138 -93 -117 87 -111 189 49 51 8 23 40 vhcurveto
            57 34 15 49 6 vvcurveto
            hintmask 00110000
            return
          </CharString>
          <CharString index="56">
            rmoveto
            121 -3 -100 70 -97 hhcurveto
            -97 -100 -71 -120 -3 hvcurveto
            46 hlineto
            90 4 93 28 57 hhcurveto
            57 93 -28 -90 4 hvcurveto
            endchar
          </CharString>
          <CharString index="57">
            890 338 rmoveto
            99 -37 97 -74 66 vhcurveto
            -18 15 rlineto
            40 20 24 48 52 vvcurveto
            44 -26 40 -40 -45 -22 -33 -33 -32 20 -31 39 -4 vhcurveto
            -11 -17 -17 -12 -21 -6 rrcurveto
            return
          </CharString>
          <CharString index="58">
            535 114 rmoveto
            18 -17 0 -15 -23 -2 -1 -15 -7 vhcurveto
            -33 -15 -32 -38 -77 hhcurveto
            -161 0 140 41 75 12 101 134 6 57 -1 -4 hvcurveto
            -2 -4 rlineto
            return
          </CharString>
          <CharString index="59">
            580 630 rmoveto
            56 vlineto
            -157 -4 -110 1 rlineto
            -27 -42 1 2 -27 hvcurveto
            -56 139 -479 vlineto
            -22 0 -95 -109 -4 -43 0 14 -34 vhcurveto
            22 16 11 22 28 vvcurveto
            55 -43 27 -38 -42 -40 -30 -52 -76 72 -50 143 155 94 63 99 vhcurveto
            480 vlineto
            return
          </CharString>
          <CharString index="60">
            rmoveto
            53 -27 44 -45 -38 -23 -29 -32 return
          </CharString>
          <CharString index="61">
            hstemhm
            131 127 227 1 callsubr
            hintmask 11100010
            -39 callgsubr
            return
          </CharString>
          <CharString index="62">
            -3 callgsubr
            270 hmoveto
            -65 callsubr
            endchar
          </CharString>
          <CharString index="63">
            909 338 rmoveto
            209 -156 139 -228 vhcurveto
            -468 31 callsubr
            469 hlineto
            220 163 127 211 hvcurveto
            -156 hmoveto
            -90 0 -192 -269 vhcurveto
            -176 574 175 hlineto
            270 0 -201 -91 hvcurveto
            return
          </CharString>
          <CharString index="64">
            1002 -6 46 168 72 callgsubr
            hstemhm
            40 126 307 128 170 128 -37 99 hintmask 01000100
            961 -20 callsubr
            hintmask 11111010
            22 13 0 31 17 0 78 -54 59 hvcurveto
            52 -47 -73 8 -46 hhcurveto
            -48 -90 -8 -65 -67 hvcurveto
            54 -58 -79 19 -79 hhcurveto
            -195 -85 -114 -114 -120 89 -111 191 55 92 8 68 70 hvcurveto
            -56 59 84 -20 78 hhcurveto
            164 39 105 15 hvcurveto
            -99 136 rmoveto
            -261 hlineto
            27 3 130 138 100 18 -91 -66 2 vhcurveto
            -389 -21 rmoveto
            -53 0 -136 -153 -154 0 136 53 53 0 125 154 153 0 -125 -53 vhcurveto
            endchar
          </CharString>
          <CharString index="65">
            647 -89 -21 104 46 -30 46 334 46 -29 46 102 -20 hstemhm
            40 127 312 127 hintmask 00010100
            606 218 rmoveto
            35 -7 103 -113 62 vhcurveto
            75 111 -37 26 -82 -119 rlineto
            hintmask 10101010
            16 -48 -51 1 -20 hhcurveto
            -198 -85 -117 -118 -83 46 -73 75 -34 hvcurveto
            -76 -112 37 -26 83 120 rlineto
            hintmask 01001011
            -10 32 42 -6 44 hhcurveto
            195 88 108 116 hvcurveto
            -196 172 rmoveto
            -211 -307 rlineto
            -32 34 0 55 47 vvcurveto
            76 0 112 156 vhcurveto
            hintmask 01010000
            43 32 -11 -6 12 hvcurveto
            69 -171 rmoveto
            -76 0 -103 -156 vhcurveto
            hintmask 00100001
            -11 -41 0 16 -34 hvcurveto
            202 295 rlineto
            1 2 7 6 0 vvcurveto
            0 20 -22 7 -37 vhcurveto
            5 -27 0 -28 -26 vvcurveto
            endchar
          </CharString>
          <CharString index="66">
            rmoveto
            -83 callsubr
            return
          </CharString>
          <CharString index="67">
            -37 callgsubr
            -20 return
          </CharString>
          <CharString index="68">
            1002 -44 -21 53 46 618 46 53 -20 hstemhm
            75 151 -49 151 447 151 hintmask 00111000
            926 339 rmoveto
            104 -45 123 -121 69 vhcurveto
            65 84 -41 32 -70 -92 rlineto
            26 -61 -76 13 -76 hhcurveto
            -292 -134 -173 -186 -79 27 -131 138 -79 hvcurveto
            hintmask 11000110
            -63 -83 39 -32 71 91 rlineto
            -27 66 75 -11 72 hhcurveto
            290 136 166 185 hvcurveto
            -253 268 rmoveto
            -385 -496 rlineto
            hintmask 01101000
            -57 64 -5 88 76 vvcurveto
            113 15 68 51 55 vhcurveto
            43 38 70 34 100 hhcurveto
            60 62 -12 -33 51 hvcurveto
            102 -268 rmoveto
            -91 0 -214 -274 vhcurveto
            hintmask 00000110
            -38 -73 4 40 -62 hvcurveto
            384 495 rlineto
            53 -60 10 -79 -95 vvcurveto
            endchar
          </CharString>
          <CharString index="69">
            679 hmoveto
            56 -67 245 vlineto
            123 -79 26 -92 return
          </CharString>
          <CharString index="70">
            -119 -56 -37 -44 -75 0 93 63 62 0 93 75 48 52 -42 -113 vhcurveto
            return
          </CharString>
          <CharString index="71">
            1 0 2 1 vvcurveto
            -17 73 -28 71 -39 64 39 65 28 70 17 73 rrcurveto
            2 0 1 1 vvcurveto
            10 -8 8 -10 vhcurveto
            -9 hlineto
            -7 -7 -4 -6 -2 hvcurveto
            -36 -82 -56 -70 -71 -53 rrcurveto
            -4 -4 -3 -5 -6 vvcurveto
            -6 3 -5 4 -3 vhcurveto
            71 -54 56 -70 36 -81 rrcurveto
            -7 2 7 -4 7 hhcurveto
            9 hlineto
            10 8 8 10 hvcurveto
            return
          </CharString>
          <CharString index="72">
            rmoveto
            -57 callsubr
            return
          </CharString>
          <CharString index="73">
            201 rmoveto
            106 -78 103 -172 -39 -52 -5 -28 -48 vhcurveto
            119 vlineto
            -5 36 26 0 12 hhcurveto
            24 69 0 44 74 hvcurveto
            29 17 69 51 30 vvcurveto
            4 0 19 -18 vhcurveto
            0 -4 0 -12 -4 vhcurveto
            hintmask 0001100100000000
            -22 -66 -59 -6 -46 hhcurveto
            -41 -62 5 22 -66 hvcurveto
            -14 5 -4 0 0 vvcurveto
            hintmask 0000010000000000
            -18 0 -16 -15 hvcurveto
            -296 vlineto
            -20 0 -14 29 vhcurveto
            hintmask 1010000110000000
            10 7 0 8 8 hvcurveto
            21 19 37 40 95 hhcurveto
            104 0 -87 -72 -67 0 -99 -138 -47 -52 16 33 -29 hvcurveto
            50 13 4 42 15 vvcurveto
            hintmask 1100001010000000
            49 -38 25 -35 -36 -38 -24 -51 -92 90 -77 135 189 96 100 113 vhcurveto
            endchar
          </CharString>
          <CharString index="74">
            931 0 112 540 46 hstem
            75 163 454 163 vstem
            869 203 rmoveto
            -63 hlineto
            -88 -17 0 -3 -71 hhcurveto
            -73 hlineto
            23 41 35 40 33 35 rrcurveto
            58 65 61 71 92 vvcurveto
            109 -97 133 -293 -292 -98 -133 -109 -87 54 -69 60 -66 vhcurveto
            49 -53 28 -33 19 -36 rrcurveto
            -73 hlineto
            -71 0 3 88 -17 hvcurveto
            -63 hlineto
            41 -203 rlineto
            218 hlineto
            21 14 0 30 73 -35 84 -23 57 hvcurveto
            -32 76 -27 66 71 vvcurveto
            152 116 43 111 108 119 -40 -155 -71 -27 -67 -31 -75 vhcurveto
            -23 -54 -36 -87 -73 vvcurveto
            -30 15 0 21 vhcurveto
            217 hlineto
            endchar
          </CharString>
          <CharString index="75">
            -13 -32 callgsubr
            hvcurveto
            hintmask 0010001000000000
            -46 -20 -92 -100 -5 vhcurveto
            -25 -1 -25 -1 -6 -2 rrcurveto
            -13 -4 0 -12 -6 vvcurveto
            -23 13 0 19 vhcurveto
            hintmask 1010000101000000
            53 hlineto
            119 5 -90 -53 -42 0 -101 -120 -27 -63 5 27 -43 hvcurveto
            hintmask 0000100000000000
            21 9 26 23 43 vvcurveto
            hintmask 0100001000000000
            46 -33 35 -48 vhcurveto
            hintmask 1100100001000000
            -50 -32 -35 -47 -102 111 -55 142 209 70 109 84 hvcurveto
            endchar
          </CharString>
          <CharString index="76">
            hstemhm
            27 callgsubr
            return
          </CharString>
          <CharString index="77">
            88 -33 88 -44 88 -28 callgsubr
            return
          </CharString>
          <CharString index="78">
            656 hmoveto
            56 vlineto
            -30 -21 0 3 -9 hvcurveto
            -7 1 -2 2 -12 12 -182 198 rcurveline
            143 102 rlineto
            10 14 6 4 72 hhcurveto
            104 callsubr
            -44 -80 4 -5 hhcurveto
            -56 vlineto
            13 3 -3 -3 4 hvcurveto
            -2 -2 -7 -5 -3 -2 -183 -131 rcurveline
            452 vlineto
            return
          </CharString>
          <CharString index="79">
            120 117 -41 callgsubr
            return
          </CharString>
          <CharString index="80">
            592 -6 51 12 callsubr
            return
          </CharString>
          <CharString index="81">
            647 -201 46 136 108 0 108 -46 46 103 108 -4 46 return
          </CharString>
          <CharString index="82">
            -104 -85 -72 -129 -135 89 -67 100 90 75 69 132 return
          </CharString>
          <CharString index="83">
            206 rmoveto
            132 -102 82 -143 -22 -68 0 -77 -50 vhcurveto
            68 4 77 36 50 vhcurveto
            69 49 79 3 21 hhcurveto
            hintmask 0001000100000000
            31 26 -9 -12 15 hvcurveto
            hintmask 1010111010000000
            -29 -11 -18 -25 -31 vvcurveto
            -38 27 -31 42 41 29 28 43 61 -40 71 -126 -169 -165 -102 -236 -135 36 -195 234 vhcurveto
            hintmask 0000000001000000
            160 102 86 132 hvcurveto
            -147 1 rmoveto
            hintmask 1100000100000000
            -93 0 -75 -116 -119 -1 119 61 72 41 83 86 vhcurveto
            hintmask 0000000001000000
            109 0 -76 -91 hvcurveto
            endchar
          </CharString>
          <CharString index="84">
            -107 callgsubr
            hintmask 00110100
            return
          </CharString>
          <CharString index="85">
            844 0 2 callsubr
            return
          </CharString>
          <CharString index="86">
            914 0 56 278 46 250 56 hstem
            166 138 348 150 vstem
            838 187 rmoveto
            75 -62 78 -155 19 vhcurveto
            124 23 57 64 66 vvcurveto
            98 -104 76 -170 vhcurveto
            -469 31 callsubr
            503 hlineto
            179 97 87 100 hvcurveto
            -186 325 rmoveto
            -81 -67 -51 -98 vhcurveto
            -183 250 211 hlineto
            98 39 -57 -61 hvcurveto
            30 -323 rmoveto
            -67 -48 -66 -116 vhcurveto
            -214 278 224 hlineto
            141 13 -109 -36 hvcurveto
            endchar
          </CharString>
          <CharString index="87">
            114 rmoveto
            22 -22 0 -10 -13 -10 0 -15 -7 vhcurveto
            -73 -32 -72 -3 -24 hhcurveto
            -126 -41 77 86 -4 hvcurveto
            326 hlineto
            return
          </CharString>
          <CharString index="88">
            328 -20 callgsubr
            -9 -41 0 19 -31 hvcurveto
            27 12 14 23 29 vvcurveto
            38 -27 31 -42 -41 -29 -28 -43 -68 49 -64 132 168 151 107 233 vhcurveto
            -149 107 rmoveto
            -103 -56 -61 -71 -109 0 76 92 88 0 83 122 60 27 -39 -19 10 vhcurveto
            hintmask 00000100
            17 -31 0 -86 0 vvcurveto
            endchar
          </CharString>
          <CharString index="89">
            225 rmoveto
            67 -15 69 -50 44 vhcurveto
            48 -55 -76 9 -73 hhcurveto
            -73 -76 -9 -48 -55 hvcurveto
            -50 -44 -15 -69 -67 vvcurveto
            -67 15 -69 50 -44 vhcurveto
            -48 55 76 -9 73 hhcurveto
            73 76 9 48 55 hvcurveto
            50 44 15 69 67 vvcurveto
            -139 hmoveto
            hintmask 01101100
            -51 -3 -52 -28 -42 vhcurveto
            -32 -22 -38 -14 -39 hhcurveto
            -39 -38 14 32 -22 hvcurveto
            -28 42 -3 52 51 vvcurveto
            51 3 52 28 42 vhcurveto
            32 22 38 14 39 hhcurveto
            39 38 -14 -32 22 hvcurveto
            28 -42 3 -52 -51 vvcurveto
            endchar
          </CharString>
          <CharString index="90">
            hstemhm
            75 163 467 151 hintmask 00100000
            6 callgsubr
            hintmask 01000000
            -122 1 rlineto
            return
          </CharString>
          <CharString index="91">
            968 -12 53 606 51 return
          </CharString>
          <CharString index="92">
            -102 callsubr
            12 154 -53 callgsubr
            hintmask 01010000
            -81 callsubr
            hintmask 00100000
            32 -33 rlineto
            hintmask 00010000
            -80 callsubr
            hintmask 00100000
            -82 callgsubr
          </CharString>
          <CharString index="93">
            -67 -56 vlineto
            return
          </CharString>
          <CharString index="94">
            399 69 callgsubr
            162 46 2 46 hstem
            135 120 99 137 vstem
            491 606 rmoveto
            46 -41 48 -85 -116 -114 -47 -113 vhcurveto
            -96 113 callgsubr
            4 77 4 47 hhcurveto
            31 callgsubr
            332 128 56 -135 94 vlineto
            17 0 99 110 11 0 -2 0 0 -1 -3 -2 -2 vhcurveto
            -4 -6 -8 -15 -20 vvcurveto
            -48 39 -21 29 33 36 23 46 vhcurveto
            endchar
          </CharString>
          <CharString index="95">
            hstemhm
            40 98 -69 119 -98 98 -66 98 167 119 2 98 -80 98 return
          </CharString>
          <CharString index="96">
            36 126 234 127 return
          </CharString>
          <CharString index="97">
            20 callsubr
            -76 568 rmoveto
            23 -18 14 -18 -16 -8 -9 -7 -8 vhcurveto
            -23 -21 -65 -69 -131 hhcurveto
            -40 -96 8 66 -105 hvcurveto
            19 -30 -24 15 -46 hhcurveto
            -25 callsubr
            hvcurveto
            return
          </CharString>
          <CharString index="98">
            56 callsubr
            hintmask 0000010000000000
            -80 callgsubr
            hintmask 0000101000000000
            -81 callsubr
            hintmask 0000010000000000
            32 -33 rlineto
            hintmask 0000001000000000
            -80 callsubr
            hintmask 0000010000000000
            -82 callgsubr
          </CharString>
          <CharString index="99">
            985 0 56 259 56 259 126 callsubr
            445 156 cntrmask 11100000
            909 338 rmoveto
            209 -156 139 -228 vhcurveto
            -468 -56 107 -259 -107 -56 107 -259 -107 -56 469 hlineto
            220 163 127 211 hvcurveto
            -156 hmoveto
            -90 0 -192 -269 vhcurveto
            -176 259 185 56 -185 259 122 callgsubr
          </CharString>
          <CharString index="100">
            315 hmoveto
            56 -61 394 vlineto
            return
          </CharString>
          <CharString index="101">
            985 -12 69 callsubr
            return
          </CharString>
          <CharString index="102">
            56 callsubr
            hintmask 00100000
            -17 -17 -33 -27 -41 hhcurveto
            -24 -20 7 16 -36 hvcurveto
            hintmask 01010000
            -81 callsubr
            hintmask 00100000
            32 -33 rlineto
            hintmask 00010000
            -80 callsubr
            hintmask 00100000
            -82 callgsubr
          </CharString>
          <CharString index="103">
            535 3 callgsubr
            284 64 -18 66 callgsubr
            117 136 hintmask 00000100
            495 361 rmoveto
            55 -56 34 -62 vhcurveto
            hintmask 00010000
            -72 -48 -48 -62 -27 hvcurveto
            -1 hlineto
            hintmask 00000100
            110 vlineto
            hintmask 00101010
            -56 callsubr
            return
          </CharString>
          <CharString index="104">
            237 565 rmoveto
            -102 callgsubr
            321 hmoveto
            -102 callgsubr
            return
          </CharString>
          <CharString index="105">
            hstemhm
            40 139 134 139 0 99 return
          </CharString>
          <CharString index="106">
            602 rmoveto
            -102 callgsubr
            271 hmoveto
            -102 callgsubr
            return
          </CharString>
          <CharString index="107">
            141 rmoveto
            25 -19 18 -22 8 vhcurveto
            11 -27 -27 2 -39 hhcurveto
            -61 -54 -11 -53 -28 21 -17 24 24 21 17 28 return
          </CharString>
          <CharString index="108">
            127 hintmask 11010001
            -38 callsubr
            -121 -56 -72 -32 -19 vhcurveto
            104 vlineto
            return
          </CharString>
          <CharString index="109">
            56 268 56 243 56 return
          </CharString>
          <CharString index="110">
            -56 107 62 callgsubr
            return
          </CharString>
          <CharString index="111">
            241 399 -102 callsubr
            return
          </CharString>
          <CharString index="112">
            -33 -23 -49 -43 -73 hhcurveto
            -137 0 120 59 62 0 123 150 hvcurveto
            return
          </CharString>
          <CharString index="113">
            960 0 56 264 46 264 56 return
          </CharString>
          <CharString index="114">
            90 -267 hlineto
            -99 81 -28 87 79 64 46 81 vhcurveto
            return
          </CharString>
          <CharString index="115">
            hintmask 10100100
            -7 callsubr
            return
          </CharString>
          <CharString index="116">
            42 55 0 -20 -20 -103 0 -74 hvcurveto
            -31 -62 return
          </CharString>
          <CharString index="117">
            958 734 rmoveto
            44 -26 41 -40 -45 -22 -33 -33 vhcurveto
            return
          </CharString>
          <CharString index="118">
            576 -200 62 40 62 hstemhm
            226 124 -27 138 hintmask 01100000
            461 -118 rmoveto
            52 -54 30 -57 vhcurveto
            42 -124 -104 vlineto
            hintmask 10010000
            2 callgsubr
            endchar
          </CharString>
          <CharString index="119">
            163 72 callgsubr
            return
          </CharString>
          <CharString index="120">
            hstemhm
            -11 callsubr
            return
          </CharString>
          <CharString index="121">
            -17 43 66 -24 83 hhcurveto
            55 42 12 5 15 hvcurveto
            -524 -604 rlineto
            -12 -14 -1 -10 -5 vvcurveto
            -21 17 -16 20 return
          </CharString>
          <CharString index="122">
            -489 -55 callgsubr
            -67 175 vlineto
            -17 25 49 -26 70 143 callgsubr
            hmoveto
            -130 -75 -53 -76 -76 -43 54 17 -12 vhcurveto
            209 vlineto
            return
          </CharString>
          <CharString index="123">
            -39 -122 24 callgsubr
            return
          </CharString>
          <CharString index="124">
            250 vlineto
            18 -4 3 -21 vhcurveto
            -11 hlineto
            -14 -5 0 -9 -10 hvcurveto
            -264 -262 rlineto
            -34 230 -58 -89 -34 vlineto
            2 35 65 0 38 hhcurveto
            4 664 rmoveto
            20 -16 16 -20 -11 -10 -5 -8 -7 vhcurveto
            return
          </CharString>
          <CharString index="125">
            1012 -12 56 175 53 -53 56 367 56 return
          </CharString>
          <CharString index="126">
            26 callsubr
            -537 403 rmoveto
            return
          </CharString>
          <CharString index="127">
            137 -78 65 -87 -25 callsubr
            vhcurveto
            -404 hmoveto
            137 -78 65 -87 -25 callsubr
            vhcurveto
            return
          </CharString>
          <CharString index="128">
            912 vlineto
            14 0 30 -30 -31 0 -29 -15 vhcurveto
            -912 32 callsubr
            return
          </CharString>
          <CharString index="129">
            892 339 rmoveto
            return
          </CharString>
          <CharString index="130">
            2 vlineto
            5 -3 4 -2 4 vhcurveto
            -26 61 rlineto
            36 -16 -12 51 -52 hhcurveto
            -35 -4 -33 -29 -36 vvcurveto
            -26 18 -18 20 -15 vhcurveto
            79 -64 rlineto
            -3 4 5 -6 6 hhcurveto
            12 3 35 31 4 vvcurveto
            return
          </CharString>
          <CharString index="131">
            718 0 114 callgsubr
            return
          </CharString>
          <CharString index="132">
            479 78 callsubr
            return
          </CharString>
          <CharString index="133">
            -37 callsubr
            -404 hmoveto
            -37 callsubr
            return
          </CharString>
          <CharString index="134">
            56 vlineto
            -2 -23 return
          </CharString>
          <CharString index="135">
            rmoveto
            111 -340 -111 vlineto
            endchar
          </CharString>
          <CharString index="136">
            51 343 56 191 -20 hstemhm
            118 127 return
          </CharString>
          <CharString index="137">
            163 2 163 cntrmask 11100000
            return
          </CharString>
          <CharString index="138">
            -56 96 callgsubr
            -56 return
          </CharString>
          <CharString index="139">
            vlineto
            -14 0 -30 30 31 0 29 15 vhcurveto
            return
          </CharString>
          <CharString index="140">
            rmoveto
            -37 callsubr
            return
          </CharString>
          <CharString index="141">
            rmoveto
            62 -244 -62 vlineto
            153 -62 0 153 hhcurveto
            endchar
          </CharString>
          <CharString index="142">
            18 callgsubr
            165 return
          </CharString>
          <CharString index="143">
            119 470 -102 callsubr
            return
          </CharString>
          <CharString index="144">
            133 callsubr
            11 10 5 9 7 vhcurveto
            517 646 rlineto
            5 6 3 8 8 vvcurveto
            -43 -540 rmoveto
            -190 hlineto
            190 188 rlineto
            endchar
          </CharString>
          <CharString index="145">
            1035 hmoveto
            56 -67 245 vlineto
            125 -83 24 -88 -96 -61 -45 -49 -33 vhcurveto
            87 -25 -86 7 -54 hhcurveto
            -120 -57 -70 -34 -20 hvcurveto
            104 vlineto
            return
          </CharString>
          <CharString index="146">
            662 66 callsubr
            599 vlineto
            return
          </CharString>
          <CharString index="147">
            -20 hstemhm
            33 callgsubr
            226 114 callsubr
            return
          </CharString>
          <CharString index="148">
            647 -6 50 319 45 0 45 return
          </CharString>
          <CharString index="149">
            411 144 115 144 return
          </CharString>
          <CharString index="150">
            36 -36 33 -36 -40 -14 -36 -27 -11 vhcurveto
            -15 -34 -16 -33 -13 -35 50 -38 rcurveline
            30 21 29 26 29 24 rrcurveto
            20 16 23 16 31 vvcurveto
            return
          </CharString>
          <CharString index="151">
            968 78 callsubr
            return
          </CharString>
          <CharString index="152">
            rmoveto
            -14 17 rlineto
            -41 -49 -53 -30 -51 hhcurveto
            -40 -29 17 20 -35 hvcurveto
            17 -29 -31 17 -40 hhcurveto
            hintmask 00100000
            -25 -26 -8 -10 -22 hvcurveto
            return
          </CharString>
          <CharString index="153">
            718 0 51 callsubr
            return
          </CharString>
          <CharString index="154">
            -151 rmoveto
            56 callgsubr
            return
          </CharString>
          <CharString index="155">
            399 -200 46 540 64 return
          </CharString>
          <CharString index="156">
            624 389 rmoveto
            31 -25 36 -50 -41 -45 -16 -22 -30 vhcurveto
            32 -59 -63 0 -24 hhcurveto
            -163 -55 -85 -64 hvcurveto
            return
          </CharString>
          <CharString index="157">
            6 callsubr
            hstemhm
            164 144 return
          </CharString>
          <CharString index="158">
            56 348 46 180 56 -56 64 return
          </CharString>
          <CharString index="159">
            576 0 51 342 51 -46 46 return
          </CharString>
          <CharString index="160">
            576 -6 51 357 51 return
          </CharString>
          <CharString index="161">
            134 callgsubr
            273 56 return
          </CharString>
          <CharString index="162">
            hlineto
            77 224 rlineto
            5 14 0 5 3 vvcurveto
            18 -14 18 -23 -25 -9 -23 -9 -3 vhcurveto
            -85 -250 rlineto
            return
          </CharString>
          <CharString index="163">
            -91 callgsubr
            53 319 rmoveto
            -32 33 rlineto
            return
          </CharString>
          <CharString index="164">
            931 -6 46 101 42 21 46 -42 42 104 46 7 46 return
          </CharString>
          <CharString index="165">
            vvcurveto
            44 0 3 -32 -30 -1 -7 -25 vhcurveto
            -22 vlineto
            -79 -44 -58 -71 -44 vhcurveto
            -21 -13 -45 -28 -63 vvcurveto
            return
          </CharString>
          <CharString index="166">
            -12 30 callgsubr
            return
          </CharString>
          <CharString index="167">
            54 callsubr
            245 56 return
          </CharString>
          <CharString index="168">
            88 -33 88 -44 88 hstemhm
            return
          </CharString>
          <CharString index="169">
            4 rlineto
            -56 vlineto
            return
          </CharString>
          <CharString index="170">
            -119 rmoveto
            46 -37 36 -45 vhcurveto
            hintmask 00001000
            -46 -36 -38 -43 -46 37 -36 45 46 36 38 43 hvcurveto
            return
          </CharString>
          <CharString index="171">
            vstem
            654 219 rmoveto
            90 -73 64 -79 -90 -64 -73 -79 -90 73 -64 79 90 64 73 79 vhcurveto
            return
          </CharString>
          <CharString index="172">
            337 163 194 -20 hstem
            return
          </CharString>
          <CharString index="173">
            hmoveto
            56 vlineto
            -59 -8 0 39 hvcurveto
            return
          </CharString>
          <CharString index="174">
            71 -71 133 -55 133 return
          </CharString>
          <CharString index="175">
            512 -6 46 372 41 return
          </CharString>
          <CharString index="176">
            56 586 56 return
          </CharString>
          <CharString index="177">
            rmoveto
            137 -78 65 -87 -25 callsubr
            vhcurveto
            return
          </CharString>
          <CharString index="178">
            79 callsubr
            endchar
          </CharString>
          <CharString index="179">
            22 callsubr
            196 -139 163 -269 -275 -134 -167 -192 return
          </CharString>
          <CharString index="180">
            94 295 -91 callgsubr
            return
          </CharString>
          <CharString index="181">
            -22 callsubr
            76 -21 return
          </CharString>
          <CharString index="182">
            -20 51 callgsubr
            return
          </CharString>
          <CharString index="183">
            hstemhm
            1 callgsubr
            return
          </CharString>
          <CharString index="184">
            70 -21 207 -20 hstemhm
            return
          </CharString>
          <CharString index="185">
            0 56 574 56 return
          </CharString>
          <CharString index="186">
            758 -91 callgsubr
            return
          </CharString>
          <CharString index="187">
            0 0 -2 -2 -2 vhcurveto
            -9 -14 -2 -16 -9 vvcurveto
            -11 4 -28 24 -17 vhcurveto
            endchar
          </CharString>
          <CharString index="188">
            134 56 vlineto
            -4 -48 -103 0 -52 hhcurveto
            -52 -103 0 4 -48 hvcurveto
            -56 134 return
          </CharString>
          <CharString index="189">
            627 723 rlineto
            13 15 0 11 3 vvcurveto
            return
          </CharString>
          <CharString index="190">
            718 -6 46 -40 56 288 64 -4 46 return
          </CharString>
          <CharString index="191">
            1002 78 callsubr
            return
          </CharString>
          <CharString index="192">
            522 -21 202 -20 hstem
            return
          </CharString>
          <CharString index="193">
            62 330 64 return
          </CharString>
          <CharString index="194">
            -18 -1 -18 0 -4 -1 rrcurveto
            -10 -3 0 -7 -4 vvcurveto
            -13 10 0 13 vhcurveto
            return
          </CharString>
          <CharString index="195">
            -21 519 137 30 -20 hstem
            return
          </CharString>
          <CharString index="196">
            1323 9 -21 642 56 return
          </CharString>
          <CharString index="197">
            -187 -8 rlineto
            -56 vlineto
            return
          </CharString>
          <CharString index="198">
            670 223 rmoveto
            121 -87 106 -170 -52 -61 -10 -36 -58 vhcurveto
            return
          </CharString>
          <CharString index="199">
            hlineto
            -15 -13 -13 -15 -16 13 -12 15 hvcurveto
            return
          </CharString>
          <CharString index="200">
            -6 -3 -7 -9 124 callgsubr
            return
          </CharString>
          <CharString index="201">
            hlineto
            -7 -7 -5 -7 -2 hvcurveto
            -7 -20 rlineto
            -12 -5 9 -12 13 hhcurveto
            return
          </CharString>
          <CharString index="202">
            56 hstem
            27 callgsubr
            371 151 vstem
            944 hmoveto
            56 -107 return
          </CharString>
          <CharString index="203">
            122 120 return
          </CharString>
          <CharString index="204">
            vhcurveto
            -14 -7 -20 -20 -35 vvcurveto
            -41 31 -30 40 42 30 29 43 return
          </CharString>
          <CharString index="205">
            -56 46 311 46 0 46 204 45 -4 46 20 46 hstemhm
            return
          </CharString>
          <CharString index="206">
            629 -221 88 127 46 -40 56 -55 39 367 46 return
          </CharString>
          <CharString index="207">
            34 28 53 29 63 hhcurveto
            138 0 -118 -61 hvcurveto
            endchar
          </CharString>
          <CharString index="208">
            163 hstem
            100 164 vstem
            264 return
          </CharString>
          <CharString index="209">
            -21 165 90 callgsubr
            return
          </CharString>
          <CharString index="210">
            46 81 133 32 -20 hstemhm
            return
          </CharString>
          <CharString index="211">
            56 vlineto
            -2 -27 -28 -2 -27 return
          </CharString>
          <CharString index="212">
            -221 88 133 56 return
          </CharString>
          <CharString index="213">
            147 hstem
            -524 22 callgsubr
            vstem
            -376 return
          </CharString>
          <CharString index="214">
            -31 callsubr
            180 63 82 63 2 63 -28 63 return
          </CharString>
          <CharString index="215">
            42 48 59 4 21 hhcurveto
            85 54 -68 -108 hvcurveto
            endchar
          </CharString>
          <CharString index="216">
            -36 -23 -21 -28 -62 80 -33 102 151 50 66 50 return
          </CharString>
          <CharString index="217">
            -12 51 335 46 33 135 -50 51 21 46 hstemhm
            return
          </CharString>
          <CharString index="218">
            47 74 47 hstem
            -454 72 134 72 vstem
            -248 return
          </CharString>
          <CharString index="219">
            148 11 151 11 148 return
          </CharString>
          <CharString index="220">
            88 -44 88 -31 callsubr
            return
          </CharString>
          <CharString index="221">
            127 10 133 return
          </CharString>
          <CharString index="222">
            56 332 56 return
          </CharString>
          <CharString index="223">
            9 vvcurveto
            16 -13 12 -15 -6 -6 -2 -3 -4 vhcurveto
            return
          </CharString>
          <CharString index="224">
            hstemhm
            75 163 165 164 162 163 return
          </CharString>
          <CharString index="225">
            hmoveto
            56 -67 398 vlineto
            -186 -6 -1 -4 rlineto
            return
          </CharString>
          <CharString index="226">
            -206 51 142 46 98 49 236 46 hstemhm
            return
          </CharString>
          <CharString index="227">
            0 126 54 126 -4 160 -55 55 hstemhm
            return
          </CharString>
          <CharString index="228">
            320 rlineto
            17 -8 -9 0 -13 hhcurveto
            -138 -34 return
          </CharString>
          <CharString index="229">
            47 74 47 211 -20 return
          </CharString>
          <CharString index="230">
            -194 56 132 46 return
          </CharString>
          <CharString index="231">
            62 -31 callsubr
            return
          </CharString>
          <CharString index="232">
            -213 73 118 -20 return
          </CharString>
          <CharString index="233">
            56 hstem
            164 144 return
          </CharString>
          <CharString index="234">
            136 callgsubr
            77 return
          </CharString>
          <CharString index="235">
            62 hstemhm
            66 62 152 126 -36 126 return
          </CharString>
          <CharString index="236">
            25 hhcurveto
            10 hlineto
            20 9 6 16 hvcurveto
            endchar
          </CharString>
          <CharString index="237">
            -396 164 vstem
            -232 return
          </CharString>
          <CharString index="238">
            hmoveto
            56 -107 574 107 56 return
          </CharString>
          <CharString index="239">
            vvcurveto
            133 callsubr
            return
          </CharString>
          <CharString index="240">
            -20 16 -16 20 return
          </CharString>
          <CharString index="241">
            hstemhm
            100 164 -130 120 hintmask 10100100
            return
          </CharString>
          <CharString index="242">
            hstemhm
            40 139 63 164 61 139 return
          </CharString>
          <CharString index="243">
            hlineto
            11 0 37 -36 -37 0 -36 -12 vhcurveto
            return
          </CharString>
          <CharString index="244">
            hstemhm
            -28 148 14 120 -11 148 return
          </CharString>
          <CharString index="245">
            0 56 -52 52 306 56 44 -20 hstemhm
            return
          </CharString>
          <CharString index="246">
            -47 callsubr
            vhcurveto
            return
          </CharString>
          <CharString index="247">
            rmoveto
            34 -64 344 64 34 -138 vlineto
            return
          </CharString>
          <CharString index="248">
            25 callsubr
            48 147 return
          </CharString>
          <CharString index="249">
            hstemhm
            118 127 -63 63 121 63 return
          </CharString>
          <CharString index="250">
            12 0 17 8 hvcurveto
            178 360 rlineto
            return
          </CharString>
          <CharString index="251">
            -21 190 -20 return
          </CharString>
        <CharString name=".notdef">
          280 endchar
        </CharString>
        <CharString name="A">
          -40 callsubr
          hstem
          -106 callgsubr
          endchar
        </CharString>
        <CharString name="AE">
          -42 callgsubr
        </CharString>
        <CharString name="AE.dup">
          -42 callgsubr
        </CharString>
        <CharString name="AEacute">
          1163 0 56 246 56 272 56 79 -21 176 -20 hstemhm
          176 142 33 142 44 142 188 63 94 63 -28 63 hintmask 1110000110100000
          1122 269 rmoveto
          -63 hlineto
          -121 -24 -21 -92 -185 hhcurveto
          -150 246 73 hlineto
          85 30 -23 -87 hvcurveto
          63 276 -63 hlineto
          -87 -30 -23 -85 vhcurveto
          -73 272 147 hlineto
          hintmask 1110011101000000
          134 47 -47 -136 17 hvcurveto
          63 hlineto
          -34 239 rlineto
          -702 -56 64 hlineto
          -255 -556 -6 -12 -1 -1 -25 -3 rlinecurve
          -1 -14 -19 -1 -14 hhcurveto
          -29 -56 hlineto
          0 77 4 47 vhcurveto
          142 -4 rlineto
          56 vlineto
          -53 -7 2 5 -25 hvcurveto
          109 239 rlineto
          195 -246 -80 -56 614 hlineto
          hintmask 0110001100100000
          -534 358 rmoveto
          -169 hlineto
          125 272 rlineto
          44 hlineto
          hintmask 0001100000000000
          215 209 -104 callsubr
        </CharString>
        <CharString name="Aacute">
          -40 callsubr
          81 -21 176 -99 callsubr
          211 303 -104 callsubr
        </CharString>
        <CharString name="Abreve">
          -40 callsubr
          60 73 118 -99 callsubr
          4 callsubr
          endchar
        </CharString>
        <CharString name="Abreveacute">
          -40 callsubr
          60 73 329 -99 callsubr
          4 callsubr
          -73 130 -104 callsubr
        </CharString>
        <CharString name="Abrevedotbelow">
          -40 callsubr
          60 73 118 -20 hstemhm
          402 164 hintmask 11111000
          -106 callgsubr
          4 callsubr
          hintmask 00000100
          -118 -1054 -101 callgsubr
        </CharString>
        <CharString name="Abrevegrave">
          -40 callsubr
          60 73 118 -99 callsubr
          4 callsubr
          -71 93 rmoveto
          -27 -58 -177 46 -15 4 -31 11 -6 34 rlinecurve
          41 -10 31 40 43 hhcurveto
          17 12 -8 -3 5 hvcurveto
          endchar
        </CharString>
        <CharString name="Abrevehookabove">
          -40 callsubr
          60 73 186 73 -46 73 37 -101 callsubr
          hintmask 00011010
          4 callsubr
          -75 0 callsubr
          hvcurveto
          hintmask 00000100
          10 -3 9 -5 8 vhcurveto
          1 10 11 1 12 hhcurveto
          20 12 -2 -6 8 hvcurveto
          hintmask 00001000
          2 -2 1 -4 -15 vvcurveto
          -6 -2 -5 -5 -3 vhcurveto
          -24 -15 -20 -20 -7 -24 rrcurveto
          -1 -6 -1 -6 -7 vvcurveto
          -16 vlineto
          -10 8 -8 9 10 8 8 10 vhcurveto
          15 vlineto
          19 17 9 47 16 vhcurveto
          hintmask 00000100
          11 3 rlineto
          hintmask 00001000
          21 7 20 15 24 vvcurveto
          endchar
        </CharString>
        <CharString name="Abrevetilde">
          -40 callsubr
          60 73 118 88 -33 88 -44 88 -105 callsubr
          hintmask 00011010
          4 callsubr
          12 154 rmoveto
          -32 33 rlineto
          hintmask 00000100
          -80 callgsubr
          hintmask 00001010
          -81 callsubr
          hintmask 00000100
          32 -33 rlineto
          hintmask 00000010
          -80 callsubr
          hintmask 00000100
          -82 callgsubr
        </CharString>
        <CharString name="Acaron">
          35 callsubr
          -69 callsubr
          339 -61 callsubr
        </CharString>
        <CharString name="Acircumflex">
          35 callsubr
          -69 callsubr
          222 -53 callsubr
        </CharString>
        <CharString name="Acircumflexacute">
          18 callgsubr
          376 -69 callsubr
          222 -66 callgsubr
        </CharString>
        <CharString name="Acircumflexdotbelow">
          35 callsubr
          -20 hstemhm
          402 164 hintmask 11111000
          -106 callgsubr
          216 222 -91 callgsubr
          hintmask 00000100
          -77 -853 -101 callgsubr
        </CharString>
        <CharString name="Acircumflexgrave">
          35 callsubr
          -69 callsubr
          222 -70 callsubr
        </CharString>
        <CharString name="Acircumflexhookabove">
          18 callgsubr
          370 -69 callsubr
          222 -91 callgsubr
          90 306 -107 callsubr
        </CharString>
        <CharString name="Acircumflextilde">
          35 callsubr
          88 -33 88 -44 88 -105 callsubr
          hintmask 00011010
          216 222 56 callsubr
          hintmask 00000100
          -80 callgsubr
          hintmask 00001010
          -81 callsubr
          hintmask 00000100
          32 -33 rlineto
          hintmask 00000010
          -80 callsubr
          hintmask 00000100
          -82 callgsubr
        </CharString>
        <CharString name="Adblgrave">
          -40 callsubr
          81 -21 203 -99 callsubr
          173 246 -90 callgsubr
        </CharString>
        <CharString name="Adieresis">
          -40 callsubr
          50 147 hstemhm
          249 36 callgsubr
          hintmask 11100000
          -106 callgsubr
          hintmask 00011100
          -46 271 -78 callgsubr
        </CharString>
        <CharString name="Adotbelow">
          -40 callsubr
          hstemhm
          402 164 hintmask 11100000
          -106 callgsubr
          hintmask 00010000
          123 -655 -101 callgsubr
        </CharString>
        <CharString name="Agrave">
          -40 callsubr
          81 -21 176 -99 callsubr
          126 266 -73 callsubr
        </CharString>
        <CharString name="Ahookabove">
          -40 callsubr
          83 -21 190 -99 callsubr
          165 336 -107 callsubr
        </CharString>
        <CharString name="Alpha">
          -40 callsubr
          hstem
          -106 callgsubr
          endchar
        </CharString>
        <CharString name="Amacron">
          -40 callsubr
          70 62 -105 callsubr
          hintmask 00010000
          271 218 -30 callgsubr
        </CharString>
        <CharString name="Aogonek">
          968 -221 88 133 -11 callgsubr
          -20 hstem
          916 hmoveto
          56 -99 vlineto
          -278 620 rlineto
          28 -13 -12 0 -30 hhcurveto
          -31 -12 0 -28 -13 hvcurveto
          -269 -602 -6 -12 -1 -1 -25 -3 rlinecurve
          -2 -19 -10 0 -17 hhcurveto
          -30 -56 hlineto
          4 76 4 45 hhcurveto
          142 -4 rlineto
          56 vlineto
          -3 -83 0 8 hvcurveto
          5 11 54 121 rlineto
          305 hlineto
          63 -140 rlineto
          -90 -56 hlineto
          3 39 52 1 46 hhcurveto
          -39 -31 -19 -41 -42 -81 callgsubr
          -53 -44 81 56 83 hvcurveto
          -221 248 rmoveto
          -255 hlineto
          127 284 rlineto
          endchar
        </CharString>
        <CharString name="Aogonekacute">
          968 -221 88 133 -11 callgsubr
          -20 81 -21 176 -20 hstemhm
          hintmask 11110000
          916 hmoveto
          56 -99 vlineto
          -278 620 rlineto
          28 -13 -12 0 -30 hhcurveto
          -31 -12 0 -28 -13 hvcurveto
          -269 -602 -6 -12 -1 -1 -25 -3 rlinecurve
          -2 -19 -10 0 -17 hhcurveto
          -30 -56 hlineto
          4 76 4 45 hhcurveto
          142 -4 rlineto
          56 vlineto
          -3 -83 0 8 hvcurveto
          5 11 54 121 rlineto
          305 hlineto
          63 -140 rlineto
          -90 -56 hlineto
          3 39 52 1 46 hhcurveto
          -39 -31 -19 -41 -42 -81 callgsubr
          -53 -44 81 56 83 hvcurveto
          -221 248 rmoveto
          -255 hlineto
          127 284 rlineto
          hintmask 00001100
          211 303 -104 callsubr
        </CharString>
        <CharString name="Aring">
          -37 callgsubr
          47 74 47 hstemhm
          345 72 134 72 hintmask 11100000
          -106 callgsubr
          hintmask 00111100
          108 252 -58 callsubr
        </CharString>
        <CharString name="Aringacute">
          -37 callgsubr
          122 callsubr
          hstemhm
          345 72 134 72 hintmask 11100000
          -106 callgsubr
          hintmask 00111110
          108 252 -79 callgsubr
          -12 215 -104 callsubr
        </CharString>
        <CharString name="Atilde">
          -40 callsubr
          50 88 -44 88 -105 callsubr
          hintmask 00001000
          253 297 -87 callsubr
        </CharString>
        <CharString name="B">
          -21 callsubr
        </CharString>
        <CharString name="Beta">
          -21 callsubr
        </CharString>
        <CharString name="C">
          54 callgsubr
          hstem
          75 163 549 68 vstem
          -83 callgsubr
          -189 148 -166 295 206 131 116 124 hvcurveto
          endchar
        </CharString>
        <CharString name="Cacute">
          54 callgsubr
          67 -21 176 -20 hstemhm
          75 163 549 68 hintmask 11001100
          -83 callgsubr
          -189 148 -166 295 206 131 116 124 hvcurveto
          hintmask 00110000
          -173 611 -104 callsubr
        </CharString>
        <CharString name="Ccaron">
          54 callgsubr
          57 -21 165 -20 hstemhm
          75 163 549 68 hintmask 11001100
          -83 callgsubr
          -189 148 -166 295 206 131 116 124 hvcurveto
          hintmask 00110000
          -168 647 -61 callsubr
        </CharString>
        <CharString name="Ccedilla">
          54 callgsubr
          hstemhm
          75 163 0 163 386 68 hintmask 11101000
          -83 callgsubr
          -174 125 -154 250 -24 hvcurveto
          -89 vlineto
          9 callsubr
          hlineto
          hintmask 00011000
          111 callgsubr
          27 vlineto
          174 19 107 106 112 vvcurveto
          endchar
        </CharString>
        <CharString name="Ccircumflex">
          54 callgsubr
          57 -21 165 -20 hstemhm
          75 163 549 68 hintmask 11001100
          -83 callgsubr
          -189 148 -166 295 206 131 116 124 hvcurveto
          hintmask 00110000
          -168 530 -53 callsubr
        </CharString>
        <CharString name="Cdotaccent">
          54 callgsubr
          48 163 hstemhm
          75 163 192 164 193 68 hintmask 11010100
          -83 callgsubr
          -189 148 -166 295 206 131 116 124 hvcurveto
          hintmask 00101000
          -261 599 -101 callgsubr
        </CharString>
        <CharString name="Chi">
          -33 callgsubr
        </CharString>
        <CharString name="D">
          985 0 56 574 126 callsubr
          445 156 vstem
          -44 callsubr
          endchar
        </CharString>
        <CharString name="Dcaron">
          985 78 callsubr
          61 callgsubr
          164 144 445 156 hintmask 11001100
          -44 callsubr
          hintmask 00110000
          -182 537 -61 callsubr
        </CharString>
        <CharString name="Dcroat">
          -8 callsubr
        </CharString>
        <CharString name="Ddotbelow">
          985 78 callsubr
          hstemhm
          164 144 6 164 275 156 hintmask 11101000
          -44 callsubr
          hintmask 00010000
          -275 -457 -101 callgsubr
        </CharString>
        <CharString name="Delta">
          1073 0 130 574 -20 hstem
          1003 14 rmoveto
          4 0 2 -7 10 vhcurveto
          -397 646 rlineto
          28 -17 -16 0 -21 hhcurveto
          -18 hlineto
          -21 -16 0 -28 -17 hvcurveto
          -397 -646 rlineto
          -7 -10 0 -2 -4 vvcurveto
          -14 13 0 15 vhcurveto
          878 hlineto
          15 13 0 14 hvcurveto
          -246 116 rmoveto
          -536 hlineto
          268 436 rlineto
          endchar
        </CharString>
        <CharString name="Dlinebelow">
          985 -149 62 87 56 574 56 hstemhm
          164 144 445 156 hintmask 01111000
          -44 callsubr
          hintmask 10000000
          -127 -487 -30 callgsubr
        </CharString>
        <CharString name="E">
          -22 callsubr
          -34 callgsubr
          hintmask 11111010
          -93 callsubr
          hintmask 10110100
          140 57 -39 -144 20 hvcurveto
          63 hlineto
          -34 239 rlineto
          -677 3 callsubr
          695 hlineto
          hintmask 00000010
          endchar
        </CharString>
        <CharString name="Eacute">
          -22 callsubr
          86 -21 176 -90 callsubr
          hintmask 0001101000000000
          -159 839 -104 callsubr
        </CharString>
        <CharString name="Ebreve">
          -22 callsubr
          65 73 118 -90 callsubr
          hintmask 0001100000000000
          -129 935 -102 callsubr
          endchar
        </CharString>
        <CharString name="Ecaron">
          74 callsubr
          165 -90 callsubr
          hintmask 0001100000000000
          -154 875 -61 callsubr
        </CharString>
        <CharString name="Ecircumflex">
          74 callsubr
          165 -22 callgsubr
          endchar
        </CharString>
        <CharString name="Ecircumflexacute">
          74 callsubr
          376 -22 callgsubr
          -32 295 rmoveto
          41 10 -31 40 -43 hhcurveto
          -17 -12 -8 -3 -5 hvcurveto
          -158 -107 27 -58 177 46 15 4 31 11 6 34 rlinecurve
          endchar
        </CharString>
        <CharString name="Ecircumflexdotbelow">
          74 callsubr
          165 -20 50 callgsubr
          hintmask 1110010101000000
          -93 callsubr
          hintmask 1010010010000000
          140 57 -39 -144 20 hvcurveto
          63 hlineto
          -34 239 rlineto
          -677 3 callsubr
          695 hlineto
          hintmask 0001100001000000
          -154 79 callsubr
          hintmask 0000001000000000
          -77 -853 -101 callgsubr
        </CharString>
        <CharString name="Ecircumflexgrave">
          74 callsubr
          165 -22 callgsubr
          -30 258 rmoveto
          -27 -58 -177 46 -15 4 -31 11 -6 34 rlinecurve
          41 -10 31 40 43 hhcurveto
          17 12 -8 -3 5 hvcurveto
          endchar
        </CharString>
        <CharString name="Ecircumflexhookabove">
          74 callsubr
          370 -22 callgsubr
          90 306 -107 callsubr
        </CharString>
        <CharString name="Ecircumflextilde">
          74 callsubr
          165 88 -33 88 -44 88 -34 callgsubr
          hintmask 1110000110100000
          -93 callsubr
          hintmask 1010000101000000
          140 57 -39 -144 20 hvcurveto
          63 hlineto
          -34 239 rlineto
          -677 3 callsubr
          695 hlineto
          hintmask 0000000000100000
          hintmask 0001101000000000
          -154 758 -9 callsubr
        </CharString>
        <CharString name="Edblgrave">
          -22 callsubr
          86 -21 203 -90 callsubr
          hintmask 0001100000000000
          -162 782 -90 callgsubr
        </CharString>
        <CharString name="Edieresis">
          -22 callsubr
          55 147 -31 callsubr
          -127 148 159 63 -49 148 48 63 -28 63 hintmask 1110101001000000
          -93 callsubr
          hintmask 1010100010000000
          140 57 -39 -144 20 hvcurveto
          63 hlineto
          -34 239 rlineto
          -677 3 callsubr
          695 hlineto
          hintmask 0000000001000000
          hintmask 0001010100000000
          -416 807 -78 callgsubr
        </CharString>
        <CharString name="Edotaccent">
          -22 callsubr
          67 163 50 callgsubr
          hintmask 1110101010000000
          -93 callsubr
          hintmask 1010100100000000
          140 57 -39 -144 20 hvcurveto
          63 hlineto
          -34 239 rlineto
          -677 3 callsubr
          695 hlineto
          hintmask 0000000010000000
          hintmask 0001010000000000
          -247 827 -101 callgsubr
        </CharString>
        <CharString name="Edotbelow">
          -22 callsubr
          50 callgsubr
          hintmask 11110101
          -93 callsubr
          hintmask 10110010
          140 57 -39 -144 20 hvcurveto
          63 hlineto
          -34 239 rlineto
          -677 3 callsubr
          695 hlineto
          hintmask 00000001
          hintmask 00001000
          -247 -119 -101 callgsubr
        </CharString>
        <CharString name="Egrave">
          -22 callsubr
          86 -21 176 -90 callsubr
          hintmask 0001100000000000
          -244 802 -73 callsubr
        </CharString>
        <CharString name="Ehookabove">
          -22 callsubr
          88 -21 190 -90 callsubr
          hintmask 0001101000000000
          -205 872 -107 callsubr
        </CharString>
        <CharString name="Emacron">
          -22 callsubr
          75 62 -34 callgsubr
          hintmask 11101101
          -93 callsubr
          hintmask 10101010
          140 57 -39 -144 20 hvcurveto
          63 hlineto
          -34 239 rlineto
          -677 3 callsubr
          695 hlineto
          hintmask 00000001
          hintmask 00010000
          -99 754 -30 callgsubr
        </CharString>
        <CharString name="Eng">
          1002 -12 138 510 62 hstem
          27 callgsubr
          456 162 vstem
          933 343 rmoveto
          201 -176 154 -206 -87 -85 -22 -41 -64 vhcurveto
          51 vlineto
          -3 -25 -25 -1 -25 hhcurveto
          -53 -86 0 4 -50 hvcurveto
          -56 113 -574 -113 -56 vlineto
          4 50 85 0 53 hhcurveto
          53 86 0 -4 50 hvcurveto
          56 -113 506 vlineto
          50 53 92 24 91 hhcurveto
          137 83 -143 -150 -97 0 -110 -39 -53 hvcurveto
          25 -10 -25 18 -29 hhcurveto
          -38 -31 -31 -38 -38 31 -31 38 166 99 173 182 hvcurveto
          endchar
        </CharString>
        <CharString name="Eogonek">
          844 -221 88 133 2 callsubr
          107 callsubr
          hintmask 0111110010000000
          -93 callsubr
          hintmask 1101101100000000
          140 57 -39 -144 20 hvcurveto
          63 hlineto
          -34 239 rlineto
          -677 3 callsubr
          498 hlineto
          -39 -31 -18 -37 -42 -81 callgsubr
          -53 -46 77 56 83 hvcurveto
          112 hlineto
          hintmask 0000000010000000
          endchar
        </CharString>
        <CharString name="Eogonekacute">
          844 -221 88 133 2 callsubr
          86 -21 176 -20 107 callsubr
          hintmask 0111001100100000
          -93 callsubr
          hintmask 1101001011000000
          140 57 -39 -144 20 hvcurveto
          63 hlineto
          -34 239 rlineto
          -677 3 callsubr
          498 hlineto
          -39 -31 -18 -37 -42 -81 callgsubr
          -53 -46 77 56 83 hvcurveto
          112 hlineto
          hintmask 0000000000100000
          hintmask 0000110100000000
          -159 839 -104 callsubr
        </CharString>
        <CharString name="Epsilon">
          -22 callsubr
          -34 callgsubr
          hintmask 11111010
          -93 callsubr
          hintmask 10110100
          140 57 -39 -144 20 hvcurveto
          63 hlineto
          -34 239 rlineto
          -677 3 callsubr
          695 hlineto
          hintmask 00000010
          endchar
        </CharString>
        <CharString name="Ereversed">
          -22 callsubr
          hstemhm
          57 63 -28 63 147 63 180 151 hintmask 11101110
          803 hmoveto
          56 -107 567 107 56 -677 vlineto
          -34 -239 rlineto
          63 hlineto
          144 20 57 39 140 hhcurveto
          173 -243 -66 hlineto
          -86 -28 24 86 hvcurveto
          -63 -276 63 hlineto
          87 29 23 85 vhcurveto
          66 -268 -183 hlineto
          hintmask 10010000
          -172 -43 70 143 -27 hvcurveto
          -63 hlineto
          51 -269 rlineto
          endchar
        </CharString>
        <CharString name="Eta">
          1002 0 56 273 56 245 56 hstem
          164 151 371 151 vstem
          -85 callsubr
          endchar
        </CharString>
        <CharString name="Eth">
          -8 callsubr
        </CharString>
        <CharString name="Etilde">
          -22 callsubr
          55 88 -44 88 -92 callsubr
          hintmask 0000100000000000
          -117 833 rmoveto
          -32 33 rlineto
          hintmask 0001000000000000
          -80 callgsubr
          hintmask 0000100000000000
          -81 callsubr
          hintmask 0001000000000000
          32 -33 rlineto
          hintmask 0000100000000000
          -80 callsubr
          hintmask 0001000000000000
          -82 callgsubr
        </CharString>
        <CharString name="Euro">
          801 -12 56 207 56 72 56 207 56 hstem
          142 162 vstem
          729 550 rmoveto
          130 vlineto
          10 -8 8 -10 vhcurveto
          -11 hlineto
          -3 -3 -1 -1 -3 hvcurveto
          -48 -30 rlineto
          22 -40 -48 10 -49 hhcurveto
          -97 -97 -29 -68 -70 hvcurveto
          -47 -45 -29 -58 -14 -63 rrcurveto
          -60 94 callsubr
          57 hlineto
          -1 -12 0 -12 -12 vvcurveto
          -12 0 -12 1 -12 vhcurveto
          -51 94 callsubr
          66 hlineto
          14 -63 29 -58 47 -45 rrcurveto
          -68 70 97 -29 97 hhcurveto
          49 48 11 21 40 hvcurveto
          48 -29 rlineto
          -2 3 3 -1 3 hhcurveto
          11 hlineto
          10 8 8 10 hvcurveto
          130 vlineto
          10 -8 8 -10 vhcurveto
          -36 hlineto
          -9 -7 -6 -9 -2 hvcurveto
          -58 -9 -55 -37 -61 hhcurveto
          -68 -67 24 54 -42 hvcurveto
          -29 37 -13 45 -5 47 rrcurveto
          269 hlineto
          7 7 5 7 3 hvcurveto
          8 26 rlineto
          9 3 -10 9 -11 hhcurveto
          -280 36 hlineto
          36 317 vlineto
          8 7 5 7 2 hvcurveto
          8 26 rlineto
          9 3 -9 9 -12 hhcurveto
          -320 hlineto
          5 47 13 45 29 37 rrcurveto
          54 42 67 24 68 hhcurveto
          61 55 -37 -58 9 hvcurveto
          -8 2 7 -7 9 hhcurveto
          36 hlineto
          10 8 8 10 hvcurveto
          endchar
        </CharString>
        <CharString name="F">
          809 0 56 256 56 255 56 hstem
          27 callgsubr
          173 63 137 63 vstem
          751 440 rmoveto
          -34 239 rlineto
          -660 49 callgsubr
          256 62 vlineto
          88 23 -28 -82 hvcurveto
          63 276 -63 hlineto
          -81 -22 -29 -89 vhcurveto
          -62 255 163 hlineto
          142 49 -46 -137 19 hvcurveto
          endchar
        </CharString>
        <CharString name="G">
          1012 -12 56 175 53 -53 56 367 56 -17 callsubr
          hintmask 10111100
          -94 callsubr
          endchar
        </CharString>
        <CharString name="Gacute">
          18 callsubr
          67 -21 176 -20 -17 callsubr
          hintmask 10110011
          -94 callsubr
          hintmask 00001100
          -180 620 -104 callsubr
        </CharString>
        <CharString name="Gamma">
          773 0 56 567 56 hstem
          27 callgsubr
          vstem
          715 440 rmoveto
          -34 239 rlineto
          -624 49 callgsubr
          567 141 vlineto
          136 43 -52 -131 17 hvcurveto
          endchar
        </CharString>
        <CharString name="Gbreve">
          18 callsubr
          46 73 118 -20 -17 callsubr
          hintmask 10110011
          -94 callsubr
          hintmask 00001100
          -150 716 -102 callsubr
          endchar
        </CharString>
        <CharString name="Gcaron">
          18 callsubr
          57 -21 165 -20 -17 callsubr
          hintmask 10110011
          -94 callsubr
          hintmask 00001100
          -175 656 -61 callsubr
        </CharString>
        <CharString name="Gcedilla">
          19 callgsubr
          hintmask 11101111
          -94 callsubr
          -284 -352 -98 callgsubr
        </CharString>
        <CharString name="Gcircumflex">
          18 callsubr
          57 -21 165 -20 -17 callsubr
          hintmask 10110011
          -94 callsubr
          hintmask 00001100
          -175 539 -53 callsubr
        </CharString>
        <CharString name="Gcommaaccent">
          19 callgsubr
          hintmask 00101111
          -94 callsubr
          hintmask 11000000
          -284 -352 -98 callgsubr
        </CharString>
        <CharString name="Gdotaccent">
          18 callsubr
          48 163 hstemhm
          75 163 186 164 117 151 hintmask 00100000
          6 callgsubr
          hintmask 01000000
          -122 1 rlineto
          hintmask 10110101
          -94 callsubr
          hintmask 00001010
          -268 608 -101 callgsubr
        </CharString>
        <CharString name="H">
          1002 0 56 273 56 245 56 hstem
          164 151 371 151 vstem
          -85 callsubr
          endchar
        </CharString>
        <CharString name="H_uni0303">
          60 callsubr
          48 113 callsubr
          371 151 hintmask 11100110
          -85 callsubr
          hintmask 00001000
          -231 833 -87 callsubr
        </CharString>
        <CharString name="Hbar">
          54 callsubr
          102 56 87 95 callsubr
          431 107 56 -107 87 -88 callsubr
          -87 -371 87 -88 callsubr
          -87 -107 -56 107 -431 -49 callgsubr
          273 371 -273 -68 callsubr
          -258 385 rmoveto
          -371 102 371 hlineto
          endchar
        </CharString>
        <CharString name="Hbrevebelow">
          1002 125 callsubr
          42 56 273 56 245 56 -31 callsubr
          371 151 hintmask 00111110
          -85 callsubr
          hintmask 11000000
          -243 -22 -102 callsubr
          endchar
        </CharString>
        <CharString name="Hcircumflex">
          60 callsubr
          69 102 callsubr
          371 151 hintmask 11100110
          -85 callsubr
          hintmask 00011000
          -268 71 callsubr
        </CharString>
        <CharString name="Hdieresis">
          60 callsubr
          48 147 -31 callsubr
          -49 36 callgsubr
          -49 151 hintmask 11101001
          -85 callsubr
          hintmask 00010110
          -530 807 -78 callgsubr
        </CharString>
        <CharString name="Hdotbelow">
          60 callsubr
          -31 callsubr
          104 164 103 151 hintmask 11110100
          -85 callsubr
          hintmask 00001000
          -361 -119 -101 callgsubr
        </CharString>
        <CharString name="I">
          25 callsubr
          hstem
          27 callgsubr
          vstem
          -89 callgsubr
          endchar
        </CharString>
        <CharString name="I_J">
          1097 -12 46 -34 56 94 46 434 56 -31 callsubr
          152 106 callgsubr
          hintmask 01011010
          -89 callgsubr
          583 630 rmoveto
          56 vlineto
          -157 -4 -110 1 rlineto
          -27 -42 1 2 -27 hvcurveto
          -56 139 -479 vlineto
          hintmask 10110110
          -22 0 -95 -109 -4 -43 0 14 -34 vhcurveto
          22 16 11 22 28 vvcurveto
          55 -43 27 -38 -42 -40 -30 -52 -76 72 -50 143 155 94 63 99 vhcurveto
          480 vlineto
          endchar
        </CharString>
        <CharString name="Iacute">
          25 callsubr
          79 -21 176 -20 -74 callgsubr
          hintmask 00110000
          -18 839 -104 callsubr
        </CharString>
        <CharString name="Ibreve">
          25 callsubr
          58 73 118 -20 -74 callgsubr
          hintmask 00110000
          12 935 -102 callsubr
          endchar
        </CharString>
        <CharString name="Icaron">
          25 callsubr
          69 -21 165 -20 -74 callgsubr
          hintmask 00110000
          -13 875 -61 callsubr
        </CharString>
        <CharString name="Icircumflex">
          25 callsubr
          69 -21 165 -20 -74 callgsubr
          hintmask 00110000
          -13 71 callsubr
        </CharString>
        <CharString name="Idblgrave">
          25 callsubr
          79 -21 203 -20 -74 callgsubr
          hintmask 00110000
          -21 782 -90 callgsubr
        </CharString>
        <CharString name="Idieresis">
          141 callsubr
          hstemhm
          5 112 callsubr
          hintmask 11001000
          -89 callgsubr
          hintmask 00110100
          -275 807 -78 callgsubr
        </CharString>
        <CharString name="Idieresisacute">
          141 callsubr
          84 -21 176 -20 hstemhm
          5 112 callsubr
          hintmask 11000010
          -89 callgsubr
          hintmask 00111101
          -275 807 rmoveto
          -102 callgsubr
          321 hmoveto
          -102 callgsubr
          -64 232 -104 callsubr
        </CharString>
        <CharString name="Idotaccent">
          25 callsubr
          60 163 hstemhm
          158 164 -158 -71 callsubr
          hintmask 00110000
          -106 827 -101 callgsubr
        </CharString>
        <CharString name="Idotbelow">
          25 callsubr
          hstemhm
          158 164 -158 151 hintmask 11010000
          -89 callgsubr
          hintmask 00100000
          -106 -119 -101 callgsubr
        </CharString>
        <CharString name="Igrave">
          25 callsubr
          79 -21 176 -20 -74 callgsubr
          hintmask 00110000
          -103 802 -73 callsubr
        </CharString>
        <CharString name="Ihookabove">
          25 callsubr
          81 -21 190 -20 -74 callgsubr
          hintmask 00110000
          -64 872 -107 callsubr
        </CharString>
        <CharString name="Imacron">
          25 callsubr
          68 124 callsubr
          hintmask 11010000
          -89 callgsubr
          hintmask 00100000
          42 754 -30 callgsubr
        </CharString>
        <CharString name="Imacron.alt">
          25 callsubr
          68 124 callsubr
          hintmask 11010000
          -89 callgsubr
          hintmask 00100000
          -66 754 34 callsubr
        </CharString>
        <CharString name="Iogonek">
          479 105 callsubr
          574 56 hstem
          27 callgsubr
          vstem
          -5 callgsubr
          endchar
        </CharString>
        <CharString name="Iogonekacute">
          479 105 callsubr
          574 56 79 102 callgsubr
          hintmask 11100100
          -5 callgsubr
          hintmask 00011000
          83 835 -104 callsubr
        </CharString>
        <CharString name="Iota">
          25 callsubr
          hstem
          27 callgsubr
          vstem
          -89 callgsubr
          endchar
        </CharString>
        <CharString name="Itilde">
          25 callsubr
          48 88 -44 88 -74 callgsubr
          hintmask 00010000
          24 833 -86 callgsubr
        </CharString>
        <CharString name="J">
          93 callgsubr
          hstem
          36 106 callgsubr
          vstem
          -48 callsubr
          endchar
        </CharString>
        <CharString name="J_uni030C.cap">
          665.4762 -12 46 116 46 243 -21 146 122 -56 56 hstemhm
          36 106 callgsubr
          hintmask 11001110
          -48 callsubr
          260 -41 139 callsubr
          hintmask 00110000
          -32 23 -29 39 21 6 4 6 9 vhcurveto
          -9 -76 -45 -35 -17 -12 rrcurveto
          -4 -3 -4 -4 -7 vvcurveto
          -7 10 -12 9 12 83 66 105 vhcurveto
          endchar
        </CharString>
        <CharString name="Jacute">
          93 callgsubr
          79 -21 176 -20 hstemhm
          36 106 callgsubr
          hintmask 11100110
          -48 callsubr
          hintmask 00011000
          69 209 -104 callsubr
        </CharString>
        <CharString name="Jcircumflex">
          93 callgsubr
          61 callgsubr
          36 106 callgsubr
          hintmask 11100110
          -48 callsubr
          hintmask 00011000
          74 128 -53 callsubr
        </CharString>
        <CharString name="K">
          1003 78 callsubr
          hstem
          27 callgsubr
          vstem
          -75 callsubr
          endchar
        </CharString>
        <CharString name="Kappa">
          1003 78 callsubr
          hstem
          27 callgsubr
          vstem
          -75 callsubr
          endchar
        </CharString>
        <CharString name="Kcedilla">
          1003 29 callgsubr
          hstem
          27 callgsubr
          vstem
          -75 callsubr
          -229 -137 -98 callgsubr
        </CharString>
        <CharString name="Kcommaaccent">
          1003 29 callgsubr
          -31 callsubr
          hintmask 00111000
          -75 callsubr
          hintmask 11000000
          -229 -137 -98 callgsubr
        </CharString>
        <CharString name="L">
          773 78 callsubr
          hstem
          27 callgsubr
          vstem
          -77 callsubr
          endchar
        </CharString>
        <CharString name="L_uni0303">
          773 78 callsubr
          48 113 callsubr
          hintmask 11001000
          -77 callsubr
          hintmask 00010000
          -227 833 -86 callgsubr
        </CharString>
        <CharString name="Lacute">
          773 78 callsubr
          79 102 callgsubr
          hintmask 11001000
          -77 callsubr
          hintmask 00110000
          -269 839 -104 callsubr
        </CharString>
        <CharString name="Lambda">
          897 0 56 648 -20 hstem
          846 hmoveto
          56 -88 vlineto
          -255 619 rlineto
          29 -12 -16 0 -20 hhcurveto
          -14 hlineto
          -27 -9 -3 -26 -11 hvcurveto
          -249 -600 -6 -14 -1 -1 -21 -2 rlinecurve
          -1 -13 -17 -1 -13 hhcurveto
          -24 -56 hlineto
          1 14 72 3 28 hhcurveto
          142 -4 rlineto
          56 vlineto
          -14 -73 0 9 hvcurveto
          4 11 182 440 190 -460 rlineto
          -91 -56 hlineto
          4 52 79 0 53 hhcurveto
          endchar
        </CharString>
        <CharString name="Lcaron">
          773 0 56 383 -21 146 122 -56 56 -31 callsubr
          hintmask 10011000
          -77 callsubr
          -28 589 rmoveto
          21 callgsubr
        </CharString>
        <CharString name="Lcedilla">
          773 29 callgsubr
          hstem
          27 callgsubr
          vstem
          -77 callsubr
          -228 -133 -98 callgsubr
        </CharString>
        <CharString name="Lcommaaccent">
          773 29 callgsubr
          -31 callsubr
          hintmask 00111000
          -77 callsubr
          hintmask 11000000
          -228 -133 -98 callgsubr
        </CharString>
        <CharString name="Ldot">
          773 0 56 291 163 120 56 hstem
          27 callgsubr
          229 164 vstem
          -77 callsubr
          27 428 -101 callgsubr
        </CharString>
        <CharString name="Ldotbelow">
          773 78 callsubr
          -31 callsubr
          -10 164 hintmask 11100000
          -77 callsubr
          hintmask 00010000
          -212 -119 -101 callgsubr
        </CharString>
        <CharString name="Ldotbelowmacron">
          773 78 callsubr
          68 124 callsubr
          -10 164 hintmask 11010000
          -77 callsubr
          -212 63 callsubr
          hintmask 00100000
          14 873 -30 callgsubr
        </CharString>
        <CharString name="Lslash">
          773 78 callsubr
          hstem
          27 callgsubr
          vstem
          715 269 rmoveto
          -63 hlineto
          -89 -11 -32 -124 -176 hhcurveto
          -118 314 hlineto
          216 142 -33 47 -183 -121 rlineto
          192 134 27 callsubr
          -53 -1 -24 hhcurveto
          -107 -1 rlineto
          -62 -68 0 4 -55 hvcurveto
          -56 107 -291 vlineto
          -99 -66 32 -46 67 44 rlineto
          -215 -107 -56 624 vlineto
          endchar
        </CharString>
        <CharString name="M">
          1215 78 callsubr
          hstem
          170 70 673 131 vstem
          -56 callgsubr
          endchar
        </CharString>
        <CharString name="Mdotbelow">
          1215 78 callsubr
          hstemhm
          170 70 286 164 223 131 hintmask 11101000
          -56 callgsubr
          hintmask 00010000
          -289 -123 -101 callgsubr
        </CharString>
        <CharString name="Mu">
          1215 78 callsubr
          hstem
          170 70 673 131 vstem
          -56 callgsubr
          endchar
        </CharString>
        <CharString name="N">
          84 callsubr
          hstem
          164 145 callgsubr
          vstem
          -97 callgsubr
          endchar
        </CharString>
        <CharString name="Nacute">
          84 callsubr
          79 -21 176 -20 131 callgsubr
          hintmask 11001100
          -97 callgsubr
          hintmask 00110000
          -240 209 -104 callsubr
        </CharString>
        <CharString name="Ncaron">
          84 callsubr
          69 -21 165 -20 131 callgsubr
          hintmask 11001100
          -97 callgsubr
          hintmask 00110000
          -235 245 -61 callsubr
        </CharString>
        <CharString name="Ncedilla">
          1002 29 callgsubr
          hstem
          164 145 callgsubr
          vstem
          -97 callgsubr
          -344 -763 -98 callgsubr
        </CharString>
        <CharString name="Ncommaaccent">
          1002 29 callgsubr
          131 callgsubr
          hintmask 00111100
          -97 callgsubr
          hintmask 11000000
          -344 -763 -98 callgsubr
        </CharString>
        <CharString name="Ndotaccent">
          84 callsubr
          48 163 128 callgsubr
          hintmask 11010100
          -97 callgsubr
          hintmask 00101000
          -328 185 -101 callgsubr
        </CharString>
        <CharString name="Ndotbelow">
          84 callsubr
          128 callgsubr
          hintmask 11101000
          -97 callgsubr
          hintmask 00010000
          -328 -749 -101 callgsubr
        </CharString>
        <CharString name="Ntilde">
          84 callsubr
          48 88 -44 88 131 callgsubr
          hintmask 11001100
          -97 callgsubr
          hintmask 00010000
          -198 203 -86 callgsubr
        </CharString>
        <CharString name="Nu">
          84 callsubr
          hstem
          164 145 callgsubr
          vstem
          -97 callgsubr
          endchar
        </CharString>
        <CharString name="O">
          -16 callsubr
          hstem
          130 callgsubr
          vstem
          -105 callgsubr
          endchar
        </CharString>
        <CharString name="OE">
          -46 callgsubr
        </CharString>
        <CharString name="OE.dup">
          -46 callgsubr
        </CharString>
        <CharString name="Oacute">
          -16 callsubr
          67 -21 176 -95 callsubr
          -74 485 -104 callsubr
        </CharString>
        <CharString name="Obreve">
          -16 callsubr
          46 73 118 -95 callsubr
          -44 581 -102 callsubr
          endchar
        </CharString>
        <CharString name="Ocaron">
          -16 callsubr
          57 -21 165 -67 callsubr
          521 -61 callsubr
        </CharString>
        <CharString name="Ocircumflex">
          -16 callsubr
          57 -21 165 -67 callsubr
          404 -53 callsubr
        </CharString>
        <CharString name="Ocircumflexacute">
          -16 callsubr
          57 -21 376 -67 callsubr
          404 -66 callgsubr
        </CharString>
        <CharString name="Ocircumflexdotbelow">
          -16 callsubr
          57 -21 165 -20 117 callsubr
          hintmask 11111010
          -105 callgsubr
          -69 404 -91 callgsubr
          hintmask 00000100
          -77 -853 -101 callgsubr
        </CharString>
        <CharString name="Ocircumflexgrave">
          -16 callsubr
          57 -21 165 -67 callsubr
          404 -70 callsubr
        </CharString>
        <CharString name="Ocircumflexhookabove">
          -16 callsubr
          57 -21 370 -67 callsubr
          404 -91 callgsubr
          90 306 -107 callsubr
        </CharString>
        <CharString name="Ocircumflextilde">
          -16 callsubr
          57 -21 165 61 callsubr
          130 callgsubr
          hintmask 11000011
          -105 callgsubr
          hintmask 00110100
          -69 404 56 callsubr
          hintmask 00001000
          -80 callgsubr
          hintmask 00010100
          -81 callsubr
          hintmask 00001000
          32 -33 rlineto
          hintmask 00000100
          -80 callsubr
          hintmask 00001000
          -82 callgsubr
        </CharString>
        <CharString name="Odblgrave">
          -16 callsubr
          67 -21 203 -95 callsubr
          -77 428 -90 callgsubr
        </CharString>
        <CharString name="Odieresis">
          -16 callsubr
          36 147 hstemhm
          75 163 12 36 callgsubr
          10 163 hintmask 11010010
          -105 callgsubr
          hintmask 00101100
          -331 453 -78 callgsubr
        </CharString>
        <CharString name="Odotbelow">
          -16 callsubr
          117 callsubr
          hintmask 11101000
          -105 callgsubr
          hintmask 00010000
          -162 -473 -101 callgsubr
        </CharString>
        <CharString name="Ograve">
          -16 callsubr
          67 -21 176 -95 callsubr
          -159 448 -73 callsubr
        </CharString>
        <CharString name="Ohookabove">
          -16 callsubr
          69 -21 190 -95 callsubr
          -120 518 -107 callsubr
        </CharString>
        <CharString name="Ohorn">
          42 callgsubr
          121 75 callsubr
          hintmask 01010100
          -50 callsubr
          hintmask 00100000
          33 -66 -77 14 -76 hhcurveto
          hintmask 11001010
          -77 callgsubr
          hintmask 00100010
          54 45 70 23 71 hhcurveto
          70 70 -23 -54 45 hvcurveto
          49 -58 11 -79 -76 vvcurveto
          endchar
        </CharString>
        <CharString name="Ohornacute">
          42 callgsubr
          67 -21 75 -20 121 -71 callgsubr
          -109 482 -104 callsubr
        </CharString>
        <CharString name="Ohorndotbelow">
          42 callgsubr
          121 -20 hstemhm
          75 162 165 164 126 133 -97 162 hintmask 01010010
          -50 callsubr
          hintmask 00100000
          33 -66 -77 14 -76 hhcurveto
          hintmask 11001001
          -77 callgsubr
          hintmask 00100001
          54 45 70 23 71 hhcurveto
          70 70 -23 -54 45 hvcurveto
          49 -58 11 -79 -76 vvcurveto
          hintmask 00000100
          -162 -476 -101 callgsubr
        </CharString>
        <CharString name="Ohorngrave">
          42 callgsubr
          67 -21 75 -20 121 -71 callgsubr
          -159 445 -73 callsubr
        </CharString>
        <CharString name="Ohornhookabove">
          42 callgsubr
          69 -21 73 -20 137 -71 callgsubr
          -120 515 -107 callsubr
        </CharString>
        <CharString name="Ohorntilde">
          42 callgsubr
          36 88 -44 88 51 callgsubr
          hintmask 01000010
          -50 callsubr
          hintmask 00100000
          33 -66 -77 14 -76 hhcurveto
          hintmask 11000101
          -77 callgsubr
          hintmask 00100001
          54 45 70 23 71 hhcurveto
          70 70 -23 -54 45 hvcurveto
          49 -58 11 -79 -76 vvcurveto
          hintmask 00001000
          -32 476 -87 callsubr
        </CharString>
        <CharString name="Ohungarumlaut">
          -16 callsubr
          67 -21 203 -95 callsubr
          -232 525 -76 callsubr
        </CharString>
        <CharString name="Omacron">
          -16 callsubr
          56 62 hstemhm
          130 callgsubr
          hintmask 11011000
          -105 callgsubr
          hintmask 00100000
          -14 400 -30 callgsubr
        </CharString>
        <CharString name="Omega">
          -33 callsubr
        </CharString>
        <CharString name="Omicron">
          -16 callsubr
          hstem
          130 callgsubr
          vstem
          -105 callgsubr
          endchar
        </CharString>
        <CharString name="Oogonek">
          -16 callsubr
          hstem
          130 callgsubr
          vstem
          -31 callgsubr
          endchar
        </CharString>
        <CharString name="Oogonekacute">
          -16 callsubr
          67 -21 176 -20 hstemhm
          130 callgsubr
          hintmask 11001100
          -31 callgsubr
          hintmask 00110000
          -74 485 -104 callsubr
        </CharString>
        <CharString name="Orogate">
          968 75 163 223 46 222 163 vstem
          22 callsubr
          190 -131 160 -254 9 vhcurveto
          183 -46 -183 vlineto
          -259 -9 -127 -163 -187 vvcurveto
          -189 132 -153 254 -9 vhcurveto
          -182 46 182 vlineto
          258 10 127 157 184 vvcurveto
          -163 15 rmoveto
          -76 -9 -76 -39 -62 vhcurveto
          -71 -46 -78 -28 -74 hhcurveto
          -62 -81 21 75 -52 hvcurveto
          -46 68 -4 94 55 vvcurveto
          67 6 81 50 64 vhcurveto
          52 42 69 29 78 hhcurveto
          246 0 -232 -61 hvcurveto
          endchar
        </CharString>
        <CharString name="Oslash">
          -39 callsubr
        </CharString>
        <CharString name="Oslash.dup">
          -39 callsubr
        </CharString>
        <CharString name="Oslashacute">
          1002 -44 -21 53 46 618 46 53 -20 34 -21 176 -20 hstemhm
          75 151 -49 151 447 151 hintmask 0011001000000000
          926 339 rmoveto
          104 -45 123 -121 69 vhcurveto
          65 84 -41 32 -70 -92 rlineto
          26 -61 -76 13 -76 hhcurveto
          -292 -134 -173 -186 -79 27 -131 138 -79 hvcurveto
          hintmask 1100000110000000
          -63 -83 39 -32 71 91 rlineto
          -27 66 75 -11 72 hhcurveto
          290 136 166 185 hvcurveto
          -253 268 rmoveto
          -385 -496 rlineto
          hintmask 0110001000000000
          -57 64 -5 88 76 vvcurveto
          113 15 68 51 55 vhcurveto
          43 38 70 34 100 hhcurveto
          60 62 -12 -33 51 hvcurveto
          102 -268 rmoveto
          -91 0 -214 -274 vhcurveto
          hintmask 0000000110000000
          -38 -73 4 40 -62 hvcurveto
          384 495 rlineto
          53 -60 10 -79 -95 vvcurveto
          hintmask 0000110000000000
          -103 500 -104 callsubr
        </CharString>
        <CharString name="Otilde">
          -16 callsubr
          36 88 -44 88 -96 callgsubr
          hintmask 00010000
          -32 479 -86 callgsubr
        </CharString>
        <CharString name="P">
          -9 callgsubr
        </CharString>
        <CharString name="Phi">
          931 0 56 104 47 272 47 104 56 hstem
          75 156 159 138 171 156 vstem
          855 343 rmoveto
          92 -112 76 -202 14 vhcurveto
          -12 1 -1 1 17 vvcurveto
          86 81 callsubr
          -105 vlineto
          -244 -19 -71 -92 -71 vvcurveto
          -69 69 -94 246 -19 vhcurveto
          80 callgsubr
          86 vlineto
          17 1 1 10 1 vhcurveto
          219 15 97 83 84 vvcurveto
          -465 -136 rmoveto
          -116 10 -43 48 78 vvcurveto
          76 40 50 119 10 vhcurveto
          309 -136 rmoveto
          -78 -41 -51 -130 -8 vhcurveto
          274 vlineto
          130 -8 41 -51 -78 vvcurveto
          endchar
        </CharString>
        <CharString name="Pi">
          134 callgsubr
          567 95 callsubr
          567 107 56 -887 -56 107 -567 -49 callgsubr
          567 371 -567 -68 callsubr
          endchar
        </CharString>
        <CharString name="Psi">
          134 callgsubr
          105 56 279 47 87 56 hstem
          148 138 139 138 152 138 vstem
          926 520 rmoveto
          23 -20 0 -15 vhcurveto
          -73 hlineto
          -75 -27 -58 -86 -1 hvcurveto
          -1 -88 -38 -80 -113 -20 rrcurveto
          419 81 callsubr
          -418 vlineto
          -137 29 -1 124 -1 55 rrcurveto
          4 -1 119 -102 vhcurveto
          -72 hlineto
          -15 -21 0 -23 -17 14 -5 5 -1 hvcurveto
          52 -6 1 -55 1 -39 1 -37 17 -79 59 -50 64 -53 87 -13 49 -4 rrcurveto
          80 callgsubr
          105 vlineto
          70 5 64 15 57 36 rrcurveto
          89 57 10 103 22 vvcurveto
          24 2 68 46 6 vhcurveto
          8 1 17 2 20 vvcurveto
          endchar
        </CharString>
        <CharString name="Q">
          968 -194 163 19 51 -46 46 -42 163 -46 46 487 51 hstemhm
          75 156 141 46 205 46 67 156 hintmask 1100011011000000
          899 -7 rmoveto
          7 0 22 -22 -19 -2 -17 -7 -1 vhcurveto
          -18 -3 -20 -11 -65 hhcurveto
          -27 -32 0 50 -39 hvcurveto
          183 69 40 152 99 vvcurveto
          196 -139 163 -269 -275 -134 -167 -192 -194 140 -157 268 vhcurveto
          hintmask 1001000000000000
          24 39 1 8 41 hvcurveto
          -97 29 30 -94 100 hhcurveto
          hintmask 0010111111000000
          102 51 109 78 hvcurveto
          -163 346 rmoveto
          -79 -9 -123 -104 -62 vhcurveto
          42 -37 -38 43 -65 hhcurveto
          -58 -53 -32 -53 -9 0 -2 1 -4 hvcurveto
          -135 57 -7 146 76 vvcurveto
          42 2 101 48 68 vhcurveto
          81 58 85 16 59 hhcurveto
          69 83 -23 -75 52 hvcurveto
          44 -66 5 -87 -57 vvcurveto
          -170 -289 rmoveto
          -2 -6 -35 -9 -41 hhcurveto
          -12 -54 0 36 28 39 11 26 36 26 -17 -47 21 hvcurveto
          endchar
        </CharString>
        <CharString name="R">
          6 callsubr
          hstem
          164 144 159 30 callsubr
          -98 callsubr
          endchar
        </CharString>
        <CharString name="Racute">
          50 callsubr
          159 30 callsubr
          -98 callsubr
          hintmask 11100000
          18 341 -104 callsubr
        </CharString>
        <CharString name="Rcaron">
          50 callsubr
          159 30 callsubr
          -98 callsubr
          hintmask 11100000
          23 377 -61 callsubr
        </CharString>
        <CharString name="Rcedilla">
          6 callsubr
          hstem
          164 144 159 30 callsubr
          -98 callsubr
          -86 -631 -98 callgsubr
        </CharString>
        <CharString name="Rcommaaccent">
          50 callsubr
          159 30 callsubr
          -98 callsubr
          hintmask 11100000
          -86 -631 -98 callgsubr
        </CharString>
        <CharString name="Rdblgrave">
          50 callsubr
          159 30 callsubr
          -98 callsubr
          hintmask 11100000
          -20 284 -90 callgsubr
        </CharString>
        <CharString name="Rdotaccent">
          50 callsubr
          90 164 -95 30 callsubr
          hintmask 11110110
          -98 callsubr
          hintmask 11101000
          -70 329 -101 callgsubr
        </CharString>
        <CharString name="Rdotbelow">
          50 callsubr
          90 164 -95 30 callsubr
          hintmask 11110110
          -98 callsubr
          hintmask 11101000
          -70 -617 -101 callgsubr
        </CharString>
        <CharString name="Rdotbelowmacron">
          50 callsubr
          90 164 -95 30 callsubr
          hintmask 11110110
          -98 callsubr
          -70 -617 rmoveto
          46 -37 36 -45 vhcurveto
          hintmask 11101000
          -46 -36 -38 -43 -46 37 -36 45 46 36 38 43 hvcurveto
          hintmask 11100000
          148 873 -30 callgsubr
        </CharString>
        <CharString name="Rho">
          -9 callgsubr
        </CharString>
        <CharString name="S">
          718 -12 100 callgsubr
          hintmask 10111100
          642 203 rmoveto
          -94 callgsubr
          hintmask 01001000
          -51 callgsubr
          hintmask 10000100
          -50 callgsubr
          endchar
        </CharString>
        <CharString name="S_S">
          1437 -12 100 callgsubr
          151 102 363 102 hintmask 10111100
          642 203 rmoveto
          -94 callgsubr
          hintmask 01001000
          -51 callgsubr
          hintmask 10110111
          -50 callgsubr
          718 hmoveto
          -94 callgsubr
          hintmask 01000010
          -51 callgsubr
          hintmask 10000001
          -50 callgsubr
          endchar
        </CharString>
        <CharString name="Sacute">
          46 callgsubr
          67 -21 176 -20 hstemhm
          75 102 363 102 hintmask 10110011
          642 203 rmoveto
          -94 callgsubr
          hintmask 01000010
          -51 callgsubr
          hintmask 10000001
          -50 callgsubr
          hintmask 00001100
          -112 636 -104 callsubr
        </CharString>
        <CharString name="Scaron">
          46 callgsubr
          57 -21 165 -20 hstemhm
          75 102 363 102 hintmask 10110011
          642 203 rmoveto
          -94 callgsubr
          hintmask 01000010
          -51 callgsubr
          hintmask 10000001
          -50 callgsubr
          hintmask 00001100
          -107 672 -61 callsubr
        </CharString>
        <CharString name="Scedilla">
          718 -36 56 -32 56 -55 51 -20 56 370 51 150 51 hstemhm
          75 102 244 102 17 102 hintmask 0100111110000000
          642 203 rmoveto
          -94 callgsubr
          hintmask 0001001000000000
          -51 callgsubr
          hintmask 0100000000000000
          -20 0 -12 23 12 2 1 6 7 vhcurveto
          hintmask 0010000000000000
          11 10 25 26 11 9 40 -25 46 -14 45 -6 rrcurveto
          -93 vlineto
          2 callgsubr
          hintmask 1000000100000000
          52 -54 30 -57 vhcurveto
          hintmask 0010000110000000
          25 vlineto
          165 13 56 110 91 vvcurveto
          endchar
        </CharString>
        <CharString name="Scircumflex">
          46 callgsubr
          57 -21 165 -20 hstemhm
          75 102 363 102 hintmask 10110011
          642 203 rmoveto
          -94 callgsubr
          hintmask 01000010
          -51 callgsubr
          hintmask 10000001
          -50 callgsubr
          hintmask 00001100
          -107 555 -53 callsubr
        </CharString>
        <CharString name="Sdotbelow">
          46 callgsubr
          hstemhm
          75 102 101 164 98 102 hintmask 10111010
          642 203 rmoveto
          -94 callgsubr
          hintmask 01001000
          -51 callgsubr
          hintmask 10000010
          -50 callgsubr
          hintmask 00000100
          -200 -322 -101 callgsubr
        </CharString>
        <CharString name="Sigma">
          931 0 75 222 75 0 75 183 56 hstemhm
          hintmask 10110000
          855 258 rmoveto
          -63 hlineto
          -171 -23 -121 -12 -132 hhcurveto
          -278 hlineto
          294 245 rlineto
          12 10 4 3 10 vvcurveto
          8 0 2 -19 19 vhcurveto
          -237 258 rlineto
          221 hlineto
          79 65 -9 -16 35 hvcurveto
          54 -26 36 -59 10 -73 rrcurveto
          63 hlineto
          -34 239 rlineto
          -710 hlineto
          -19 -17 0 -28 -11 0 -4 11 -12 hvcurveto
          hintmask 11000000
          307 -334 -302 -252 rlineto
          -12 -10 -4 -3 -10 vvcurveto
          -22 22 0 14 vhcurveto
          710 hlineto
          endchar
        </CharString>
        <CharString name="T">
          68 callgsubr
          hstem
          373 151 vstem
          -82 callsubr
          endchar
        </CharString>
        <CharString name="T_uni0303">
          68 callgsubr
          61 88 -44 88 hstemhm
          373 151 hintmask 11001000
          -82 callsubr
          hintmask 00010000
          -122 399 -86 callgsubr
        </CharString>
        <CharString name="T_uni0308">
          68 callgsubr
          61 147 hstemhm
          214 112 callsubr
          hintmask 11001000
          -82 callsubr
          hintmask 00110100
          -421 373 -78 callgsubr
        </CharString>
        <CharString name="Tau">
          68 callgsubr
          hstem
          373 151 vstem
          -82 callsubr
          endchar
        </CharString>
        <CharString name="Tcaron">
          68 callgsubr
          82 -21 165 -20 hstemhm
          373 151 hintmask 11001000
          -82 callsubr
          hintmask 00110000
          -159 441 -61 callsubr
        </CharString>
        <CharString name="Tcedilla">
          897 -200 62 40 62 36 56 561 56 hstemhm
          373 151 -137 124 -27 138 hintmask 00111000
          846 434 rmoveto
          -24 239 rlineto
          -748 hlineto
          -24 -239 rlineto
          63 hlineto
          109 11 14 74 145 hhcurveto
          90 -561 -152 133 callgsubr
          55 1 27 hhcurveto
          hintmask 01000100
          58 -101 hlineto
          hintmask 10000010
          2 callgsubr
          hintmask 01100100
          52 -54 30 -57 vhcurveto
          -1 39 rlineto
          61 hlineto
          29 47 -1 -2 29 hvcurveto
          56 vlineto
          hintmask 00111000
          -152 561 89 hlineto
          145 14 -73 -110 11 hvcurveto
          endchar
        </CharString>
        <CharString name="Tdotbelow">
          68 callgsubr
          hstemhm
          367 164 -158 151 hintmask 11010000
          -82 callsubr
          hintmask 00100000
          -252 -553 -101 callgsubr
        </CharString>
        <CharString name="Theta">
          1002 -12 48 243 130 243 46 hstem
          75 150 72 63 281 63 72 150 vstem
          926 339 rmoveto
          188 -136 171 -289 -292 -134 -173 -186 -188 139 -163 286 290 136 166 185 vhcurveto
          -150 hmoveto
          -105 -27 -198 -249 -61 -94 14 81 -64 vhcurveto
          -51 64 -5 93 51 vvcurveto
          79 12 82 52 64 vhcurveto
          60 50 80 28 81 hhcurveto
          73 85 -20 -76 60 hvcurveto
          53 -67 5 -101 -49 vvcurveto
          -72 -94 rmoveto
          198 -63 -34 -281 34 -63 -198 63 34 281 -34 vlineto
          endchar
        </CharString>
        <CharString name="Thorn">
          809 1 55 122 56 278 56 62 55 hstem
          166 138 271 156 vstem
          731 373 rmoveto
          107 -92 88 -169 vhcurveto
          -166 62 107 55 hlineto
          -176 -3 -176 3 rlineto
          -55 96 callgsubr
          -55 vlineto
          176 3 176 -3 rlineto
          55 -107 122 154 vlineto
          228 45 127 68 hvcurveto
          -156 1 rmoveto
          -23 -5 -49 -39 -34 vhcurveto
          -34 -40 -50 0 -24 hhcurveto
          -113 278 137 hlineto
          128 6 -113 -25 hvcurveto
          endchar
        </CharString>
        <CharString name="Tlinebelow">
          897 -149 62 87 56 561 56 hstemhm
          373 151 hintmask 01110000
          -82 callsubr
          hintmask 10000000
          -104 -583 -30 callgsubr
        </CharString>
        <CharString name="U">
          -6 callsubr
          hstem
          27 callgsubr
          434 71 3 71 vstem
          -106 callsubr
          endchar
        </CharString>
        <CharString name="U_uni032F">
          985 -192 -21 118 73 10 69 callsubr
          -31 callsubr
          434 71 3 71 hintmask 00111110
          -106 callsubr
          hintmask 11000000
          -172 -843 -51 callsubr
        </CharString>
        <CharString name="Uacute">
          -6 callsubr
          79 102 callgsubr
          434 71 3 71 hintmask 11001110
          -106 callsubr
          hintmask 00110000
          -202 209 -104 callsubr
        </CharString>
        <CharString name="Ubreve">
          -6 callsubr
          58 73 118 90 callgsubr
          434 71 3 71 hintmask 11001110
          -106 callsubr
          hintmask 00110000
          -172 305 -102 callsubr
          endchar
        </CharString>
        <CharString name="Ucaron">
          -6 callsubr
          69 102 callsubr
          434 71 3 71 hintmask 11001110
          -106 callsubr
          hintmask 00110000
          -197 245 -61 callsubr
        </CharString>
        <CharString name="Ucircumflex">
          -6 callsubr
          69 102 callsubr
          434 71 3 71 hintmask 11001110
          -106 callsubr
          hintmask 00110000
          -197 128 -53 callsubr
        </CharString>
        <CharString name="Udblgrave">
          -6 callsubr
          79 -21 203 90 callgsubr
          434 71 3 71 hintmask 11001110
          -106 callsubr
          hintmask 00110000
          -205 152 -90 callgsubr
        </CharString>
        <CharString name="Udieresis">
          -6 callsubr
          48 147 -31 callsubr
          -28 36 callgsubr
          -7 71 3 71 hintmask 11010011
          -106 callsubr
          hintmask 00101100
          -27 callgsubr
          endchar
        </CharString>
        <CharString name="Udieresisacute">
          -6 callsubr
          48 147 84 102 callgsubr
          -28 36 callgsubr
          -7 71 3 71 hintmask 1100010011000000
          -106 callsubr
          hintmask 0011101100000000
          -27 callgsubr
          -64 232 -104 callsubr
        </CharString>
        <CharString name="Udieresiscaron">
          -6 callsubr
          48 147 74 102 callsubr
          -28 36 callgsubr
          -7 71 3 71 hintmask 1100010011000000
          -106 callsubr
          hintmask 0011101100000000
          -27 callgsubr
          -59 268 -61 callsubr
        </CharString>
        <CharString name="Udieresisgrave">
          -6 callsubr
          48 147 84 102 callgsubr
          -28 36 callgsubr
          -7 71 3 71 hintmask 1100010011000000
          -106 callsubr
          hintmask 0011101100000000
          -27 callgsubr
          -149 195 -73 callsubr
        </CharString>
        <CharString name="Udotbelow">
          -6 callsubr
          -31 callsubr
          125 164 145 71 3 71 hintmask 11101100
          -106 callsubr
          hintmask 00010000
          -290 -749 -101 callgsubr
        </CharString>
        <CharString name="Ugrave">
          -6 callsubr
          79 102 callgsubr
          434 71 3 71 hintmask 11001110
          -106 callsubr
          hintmask 00110000
          -287 172 -73 callsubr
        </CharString>
        <CharString name="Uhookabove">
          -6 callsubr
          81 -21 190 90 callgsubr
          434 71 3 71 hintmask 11001110
          -106 callsubr
          hintmask 00110000
          -248 242 -107 callsubr
        </CharString>
        <CharString name="Uhorn">
          -6 callsubr
          -4 52 85 90 callgsubr
          432 67 callsubr
          hintmask 00010001
          10 callsubr
          hintmask 00000010
          -31 18 -30 37 -5 vhcurveto
          hintmask 01000100
          -15 -16 -22 -10 -25 -5 rrcurveto
          30 vlineto
          hintmask 00100000
          -2 -12 -12 -2 -12 hhcurveto
          hintmask 11001100
          -58 callgsubr
          hintmask 00100000
          -182 -4 rlineto
          hintmask 11001100
          -44 callgsubr
          hintmask 00100001
          77 12 63 52 74 vvcurveto
          endchar
        </CharString>
        <CharString name="Uhornacute">
          -6 callsubr
          -4 52 31 -21 75 -20 121 -73 callgsubr
          -301 105 -104 callsubr
        </CharString>
        <CharString name="Uhorndotbelow">
          -6 callsubr
          -4 52 85 90 callgsubr
          96 164 172 67 callsubr
          hintmask 0001000010000000
          10 callsubr
          hintmask 0000000100000000
          -31 18 -30 37 -5 vhcurveto
          hintmask 0100001000000000
          -15 -16 -22 -10 -25 -5 rrcurveto
          30 vlineto
          hintmask 0010000000000000
          -2 -12 -12 -2 -12 hhcurveto
          hintmask 1100101000000000
          -58 callgsubr
          hintmask 0010000000000000
          -182 -4 rlineto
          hintmask 1100101000000000
          -44 callgsubr
          hintmask 0010000010000000
          77 12 63 52 74 vvcurveto
          hintmask 0000010000000000
          -383 -853 -101 callgsubr
        </CharString>
        <CharString name="Uhorngrave">
          -6 callsubr
          -4 52 31 -21 75 -20 121 -73 callgsubr
          -351 68 -73 callsubr
        </CharString>
        <CharString name="Uhornhookabove">
          -6 callsubr
          -4 52 33 -21 73 -20 137 -73 callgsubr
          -312 138 -107 callsubr
        </CharString>
        <CharString name="Uhorntilde">
          -6 callsubr
          -4 52 0 113 callsubr
          432 67 callsubr
          hintmask 0000000010000000
          10 callsubr
          hintmask 0000000100000000
          -31 18 -30 37 -5 vhcurveto
          hintmask 0100001000000000
          -15 -16 -22 -10 -25 -5 rrcurveto
          30 vlineto
          hintmask 0010000000000000
          -2 -12 -12 -2 -12 hhcurveto
          hintmask 1100011000000000
          -58 callgsubr
          hintmask 0010000000000000
          -182 -4 rlineto
          hintmask 1101011010000000
          -44 callgsubr
          77 12 63 52 74 vvcurveto
          hintmask 0000100000000000
          -224 99 rmoveto
          -32 33 rlineto
          hintmask 0001000000000000
          -80 callgsubr
          hintmask 0010100000000000
          -81 callsubr
          32 -33 rlineto
          -80 callsubr
          -82 callgsubr
        </CharString>
        <CharString name="Uhungarumlaut">
          -6 callsubr
          79 -21 203 90 callgsubr
          434 71 3 71 hintmask 11001110
          -106 callsubr
          hintmask 00110000
          -360 249 -76 callsubr
        </CharString>
        <CharString name="Umacron">
          -6 callsubr
          68 124 callsubr
          434 71 3 71 hintmask 11011100
          -106 callsubr
          hintmask 00100000
          -142 124 -30 callgsubr
        </CharString>
        <CharString name="Uogonek">
          985 -221 88 121 69 callsubr
          hstem
          27 callgsubr
          434 71 3 71 vstem
          927 630 rmoveto
          56 vlineto
          -142 -4 -143 4 rlineto
          -56 33 vlineto
          15 20 -1 -1 15 hvcurveto
          23 -2 1 -1 -20 vvcurveto
          -371 vlineto
          -148 -121 -42 -114 -187 -12 114 70 vhcurveto
          402 -88 callsubr
          -399 vlineto
          -120 98 -113 218 -9 vhcurveto
          -28 -30 -22 -37 -32 -81 callgsubr
          -37 -32 38 42 12 hvcurveto
          5 17 10 15 12 11 rrcurveto
          188 17 74 116 107 vvcurveto
          375 vlineto
          16 1 1 2 2 vhcurveto
          6 9 50 0 12 hhcurveto
          endchar
        </CharString>
        <CharString name="Upsilon">
          134 callgsubr
          520 122 hstem
          75 70 280 151 280 70 cntrmask 00111000
          926 553 rmoveto
          73 -74 72 -104 -139 -82 -123 -108 -26 vhcurveto
          -1 hlineto
          123 -32 -85 108 -130 hhcurveto
          -104 -74 -72 -73 -26 16 0 20 23 8 0 24 4 hvcurveto
          10 2 7 15 86 hhcurveto
          155 29 -164 -69 hvcurveto
          -287 -134 -56 vlineto
          4 48 109 0 52 hhcurveto
          52 110 0 -4 48 hvcurveto
          56 -134 287 vlineto
          68 29 165 155 88 5 -15 -10 2 vhcurveto
          -23 4 7 -1 24 hhcurveto
          20 16 0 26 hvcurveto
          endchar
        </CharString>
        <CharString name="Uring">
          -6 callsubr
          18 47 74 47 -31 callsubr
          68 72 134 72 88 71 3 71 hintmask 1100100110000000
          -106 callsubr
          hintmask 0011011000000000
          -305 158 -58 callsubr
        </CharString>
        <CharString name="Utilde">
          -6 callsubr
          48 113 callsubr
          434 71 3 71 hintmask 11001110
          -106 callsubr
          hintmask 00010000
          -160 203 -86 callgsubr
        </CharString>
        <CharString name="V">
          968 9 -21 642 56 hstem
          932 630 rmoveto
          56 vlineto
          -1 -15 -70 -3 -34 hhcurveto
          -142 62 callsubr
          39 19 -1 -5 26 hvcurveto
          -231 -479 -234 485 rlineto
          88 56 hlineto
          -4 -53 -76 0 -54 hhcurveto
          -160 4 rlineto
          -56 94 vlineto
          297 -613 rlineto
          -29 14 13 0 23 hhcurveto
          15 hlineto
          33 6 7 23 11 hvcurveto
          288 594 rlineto
          13 6 3 5 67 hhcurveto
          endchar
        </CharString>
        <CharString name="W">
          89 callsubr
          hstem
          -84 callsubr
          endchar
        </CharString>
        <CharString name="Wacute">
          89 callsubr
          79 -21 176 -20 hstemhm
          hintmask 11000000
          -84 callsubr
          hintmask 00110000
          -434 209 -104 callsubr
        </CharString>
        <CharString name="Wcircumflex">
          89 callsubr
          61 callgsubr
          hintmask 11000000
          -84 callsubr
          hintmask 00110000
          -429 128 -53 callsubr
        </CharString>
        <CharString name="Wdieresis">
          89 callsubr
          48 147 hstemhm
          427 36 callgsubr
          hintmask 11000000
          -84 callsubr
          hintmask 00111000
          -691 26 callgsubr
        </CharString>
        <CharString name="Wgrave">
          89 callsubr
          79 -21 176 -20 hstemhm
          hintmask 11000000
          -84 callsubr
          hintmask 00110000
          -519 172 -73 callsubr
        </CharString>
        <CharString name="X">
          -33 callgsubr
        </CharString>
        <CharString name="Xi">
          860 0 120 91 -20 99 120 83 -21 81 120 hstemhm
          57 63 -56 63 55 63 369 63 45 63 -53 63 -56 63 hintmask 0001101001000000
          795 472 rmoveto
          -10 201 rlineto
          -711 hlineto
          -10 -201 rlineto
          63 hlineto
          1 20 2 41 12 13 rrcurveto
          7 8 63 0 13 hhcurveto
          407 hlineto
          12 62 -1 -5 7 hvcurveto
          hintmask 0001000000100000
          15 -9 2 -47 1 -19 rrcurveto
          70 -261 rmoveto
          hintmask 0100000000010000
          -63 hlineto
          hintmask 1100010001000000
          -1 -19 -2 -53 -14 -11 rrcurveto
          -8 -8 -65 0 -14 hhcurveto
          -411 hlineto
          -11 -72 0 10 -6 hvcurveto
          -10 13 -3 27 -2 41 rrcurveto
          -63 hlineto
          10 -211 rlineto
          725 hlineto
          hintmask 0110000110010000
          -115 249 rmoveto
          202 -63 -41 -369 41 -63 -202 63 41 369 -41 vlineto
          endchar
        </CharString>
        <CharString name="Y">
          44 callsubr
          hstem
          42 callsubr
          vstem
          -87 callgsubr
          endchar
        </CharString>
        <CharString name="Yacute">
          44 callsubr
          79 -21 176 -20 hstemhm
          42 callsubr
          hintmask 11001100
          -87 callgsubr
          hintmask 00110000
          -252 209 -104 callsubr
        </CharString>
        <CharString name="Ycircumflex">
          44 callsubr
          61 callgsubr
          42 callsubr
          hintmask 11001100
          -87 callgsubr
          hintmask 00110000
          -247 128 -53 callsubr
        </CharString>
        <CharString name="Ydieresis">
          44 callsubr
          48 147 hstemhm
          249 148 14 144 15 148 -48 144 hintmask 11001010
          -87 callgsubr
          hintmask 00110100
          -509 26 callgsubr
        </CharString>
        <CharString name="Ydotbelow">
          44 callsubr
          hstemhm
          402 164 -155 144 115 144 hintmask 11011000
          -87 callgsubr
          hintmask 00100000
          -340 -749 -101 callgsubr
        </CharString>
        <CharString name="Ygrave">
          44 callsubr
          79 -21 176 -20 hstemhm
          42 callsubr
          hintmask 11001100
          -87 callgsubr
          hintmask 00111000
          -337 172 -73 callsubr
        </CharString>
        <CharString name="Yhookabove">
          44 callsubr
          81 144 callsubr
          hstemhm
          42 callsubr
          hintmask 11001100
          -87 callgsubr
          hintmask 00110000
          -298 242 -107 callsubr
        </CharString>
        <CharString name="Ytilde">
          44 callsubr
          48 88 -44 88 hstemhm
          42 callsubr
          hintmask 11001100
          -87 callgsubr
          hintmask 00010000
          -210 203 -86 callgsubr
        </CharString>
        <CharString name="Z">
          67 callgsubr
          hstem
          -75 callgsubr
          endchar
        </CharString>
        <CharString name="Zacute">
          67 callgsubr
          79 -21 176 -20 hstemhm
          hintmask 11000000
          -75 callgsubr
          hintmask 00110000
          -135 839 -104 callsubr
        </CharString>
        <CharString name="Zcaron">
          67 callgsubr
          61 callgsubr
          hintmask 11000000
          -75 callgsubr
          hintmask 00110000
          -130 875 -61 callsubr
        </CharString>
        <CharString name="Zdotaccent">
          67 callgsubr
          60 163 hstemhm
          313 164 hintmask 11000000
          -75 callgsubr
          hintmask 00110000
          -223 827 -101 callgsubr
        </CharString>
        <CharString name="Zdotbelow">
          67 callgsubr
          hstemhm
          313 164 hintmask 11000000
          -75 callgsubr
          hintmask 00100000
          -223 -119 -101 callgsubr
        </CharString>
        <CharString name="Zeta">
          67 callgsubr
          hstem
          -75 callgsubr
          endchar
        </CharString>
        <CharString name="a">
          -6 callgsubr
          hstem
          -11 callsubr
          vstem
          -107 callgsubr
          endchar
        </CharString>
        <CharString name="aacute">
          -6 callgsubr
          69 -21 202 -100 callgsubr
          82 406 -88 callgsubr
        </CharString>
        <CharString name="abreve">
          -6 callgsubr
          54 73 118 -100 callgsubr
          36 callsubr
          endchar
        </CharString>
        <CharString name="abreveacute">
          -6 callgsubr
          54 73 329 -100 callgsubr
          36 callsubr
          -73 130 -104 callsubr
        </CharString>
        <CharString name="abrevedotbelow">
          -6 callgsubr
          54 73 118 -20 hstemhm
          36 126 71 164 -1 127 hintmask 11111010
          -107 callgsubr
          36 callsubr
          hintmask 00000100
          -118 -817 -101 callgsubr
        </CharString>
        <CharString name="abrevegrave">
          -6 callgsubr
          54 73 118 -100 callgsubr
          36 callsubr
          -71 93 rmoveto
          -27 -58 -177 46 -15 4 -31 11 -6 34 rlinecurve
          41 -10 31 40 43 hhcurveto
          17 12 -8 -3 5 hvcurveto
          endchar
        </CharString>
        <CharString name="abrevehookabove">
          -6 callgsubr
          54 73 186 73 -46 73 37 -20 -28 callgsubr
          36 callsubr
          -75 0 callsubr
          hvcurveto
          hintmask 00001000
          10 -3 9 -5 8 vhcurveto
          1 10 11 1 12 hhcurveto
          20 12 -2 -6 8 hvcurveto
          hintmask 00010000
          2 -2 1 -4 -15 vvcurveto
          -6 -2 -5 -5 -3 vhcurveto
          -24 -15 -20 -20 -7 -24 rrcurveto
          -1 -6 -1 -6 -7 vvcurveto
          -16 vlineto
          -10 8 -8 9 10 8 8 10 vhcurveto
          15 vlineto
          19 17 9 47 16 vhcurveto
          hintmask 00001000
          11 3 rlineto
          hintmask 00010000
          21 7 20 15 24 vvcurveto
          endchar
        </CharString>
        <CharString name="abrevetilde">
          -6 callgsubr
          54 73 118 -30 callsubr
          36 callsubr
          12 154 rmoveto
          -32 33 rlineto
          hintmask 00001000
          -80 callgsubr
          hintmask 00010100
          -81 callsubr
          hintmask 00001000
          32 -33 rlineto
          hintmask 00000100
          -80 callsubr
          hintmask 00001000
          -82 callgsubr
        </CharString>
        <CharString name="acaron">
          52 callgsubr
          207 -100 callgsubr
          96 456 -54 callsubr
        </CharString>
        <CharString name="acircumflex">
          52 callgsubr
          207 -100 callgsubr
          96 293 -64 callgsubr
          endchar
        </CharString>
        <CharString name="acircumflexacute">
          52 callgsubr
          376 -100 callgsubr
          94 295 -66 callgsubr
        </CharString>
        <CharString name="acircumflexdotbelow">
          52 callgsubr
          207 -20 hstemhm
          36 126 71 164 -1 127 hintmask 11111010
          -107 callgsubr
          96 293 -64 callgsubr
          hintmask 00000100
          -75 -618 -101 callgsubr
        </CharString>
        <CharString name="acircumflexgrave">
          52 callgsubr
          165 -100 callgsubr
          94 295 -70 callsubr
        </CharString>
        <CharString name="acircumflexhookabove">
          52 callgsubr
          370 -103 callgsubr
          hintmask 00110100
          73 callsubr
          90 306 -107 callsubr
        </CharString>
        <CharString name="acircumflextilde">
          52 callgsubr
          165 -30 callsubr
          94 295 56 callsubr
          hintmask 00001000
          -80 callgsubr
          hintmask 00010100
          -81 callsubr
          hintmask 00001000
          32 -33 rlineto
          hintmask 00000100
          -80 callsubr
          hintmask 00001000
          -82 callgsubr
        </CharString>
        <CharString name="acute">
          647 85 callsubr
          487 634 -88 callgsubr
        </CharString>
        <CharString name="acute.cap">
          647 523 -21 176 -20 hstem
          494 597 -104 callsubr
        </CharString>
        <CharString name="acute.dup">
          647 85 callsubr
          487 634 -88 callgsubr
        </CharString>
        <CharString name="acute.ts1">
          647 525 -21 200 -20 hstem
          512 634 rmoveto
          34 -29 36 -36 -4 -3 0 -1 -4 vhcurveto
          -22 -3 -16 -18 -15 -15 rrcurveto
          -31 -31 -82 -69 -14 vvcurveto
          -11 32 -38 4 vhcurveto
          16 3 19 13 16 7 94 42 rcurveline
          28 13 33 14 38 vvcurveto
          endchar
        </CharString>
        <CharString name="adblgrave">
          -6 callgsubr
          69 -21 203 -100 callgsubr
          86 311 -90 callgsubr
        </CharString>
        <CharString name="adieresis">
          -6 callgsubr
          76 147 hstemhm
          36 126 -57 22 callgsubr
          -128 127 hintmask 11010010
          -107 callgsubr
          hintmask 00101100
          -143 374 -62 callsubr
        </CharString>
        <CharString name="adotbelow">
          -6 callgsubr
          hstemhm
          36 126 71 164 -1 127 hintmask 11101000
          -107 callgsubr
          hintmask 00010000
          1 -347 -101 callgsubr
        </CharString>
        <CharString name="ae">
          57 callsubr
          34 callgsubr
          hintmask 0001000001100000
          890 -20 callsubr
          hintmask 1010111010010000
          -59 callgsubr
          hintmask 1110001101000000
          7 callgsubr
          endchar
        </CharString>
        <CharString name="ae.dup">
          57 callsubr
          34 callgsubr
          hintmask 0001000001100000
          890 -20 callsubr
          hintmask 1010111010010000
          -59 callgsubr
          hintmask 1110001101000000
          7 callgsubr
          endchar
        </CharString>
        <CharString name="aeacute">
          57 callsubr
          69 -21 202 -20 34 callgsubr
          hintmask 0001000000011000
          890 -20 callsubr
          hintmask 1010110010100100
          -59 callgsubr
          hintmask 1110000011010000
          7 callgsubr
          hintmask 0000001100000000
          207 509 -88 callgsubr
        </CharString>
        <CharString name="agrave">
          -6 callgsubr
          69 -21 202 -103 callgsubr
          hintmask 00110100
          325 vmoveto
          -63 callgsubr
        </CharString>
        <CharString name="ahookabove">
          -6 callgsubr
          75 -21 190 -100 callgsubr
          43 405 -107 callsubr
        </CharString>
        <CharString name="amacron">
          -6 callgsubr
          118 62 13 callsubr
          hintmask 11011000
          -107 callgsubr
          hintmask 00100000
          149 343 -30 callgsubr
        </CharString>
        <CharString name="ampersand">
          1002 -12 56 291 46 7 56 216 46 hstemhm
          57 139 0 63 206 63 173 139 23 63 hintmask 1111101110000000
          933 388 rmoveto
          56 vlineto
          -3 -34 -34 -1 -34 -44 -79 4 -7 hhcurveto
          -56 vlineto
          41 5 -2 -5 18 hvcurveto
          -35 -44 -28 -39 -49 -57 -15 -17 -33 -37 -54 -44 -18 16 -114 104 -57 106 rrcurveto
          166 128 0 45 26 vvcurveto
          63 -48 75 -84 -92 -109 -64 -122 -40 7 -67 36 -78 vhcurveto
          -116 -84 rlineto
          -23 -17 -42 -35 -57 vvcurveto
          -102 110 -52 121 66 72 15 43 78 vhcurveto
          -34 67 87 -24 86 hhcurveto
          86 93 37 90 3 hvcurveto
          -63 hlineto
          -71 -5 -97 0 -11 hhcurveto
          -49 -46 17 45 -61 hvcurveto
          86 69 61 79 57 74 rrcurveto
          26 32 1 3 0 vvcurveto
          12 14 1 1 2 2 rrcurveto
          8 7 51 0 11 hhcurveto
          -444 180 rmoveto
          -63 -100 -74 -23 -18 vhcurveto
          -27 64 -4 62 21 vvcurveto
          74 53 26 33 49 19 -58 -34 vhcurveto
          -16 -489 rmoveto
          -32 -66 -62 -3 -19 hhcurveto
          -77 -29 77 52 hvcurveto
          hintmask 0000010000000000
          78 47 32 16 11 vhcurveto
          33 -62 70 -95 87 -58 rrcurveto
          endchar
        </CharString>
        <CharString name="anglearc">
          1002 -154 -21 852 -20 hstemhm
          629 72 0 72 hintmask 00010000
          926 36 rmoveto
          17 -11 14 -15 4 vhcurveto
          -142 39 rlineto
          10 46 5 47 48 vvcurveto
          48 -5 47 -10 46 vhcurveto
          142 39 rlineto
          15 4 11 14 17 vvcurveto
          24 -23 17 -23 -6 vhcurveto
          -141 -39 rlineto
          hintmask 11100000
          -25 72 -36 69 -49 60 rrcurveto
          9 -6 -11 5 -11 hhcurveto
          -20 -16 -16 -20 -8 3 -8 5 -6 hvcurveto
          42 -54 33 -59 21 -64 -568 -156 rcurveline
          -15 -4 -11 -14 -17 vvcurveto
          -17 11 -14 15 -4 vhcurveto
          568 -156 -21 -64 -33 -59 -42 -54 rlinecurve
          -5 -6 -3 -8 -8 124 callgsubr
          11 5 9 6 vhcurveto
          49 60 36 69 25 72 141 -39 rcurveline
          23 -6 23 17 24 vvcurveto
          -225 215 rmoveto
          -41 -4 -41 -9 -40 vhcurveto
          -442 122 442 122 rlineto
          9 -40 4 -41 -41 vvcurveto
          endchar
        </CharString>
        <CharString name="angleleft">
          505 -229 -21 1001 -20 hstem
          429 -213 rmoveto
          19 -20 32 -10 22 vhcurveto
          -166 366 -3 7 -6 9 -1 8 rlinecurve
          8 8 14 5 9 vhcurveto
          179 394 5 11 8 13 1 12 rlinecurve
          3 vlineto
          20 -16 17 -20 vhcurveto
          0 -4 0 -3 -1 vhcurveto
          -23 -4 -8 -24 -8 -19 -162 -357 rcurveline
          -10 -20 -9 -21 -9 -20 rrcurveto
          -5 -11 -7 -12 -12 vvcurveto
          -11 6 -10 5 -10 vhcurveto
          59 -142 68 -139 64 -140 9 -20 8 -27 27 -1 rrcurveto
          23 15 17 20 hvcurveto
          endchar
        </CharString>
        <CharString name="angleright">
          505 -229 -21 1001 -20 hstem
          359 251 rmoveto
          11 -6 10 -5 10 vhcurveto
          -24 54 -167 368 -9 19 -8 25 -24 3 rlinecurve
          -4 -3 0 -1 -4 hvcurveto
          -18 -2 -12 -16 -17 vvcurveto
          -19 16 -26 9 -19 vhcurveto
          51 -111 118 -261 8 -17 rlineto
          1 -3 3 -4 -4 vvcurveto
          -7 -8 -14 -4 -9 vhcurveto
          -176 -387 rlineto
          -7 -14 -11 -17 -16 vvcurveto
          -20 16 -17 20 vhcurveto
          2 hlineto
          26 1 8 24 9 20 191 421 rcurveline
          5 11 7 12 12 vvcurveto
          endchar
        </CharString>
        <CharString name="aogonek">
          99 callsubr
          13 callsubr
          hintmask 00101110
          619 28 rmoveto
          28 -15 0 -21 -60 0 8 23 vhcurveto
          208 vlineto
          82 -66 76 -180 -58 -140 0 -99 -44 32 -26 37 44 26 31 38 22 -9 15 -3 3 vhcurveto
          -2 3 -1 4 0 vvcurveto
          5 64 2 7 70 52 -28 -85 vhcurveto
          -27 vlineto
          -49 -311 -4 -148 hvcurveto
          hintmask 11000000
          -93 110 -28 100 106 47 48 26 17 vhcurveto
          -24 8 -18 21 -11 vhcurveto
          -39 -31 -39 -52 -42 -81 callgsubr
          hintmask 00010000
          -53 -43 78 56 83 hvcurveto
          hintmask 00100000
          4 4 -1 5 hhcurveto
          59 hlineto
          19 16 0 28 hvcurveto
          -223 109 rmoveto
          -21 0 -29 -39 -24 vhcurveto
          hintmask 01000110
          -23 -38 -47 0 -6 hhcurveto
          -56 -48 31 45 82 134 27 100 3 hvcurveto
          endchar
        </CharString>
        <CharString name="aogonekacute">
          99 callsubr
          69 -21 202 -20 13 callsubr
          hintmask 0010100110000000
          619 28 rmoveto
          28 -15 0 -21 -60 0 8 23 vhcurveto
          208 vlineto
          82 -66 76 -180 -58 -140 0 -99 -44 32 -26 37 44 26 31 38 22 -9 15 -3 3 vhcurveto
          -2 3 -1 4 0 vvcurveto
          5 64 2 7 70 52 -28 -85 vhcurveto
          -27 vlineto
          -49 -311 -4 -148 hvcurveto
          hintmask 1100000000000000
          -93 110 -28 100 106 47 48 26 17 vhcurveto
          -24 8 -18 21 -11 vhcurveto
          -39 -31 -39 -52 -42 -81 callgsubr
          hintmask 0001000000000000
          -53 -43 78 56 83 hvcurveto
          hintmask 0010000000000000
          4 4 -1 5 hhcurveto
          59 hlineto
          19 16 0 28 hvcurveto
          -223 109 rmoveto
          -21 0 -29 -39 -24 vhcurveto
          hintmask 0100000110000000
          -23 -38 -47 0 -6 hhcurveto
          -56 -48 31 45 82 134 27 100 3 hvcurveto
          hintmask 0000011000000000
          82 406 -88 callgsubr
        </CharString>
        <CharString name="aring">
          -6 callgsubr
          74 47 74 47 117 callgsubr
          hintmask 11001001
          -107 callgsubr
          hintmask 00110110
          -14 383 -58 callsubr
        </CharString>
        <CharString name="aringacute">
          -6 callgsubr
          74 122 callsubr
          117 callgsubr
          hintmask 1100010010000000
          -107 callgsubr
          hintmask 0011101100000000
          -14 383 -79 callgsubr
          -12 215 -104 callsubr
        </CharString>
        <CharString name="asciicircum">
          556 583 -21 123 59 hstem
          -5 566 vstem
          561 584 rmoveto
          -283 160 -283 -160 11 -22 271 123 272 -123 rlineto
          endchar
        </CharString>
        <CharString name="asciitilde">
          556 193 43 -25 43 -8 43 -25 43 hstemhm
          hintmask 10010000
          555 290 45 callsubr
          hintmask 01000000
          28 callgsubr
          hintmask 00100000
          20 10 20 11 17 14 rrcurveto
          endchar
        </CharString>
        <CharString name="asciitilde.low">
          556 0 43 -25 43 -8 43 -25 43 hstemhm
          0 555 hintmask 10010000
          555 97 45 callsubr
          hintmask 01001000
          28 callgsubr
          hintmask 00101000
          20 10 20 11 17 14 rrcurveto
          endchar
        </CharString>
        <CharString name="asterisk">
          647 327 -21 444 -20 hstemhm
          173 102 -3 102 hintmask 01010000
          559 441 rmoveto
          34 -13 4 -59 18 vhcurveto
          -100 31 135 42 rlineto
          15 5 22 6 34 vvcurveto
          29 -22 25 -28 -11 -6 -3 -7 -10 vhcurveto
          -134 -92 26 140 rlineto
          23 -22 20 -29 -29 -22 -20 -23 vhcurveto
          hintmask 00100000
          0 1 -8 2 -10 vhcurveto
          23 -122 -133 92 rlineto
          10 -14 -10 0 -4 hhcurveto
          -28 -22 -25 -29 -34 23 -7 14 -4 hvcurveto
          138 -42 -138 -42 rlineto
          -14 -4 -23 -7 -34 vvcurveto
          -29 22 -25 28 13 2 2 14 21 vhcurveto
          124 85 rlineto
          hintmask 10010000
          -25 -139 rlineto
          -23 22 -20 29 29 22 20 23 0 -1 8 -2 10 vhcurveto
          -23 122 133 -92 rlineto
          -10 14 10 0 4 hhcurveto
          28 22 25 29 hvcurveto
          endchar
        </CharString>
        <CharString name="asterisk.math">
          647 50 -21 444 -20 hstem
          272 101 -100 101 -77 52 cntrmask 00111000
          559 166 rmoveto
          37 -33 5 -29 9 vhcurveto
          -69 21 -14 4 -14 4 -14 5 rlinecurve
          14 6 15 3 14 4 68 21 rcurveline
          29 9 33 5 37 vvcurveto
          27 -21 29 -29 -20 -22 -19 -12 -16 vhcurveto
          -102 -70 3 34 10 36 6 34 rlinecurve
          2 10 4 12 11 vvcurveto
          29 -26 16 -26 -26 -23 -15 -30 -12 4 -13 2 -11 vhcurveto
          5 -33 10 -35 3 -33 -42 29 -42 31 -43 27 rrcurveto
          8 -11 -9 6 -13 hhcurveto
          -29 -21 -29 -27 -37 33 -5 29 -9 hvcurveto
          68 -21 14 -4 15 -3 14 -6 rlinecurve
          -14 -6 -15 -3 -14 -4 -68 -21 rcurveline
          -29 -9 -33 -5 -37 vvcurveto
          -27 21 -29 29 20 22 19 12 16 vhcurveto
          102 70 -3 -34 -10 -36 -6 -34 rlinecurve
          -2 -10 -4 -12 -11 vvcurveto
          -29 27 -16 24 26 24 16 29 12 -4 13 -2 11 vhcurveto
          -5 33 -10 35 -3 33 42 -29 42 -31 43 -27 rrcurveto
          -8 11 9 -6 13 hhcurveto
          29 21 29 27 hvcurveto
          endchar
        </CharString>
        <CharString name="at">
          1002 -6 46 86 46 350 46 86 46 hstemhm
          75 63 108 127 0 127 1 127 0 127 108 63 hintmask 1111101011000000
          926 83 rmoveto
          18 -17 0 -15 vhcurveto
          -29 hlineto
          -15 -2 0 -7 -19 hvcurveto
          -40 -116 -120 -14 -88 hhcurveto
          -272 -95 163 144 167 120 140 242 231 132 -127 -184 -28 0 -143 -76 -32 0 41 13 hvcurveto
          226 vlineto
          28 -3 4 -30 vhcurveto
          -22 hlineto
          -16 -1 1 9 -8 hvcurveto
          41 -35 -58 33 -83 hhcurveto
          hintmask 1111110101000000
          -163 -90 -99 -122 -123 91 -98 162 43 54 9 35 46 hvcurveto
          -43 36 78 -1 19 hhcurveto
          125 26 143 77 189 -140 165 -285 -296 -130 -175 -178 -165 115 -188 315 231 179 72 3 3 hvcurveto
          5 2 3 7 5 vvcurveto
          -298 150 rmoveto
          -56 -40 -64 -5 -22 hhcurveto
          -72 -57 58 117 117 57 58 72 22 64 -5 -56 40 hvcurveto
          endchar
        </CharString>
        <CharString name="atilde">
          -6 callgsubr
          83 88 -44 88 -104 callgsubr
          hintmask 00010000
          131 407 -86 callgsubr
        </CharString>
        <CharString name="b">
          718 -6 46 301 64 -1 46 180 64 hstemhm
          96 callsubr
          0 139 150 139 hintmask 00100000
          670 223 rmoveto
          121 -89 106 -174 vhcurveto
          hintmask 01010100
          -64 -56 -17 -28 -45 hvcurveto
          289 vlineto
          90 callsubr
          hintmask 10001010
          59 8 0 -39 hvcurveto
          -591 43 callgsubr
          hintmask 11000100
          -62 0 -123 -150 -54 -45 25 47 -33 vhcurveto
          229 vlineto
          hintmask 00100010
          100 callsubr
        </CharString>
        <CharString name="backslash">
          575 750 -20 hstem
          510 -219 rmoveto
          6 -1 1 -5 13 vhcurveto
          -377 919 rlineto
          17 -7 -5 13 -21 hhcurveto
          -14 -16 -11 -20 -6 1 -1 5 -13 hvcurveto
          377 -919 rlineto
          -15 6 6 -15 21 hhcurveto
          14 16 11 20 hvcurveto
          endchar
        </CharString>
        <CharString name="baht">
          914 -56 56 0 56 278 46 250 56 0 56 hstemhm
          166 138 117 56 175 150 hintmask 00001011
          838 187 rmoveto
          75 -62 78 -155 19 vhcurveto
          124 23 57 64 66 vvcurveto
          98 -104 76 -170 vhcurveto
          -51 56 hlineto
          16 -12 12 -16 -15 -13 -12 -16 vhcurveto
          -56 -362 vlineto
          hintmask 01010110
          31 callsubr
          362 vlineto
          hintmask 10110111
          -56 vlineto
          -15 13 -13 15 16 12 13 15 vhcurveto
          56 85 vlineto
          179 97 87 100 hvcurveto
          -186 325 rmoveto
          -81 -67 -51 -98 vhcurveto
          -10 250 38 hlineto
          98 39 -57 -61 hvcurveto
          -231 -132 rmoveto
          -117 250 117 hlineto
          261 -441 rmoveto
          hintmask 01100110
          -67 -48 -66 -116 vhcurveto
          -41 278 51 hlineto
          141 13 -109 -36 hvcurveto
          -261 -133 rmoveto
          -117 278 117 hlineto
          endchar
        </CharString>
        <CharString name="bar">
          319 750 -20 hstem
          129 61 vstem
          190 -206 rmoveto
          21 callsubr
          endchar
        </CharString>
        <CharString name="bigcircle">
          686 0 72 542 72 hstem
          0 72 542 -67 callgsubr
          endchar
        </CharString>
        <CharString name="blanksymbol">
          718 -6 46 301 64 -1 46 -21 46 -25 64 109 46 -39 64 hstemhm
          96 callsubr
          0 139 -132 120 162 139 hintmask 0010000000000000
          670 223 rmoveto
          121 -89 106 -174 vhcurveto
          hintmask 0100000010000000
          -64 -56 -17 -28 -45 hvcurveto
          127 vlineto
          hintmask 0000010001000000
          127 91 rlineto
          hintmask 0000010010000000
          7 5 5 9 116 callsubr
          -95 -68 rlineto
          hintmask 0000001010000000
          93 vlineto
          90 callsubr
          hintmask 0000100100000000
          59 8 0 -39 hvcurveto
          -77 vlineto
          hintmask 1001000100100000
          -55 -39 rlineto
          -7 -5 -5 -9 -9 vvcurveto
          -16 13 -12 15 6 6 2 3 4 vhcurveto
          23 16 rlineto
          -445 43 callgsubr
          hintmask 1000000010000000
          -62 0 -123 -150 vhcurveto
          hintmask 0100000001000000
          -54 -45 25 47 -33 hvcurveto
          229 vlineto
          hintmask 0010000000100000
          100 callsubr
        </CharString>
        <CharString name="braceleft">
          79 callgsubr
          -232 rmoveto
          13 -5 4 -12 1 vhcurveto
          -84 5 -37 35 -12 36 rrcurveto
          -3 10 0 8 17 vvcurveto
          237 vlineto
          -1 42 -32 51 -86 23 rrcurveto
          119 32 0 69 45 vvcurveto
          210 vlineto
          22 0 29 39 29 vhcurveto
          11 7 29 18 52 3 rrcurveto
          14 1 8 0 17 vvcurveto
          18 -9 0 -22 -142 -90 -50 -77 -1 vhcurveto
          -206 vlineto
          -62 0 -21 -33 -29 vhcurveto
          -23 -21 -35 -14 -41 -2 rrcurveto
          -14 -1 -8 0 -17 vvcurveto
          -13 5 -4 12 -1 vhcurveto
          90 -5 36 -45 9 -36 rrcurveto
          2 -8 0 -2 -37 vvcurveto
          -210 vlineto
          -128 166 -11 67 22 9 0 18 vhcurveto
          endchar
        </CharString>
        <CharString name="braceright">
          79 callgsubr
          250 rmoveto
          13 -5 4 -12 1 vhcurveto
          -64 3 -52 26 -17 55 rrcurveto
          -3 8 0 2 39 vvcurveto
          210 vlineto
          123 -152 16 -82 -21 -10 0 -18 -13 5 -4 12 -1 vhcurveto
          81 -4 41 -33 12 -39 rrcurveto
          3 -10 0 -8 -17 vvcurveto
          -237 vlineto
          1 -42 31 -50 87 -24 rrcurveto
          -119 -32 0 -68 -46 vvcurveto
          -210 vlineto
          -23 0 -26 -37 -29 vhcurveto
          -10 -7 -31 -20 -54 -3 rrcurveto
          -14 -1 -8 0 -17 vvcurveto
          -18 10 0 21 150 83 54 73 1 vhcurveto
          206 vlineto
          65 0 17 34 31 vhcurveto
          11 11 33 22 53 3 rrcurveto
          14 1 8 0 17 vvcurveto
          endchar
        </CharString>
        <CharString name="bracketleft">
          364 -250 73 854 73 hstem
          144 73 vstem
          331 -250 rmoveto
          73 -114 854 114 73 -187 -1000 vlineto
          endchar
        </CharString>
        <CharString name="bracketright">
          364 -250 73 854 73 hstem
          146 73 vstem
          219 -250 rmoveto
          1000 -187 -73 114 -854 -114 -73 vlineto
          endchar
        </CharString>
        <CharString name="breve">
          647 507 73 118 -20 hstem
          524 698 -102 callsubr
          endchar
        </CharString>
        <CharString name="breve.cap">
          647 502 73 118 -20 hstem
          524 693 -102 callsubr
          endchar
        </CharString>
        <CharString name="breve.ts1">
          789 504 73 118 -20 hstem
          123 46 450 46 vstem
          665 695 rmoveto
          -46 hlineto
          -113 -170 -5 -61 -82 -137 16 102 vhcurveto
          -46 hlineto
          -133 150 -58 118 125 149 58 133 vhcurveto
          endchar
        </CharString>
        <CharString name="brokenbar">
          319 750 -20 hstem
          129 61 vstem
          190 341 rmoveto
          365 vlineto
          14 0 30 -30 -31 0 -29 -15 vhcurveto
          -365 vlineto
          -16 14 -12 17 16 14 12 16 vhcurveto
          -547 vmoveto
          365 vlineto
          16 -14 12 -16 -17 -14 -12 -16 vhcurveto
          -365 32 callsubr
          endchar
        </CharString>
        <CharString name="bullet">
          1002 67 306 hstem
          348 306 64 callsubr
          endchar
        </CharString>
        <CharString name="c">
          53 callsubr
          hstemhm
          47 139 146 139 -89 139 hintmask 11110000
          -49 callsubr
          hintmask 11101000
          -2 -3 -9 -15 -22 vvcurveto
          -41 30 -28 39 41 29 28 42 96 -134 3 -58 -223 -59 -138 -93 -117 87 -111 189 49 51 8 23 40 vhcurveto
          57 34 15 49 6 vvcurveto
          endchar
        </CharString>
        <CharString name="cacute">
          53 callsubr
          69 -21 202 -52 callsubr
          -55 520 -88 callgsubr
        </CharString>
        <CharString name="caron">
          647 84 callgsubr
          501 684 -54 callsubr
        </CharString>
        <CharString name="caron.cap">
          104 callgsubr
          -20 hstem
          499 633 -61 callsubr
        </CharString>
        <CharString name="caron.ts1">
          789 569 -21 176 -20 hstem
          637 666 rmoveto
          -26 58 -217 -83 -67 25 -150 58 -26 -58 243 -118 rlineto
          endchar
        </CharString>
        <CharString name="ccaron">
          53 callsubr
          67 -21 207 -52 callsubr
          -41 570 -54 callsubr
        </CharString>
        <CharString name="ccedilla">
          53 callsubr
          hstemhm
          47 139 146 139 -89 139 hintmask 11110000
          -49 callsubr
          hintmask 01101000
          -2 -3 -9 -15 -22 vvcurveto
          -41 30 -28 39 41 29 28 42 96 -134 3 -58 -223 -59 -138 -93 -102 66 -97 142 -24 vhcurveto
          -97 vlineto
          40 callgsubr
          127 157 0 82 52 -54 30 -57 hvcurveto
          34 vlineto
          30 4 29 9 25 14 rrcurveto
          57 34 15 49 6 vvcurveto
          endchar
        </CharString>
        <CharString name="ccircumflex">
          53 callsubr
          67 -21 207 -52 callsubr
          -41 407 -64 callgsubr
          endchar
        </CharString>
        <CharString name="cdotaccent">
          53 callsubr
          68 163 hstemhm
          47 139 49 164 -67 139 -89 139 hintmask 11010100
          -49 callsubr
          hintmask 11010010
          -2 -3 -9 -15 -22 vvcurveto
          -41 30 -28 39 41 29 28 42 96 -134 3 -58 -223 -59 -138 -93 -117 87 -111 189 49 51 8 23 40 vhcurveto
          57 34 15 49 6 vvcurveto
          hintmask 00101000
          -136 488 -101 callgsubr
        </CharString>
        <CharString name="cedilla">
          11 callsubr
        </CharString>
        <CharString name="cedilla.dup">
          11 callsubr
        </CharString>
        <CharString name="cent">
          576 -56 51 -1 51 357 51 hstemhm
          47 139 103 56 37 139 -126 56 hintmask 01101010
          535 114 rmoveto
          18 -17 0 -15 -23 -2 -1 -15 -7 vhcurveto
          -33 -15 -32 -38 -77 hhcurveto
          -2 357 hlineto
          19 -1 31 -1 -3 vvcurveto
          -2 -4 rlineto
          hintmask 00000100
          -2 -3 -9 -15 -22 vvcurveto
          hintmask 00000010
          -41 30 -28 39 vhcurveto
          hintmask 10111100
          41 29 28 42 88 -113 10 -63 1 hvcurveto
          47 vlineto
          16 -13 12 -15 -16 -12 -12 -16 vhcurveto
          -49 vlineto
          -190 -15 -52 -127 -87 vvcurveto
          -110 77 -104 165 -13 vhcurveto
          -51 vlineto
          -15 12 -13 16 15 13 13 15 vhcurveto
          51 vlineto
          42 2 42 8 34 20 rrcurveto
          57 34 15 49 6 vvcurveto
          -246 -62 rmoveto
          -103 30 0 109 35 vvcurveto
          66 9 86 94 20 vhcurveto
          endchar
        </CharString>
        <CharString name="cent.oldstyle">
          53 callsubr
          hstemhm
          47 139 44 139 -45 139 -99 139 -121 139 -126 56 hintmask 10000100
          535 114 rmoveto
          18 -17 0 -15 -23 -2 -1 -15 -7 vhcurveto
          -33 -15 -32 -38 -77 hhcurveto
          -24 -20 3 5 -18 hvcurveto
          hintmask 00010001
          84 348 rlineto
          14 -1 12 -1 -2 vvcurveto
          -2 -4 rlineto
          hintmask 00000010
          -2 -3 -9 -15 -22 vvcurveto
          hintmask 00000001
          -41 30 -28 39 vhcurveto
          hintmask 00000010
          41 29 28 42 73 -78 19 -62 5 hvcurveto
          10 43 rlineto
          hintmask 00000100
          18 4 -13 16 -18 hhcurveto
          -13 -12 -9 -12 -3 hvcurveto
          hintmask 01101000
          -12 -54 rlineto
          -219 -2 -58 -137 -92 vvcurveto
          -92 54 -89 116 -33 vhcurveto
          -14 -57 rlineto
          hintmask 10010000
          -18 -4 13 -17 18 hhcurveto
          14 11 9 12 3 hvcurveto
          14 60 rlineto
          -2 16 17 -1 18 hhcurveto
          hintmask 00101000
          49 51 8 23 40 hvcurveto
          57 34 15 49 6 vvcurveto
          -224 287 rmoveto
          -76 -319 rlineto
          -49 44 0 72 28 vvcurveto
          71 11 94 114 10 vhcurveto
          endchar
        </CharString>
        <CharString name="centigrade">
          1215 -11 56 302 74 -19 74 138 74 -45 56 1 -20 hstemhm
          359 163 315 163 hintmask 11001011
          1139 227 rmoveto
          18 -6 9 -18 vhcurveto
          -22 hlineto
          -20 -3 3 -24 -2 -15 rrcurveto
          -116 -19 -126 -51 -102 hhcurveto
          -84 -95 21 64 -60 hvcurveto
          -54 58 -12 83 76 vvcurveto
          57 8 62 28 51 vhcurveto
          94 51 115 32 100 hhcurveto
          13 hlineto
          103 -5 107 -73 18 -114 rrcurveto
          -17 2 2 -13 25 hhcurveto
          8 hlineto
          18 19 1 22 hvcurveto
          230 vlineto
          hintmask 00000101
          14 -5 12 -18 -32 -25 -55 -12 -35 vhcurveto
          -6 -11 10 4 -7 hvcurveto
          hintmask 10001010
          32 -57 -67 20 -65 hhcurveto
          -36 hlineto
          -23 -3 -22 0 -23 -3 rrcurveto
          -178 -23 -170 -121 -205 vvcurveto
          -220 190 -135 259 vhcurveto
          16 hlineto
          123 8 143 51 40 125 rrcurveto
          5 17 4 19 18 vvcurveto
          -851 319 rmoveto
          hintmask 00110000
          81 -62 61 -81 vhcurveto
          -4 -5 -1 -4 hhcurveto
          -83 -10 -45 -61 -72 vvcurveto
          -81 62 -61 81 87 54 69 75 vhcurveto
          -73 -1 rmoveto
          -41 -28 -28 -41 -38 -26 24 37 -5 vhcurveto
          8 vlineto
          41 28 28 41 38 26 -24 -37 5 vhcurveto
          endchar
        </CharString>
        <CharString name="circumflex">
          647 84 callgsubr
          501 521 -64 callgsubr
          endchar
        </CharString>
        <CharString name="circumflex.cap">
          104 callgsubr
          -20 hstem
          499 516 -53 callsubr
        </CharString>
        <CharString name="circumflex.dup">
          647 84 callgsubr
          501 521 -64 callgsubr
          endchar
        </CharString>
        <CharString name="colon">
          363 0 163 118 163 hstem
          100 163 vstem
          263 362 -35 callsubr
          -281 vmoveto
          17 callgsubr
        </CharString>
        <CharString name="colonmonetary">
          54 callgsubr
          hstem
          75 163 246 56 247 68 vstem
          855 228 rmoveto
          25 -11 0 -21 -14 -16 0 -17 -1 vhcurveto
          -153 -9 -153 -39 -87 hhcurveto
          -3 598 1 hlineto
          129 92 -88 -104 20 hvcurveto
          -27 5 0 -2 29 hhcurveto
          7 hlineto
          29 3 3 29 hvcurveto
          213 vlineto
          20 0 12 -23 -12 -2 -1 -9 -10 vhcurveto
          -67 -58 -80 55 -78 11 -43 2 rlinecurve
          44 vlineto
          16 -12 12 -16 -15 -13 -12 -16 vhcurveto
          -45 vlineto
          -268 -12 -141 -157 -185 vvcurveto
          -182 137 -160 272 -12 vhcurveto
          -45 vlineto
          -15 13 -13 15 16 12 13 15 vhcurveto
          44 vlineto
          193 8 122 113 119 vvcurveto
          -371 -180 rmoveto
          -64 8 -65 22 -46 45 rrcurveto
          -57 57 -14 84 79 vvcurveto
          95 20 87 68 53 vhcurveto
          50 38 57 16 51 7 rrcurveto
          endchar
        </CharString>
        <CharString name="comma">
          363 -173 -21 194 163 hstem
          100 177 vstem
          277 34 rmoveto
          70 -36 59 -60 -51 -30 -39 -42 -43 30 -39 52 28 9 6 8 11 vhcurveto
          -12 -102 -59 -46 -23 -17 rrcurveto
          -5 -4 -6 -5 -9 vvcurveto
          -10 14 -15 11 17 110 87 141 vhcurveto
          endchar
        </CharString>
        <CharString name="copyleft">
          686 0 72 314 72 156 72 hstem
          0 72 542 -67 callgsubr
          -100 hmoveto
          74 -59 63 -112 -12 -36 0 -26 -38 vhcurveto
          -26 22 rlineto
          4 -4 -1 0 -5 hhcurveto
          -8 0 -5 -7 hvcurveto
          -82 vlineto
          -12 1 -1 11 vhcurveto
          3 hlineto
          11 0 1 10 2 hvcurveto
          40 7 36 34 50 hhcurveto
          24 32 -4 -20 27 hvcurveto
          26 -21 8 -33 -37 vvcurveto
          -30 -6 -33 -22 -22 vhcurveto
          -23 -23 -35 -7 -32 hhcurveto
          -34 -59 15 59 -3 hvcurveto
          6 -1 -6 0 -5 hhcurveto
          -8 -4 0 -9 -48 50 -45 80 113 58 64 73 hvcurveto
          endchar
        </CharString>
        <CharString name="copyright">
          686 0 72 314 72 156 72 hstem
          0 72 542 -67 callgsubr
          -140 -44 rmoveto
          9 -5 0 -8 -5 -6 0 -6 -1 vhcurveto
          -59 -3 -59 -15 -34 hhcurveto
          -31 -36 7 23 -23 hvcurveto
          -22 22 -6 33 30 vvcurveto
          37 8 33 26 21 vhcurveto
          20 27 32 4 24 hhcurveto
          50 36 -34 -40 7 hvcurveto
          -10 2 0 -1 12 hhcurveto
          2 hlineto
          11 2 1 12 hvcurveto
          82 vlineto
          7 0 5 -9 -5 -1 0 -4 -4 vhcurveto
          -25 -22 rlineto
          26 -39 -36 0 -12 hhcurveto
          -112 -58 -63 -74 -73 57 -64 114 79 51 45 48 hvcurveto
          endchar
        </CharString>
        <CharString name="copyright.alt">
          869 -212 72 514 72 139 72 hstem
          0 72 725 72 vstem
          869 222 rmoveto
          267 -168 168 -267 -266 -168 -168 -267 -266 168 -168 266 267 168 168 266 vhcurveto
          -72 hmoveto
          -222 -140 -140 -223 -222 -140 140 222 223 140 140 222 223 140 -140 -223 vhcurveto
          -127 -74 rmoveto
          16 -8 0 -13 -9 -11 0 -11 vhcurveto
          -99 -6 -99 -25 -57 hhcurveto
          -53 -59 12 39 -39 hvcurveto
          -37 37 -9 54 51 vvcurveto
          62 13 56 44 34 vhcurveto
          35 45 54 7 40 hhcurveto
          84 59 -57 -68 13 hvcurveto
          -17 4 0 -1 18 hhcurveto
          5 hlineto
          19 2 2 18 hvcurveto
          138 vlineto
          13 0 8 -15 -8 -1 -1 -5 -7 vhcurveto
          -43 -38 rlineto
          44 -64 -62 0 -19 hhcurveto
          -188 -99 -105 -125 -122 96 -108 191 134 85 75 81 hvcurveto
          endchar
        </CharString>
        <CharString name="currency">
          1002 -42 -20 40 72 400 72 42 -21 hstem
          229 72 401 72 vstem
          802 551 rmoveto
          -26 26 -26 -25 -8 -9 -76 -76 rcurveline
          35 -46 -57 20 -62 hhcurveto
          -62 -57 -20 -35 -46 hvcurveto
          -77 76 -7 8 -27 26 -25 -25 rlinecurve
          -26 -26 25 -26 9 -8 76 -77 rcurveline
          -35 -46 -20 -57 -62 vvcurveto
          -62 20 -57 35 -45 vhcurveto
          -76 -77 -8 -7 -26 -27 25 -25 rlinecurve
          26 -26 26 25 8 9 76 76 rcurveline
          -36 46 58 -20 62 hhcurveto
          62 57 20 35 46 hvcurveto
          76 -75 7 -8 27 -26 25 25 rlinecurve
          26 26 -25 26 -9 8 -75 76 rcurveline
          35 46 21 57 62 vvcurveto
          62 -21 58 -36 46 vhcurveto
          76 76 8 7 26 27 -25 25 rlinecurve
          -100 -301 rmoveto
          -111 -90 -89 -111 -111 -89 89 111 111 89 89 111 111 90 -89 -111 vhcurveto
          endchar
        </CharString>
        <CharString name="cwm">
          0 endchar
        </CharString>
        <CharString name="cwmascender">
          0 endchar
        </CharString>
        <CharString name="cwmcapital">
          0 endchar
        </CharString>
        <CharString name="d">
          83 callsubr
          180 35 callgsubr
          hintmask 0100010010000000
          39 callsubr
          hintmask 0010100100000000
          58 callgsubr
          hintmask 1001001010000000
          -12 callgsubr
          hintmask 0100000000000000
          122 vmoveto
          hintmask 1001001100000000
          5 callsubr
          hintmask 0010000010000000
          127 callgsubr
          endchar
        </CharString>
        <CharString name="dagger">
          511 388 111 203 -20 hstemhm
          200 111 -32 111 hintmask 10010000
          447 443 rmoveto
          142 callgsubr
          -33 -16 -9 -2 -13 -3 3 28 7 23 9 27 rrcurveto
          hintmask 11100000
          11 36 11 37 33 vvcurveto
          49 -37 10 -18 -22 -34 -13 -46 -33 11 -36 10 -32 vhcurveto
          10 -33 7 -23 3 -27 -10 2 -11 3 -19 9 rrcurveto
          12 -24 -29 14 -27 98 callgsubr
          33 16 9 2 13 3 -3 -27 -10 -28 -7 -20 rrcurveto
          -21 -64 0 -15 -43 vvcurveto
          -129 10 -130 16 -128 vhcurveto
          2 -16 4 -28 3 -4 rrcurveto
          -7 3 8 0 9 hhcurveto
          hintmask 00010000
          11 10 0 11 3 hvcurveto
          hintmask 00100000
          2 12 30 208 211 vvcurveto
          46 0 12 -23 70 vhcurveto
          -7 21 -8 25 -3 23 10 -2 11 -3 19 -9 rrcurveto
          hintmask 10010000
          -12 24 29 -14 27 hhcurveto
          41 16 30 25 hvcurveto
          endchar
        </CharString>
        <CharString name="daggerdbl">
          511 -32 111 323 111 -92 110 171 -20 hstemhm
          200 111 hintmask 00100000
          447 476 rmoveto
          28 -19 27 -37 vhcurveto
          hintmask 01011000
          -18 -23 -6 -12 -24 hvcurveto
          -32 -15 -6 -2 -17 -4 3 18 1 8 13 33 rrcurveto
          13 34 10 31 28 vvcurveto
          44 -34 14 -21 -26 -30 -16 -42 -31 14 -36 10 -27 vhcurveto
          12 -33 1 -6 3 -19 -15 4 -6 1 -19 9 rrcurveto
          hintmask 00101000
          12 -24 -28 13 -28 hhcurveto
          -37 -19 -27 -28 -13 6 -42 51 13 16 0 24 49 hvcurveto
          20 10 5 1 16 4 -3 -18 -1 -8 -13 -33 rrcurveto
          -13 -34 -10 -31 -28 vvcurveto
          -44 34 -14 21 26 30 16 42 vhcurveto
          hintmask 01001000
          31 -14 36 -10 27 vhcurveto
          -12 33 -1 6 -3 19 15 -4 6 -1 19 -9 rrcurveto
          hintmask 10101000
          -21 42 17 -4 20 hhcurveto
          51 6 42 13 hvcurveto
          -453 vmoveto
          142 callgsubr
          -28 -13 -12 -4 -14 -4 3 20 1 6 16 44 rrcurveto
          14 36 6 25 21 vvcurveto
          44 -34 14 -21 -26 -30 -16 -42 -28 11 -31 11 -30 vhcurveto
          14 -37 1 -7 3 -19 -13 3 -11 4 -15 8 rrcurveto
          12 -26 -28 13 -26 98 callgsubr
          22 10 16 7 16 4 -3 -20 -1 -6 -16 -44 rrcurveto
          -14 -36 -6 -25 -21 vvcurveto
          -44 34 -14 21 26 30 16 42 28 -11 31 -11 30 vhcurveto
          -14 37 -1 7 -3 19 18 -5 15 -7 23 -10 rrcurveto
          -9 18 24 -9 21 hhcurveto
          41 16 30 25 hvcurveto
          endchar
        </CharString>
        <CharString name="dblbracketleft">
          523 -249 73 854 73 hstem
          144 73 86 73 vstem
          490 -249 rmoveto
          73 -114 854 114 73 -346 -1000 vlineto
          159 73 rmoveto
          -86 854 86 hlineto
          endchar
        </CharString>
        <CharString name="dblbracketright">
          523 -249 73 854 73 hstem
          146 73 86 73 vstem
          378 -249 rmoveto
          1000 -345 -73 113 -854 -113 -73 vlineto
          272 73 rmoveto
          -86 854 86 hlineto
          endchar
        </CharString>
        <CharString name="dblgrave.ts1">
          647 532 -21 201 -20 hstem
          275 549 rmoveto
          23 callsubr
          213 hmoveto
          23 callsubr
          endchar
        </CharString>
        <CharString name="dblverticalbar">
          535 750 -20 hstem
          129 61 155 61 vstem
          190 -206 rmoveto
          21 callsubr
          216 hmoveto
          21 callsubr
          endchar
        </CharString>
        <CharString name="dcaron">
          83 callsubr
          122 122 -64 35 callgsubr
          hintmask 0100001001000000
          39 callsubr
          hintmask 0010010010000000
          58 callgsubr
          hintmask 1001000101000000
          -12 callgsubr
          hintmask 0100000000000000
          122 vmoveto
          hintmask 1001000110000000
          5 callsubr
          hintmask 0010001001000000
          127 callgsubr
          307 253 139 callsubr
          hintmask 0000100000000000
          -32 23 -29 39 21 6 4 6 9 vhcurveto
          -9 -76 -45 -35 -17 -12 rrcurveto
          -4 -3 -4 -4 -7 vvcurveto
          -7 10 -12 9 12 83 66 105 vhcurveto
          endchar
        </CharString>
        <CharString name="dcroat">
          83 callsubr
          63 56 61 35 callgsubr
          hintmask 0100101001000000
          662 66 callsubr
          418 67 56 -67 125 vlineto
          hintmask 0010110010000000
          -187 -85 callgsubr
          -22 -188 -56 188 -105 vlineto
          hintmask 1001000101000000
          -12 callgsubr
          hintmask 0100000000000000
          122 vmoveto
          hintmask 1001000110000000
          5 callsubr
          hintmask 0010000001000000
          127 callgsubr
          endchar
        </CharString>
        <CharString name="ddotbelow">
          83 callsubr
          180 56 -56 64 hstemhm
          47 139 92 164 -106 139 -7 127 hintmask 0100010001000000
          39 callsubr
          hintmask 0010100010000000
          58 callgsubr
          hintmask 1001001001000000
          -12 callgsubr
          hintmask 0100000000000000
          122 vmoveto
          hintmask 1001001010000000
          5 callsubr
          hintmask 0010000001000000
          127 callgsubr
          hintmask 0000000100000000
          -26 -463 -101 callgsubr
        </CharString>
        <CharString name="degree">
          485 331 72 211 72 hstem
          65 72 211 72 vstem
          420 509 rmoveto
          98 -79 79 -98 -98 -80 -79 -98 -99 80 -79 98 98 79 79 99 vhcurveto
          -72 hmoveto
          -59 -47 -47 -58 -59 -47 47 59 58 47 47 59 58 47 -47 -58 vhcurveto
          endchar
        </CharString>
        <CharString name="diameter">
          1002 -163 72 659 72 -47 72 hstemhm
          87 72 659 72 -47 72 hintmask 00101000
          926 640 rmoveto
          20 -16 16 -20 -10 -9 -4 -7 -6 vhcurveto
          hintmask 01000000
          -98 -97 rlineto
          hintmask 10110100
          61 -72 -93 36 -101 hhcurveto
          -229 -185 -185 -229 -101 36 -93 61 -72 hvcurveto
          -98 -99 rlineto
          -7 -6 -4 -9 -10 132 callsubr
          10 9 4 7 6 vhcurveto
          99 98 rlineto
          -61 72 93 -36 101 hhcurveto
          229 185 185 229 hvcurveto
          hintmask 00001000
          101 -36 93 -61 72 vhcurveto
          hintmask 11010100
          97 98 rlineto
          7 6 4 9 10 vvcurveto
          -83 -389 rmoveto
          -189 -153 -153 -189 -81 -75 28 48 -59 vhcurveto
          481 481 rlineto
          48 -59 28 -75 -81 vvcurveto
          -127 266 rmoveto
          -481 -481 rlineto
          -48 59 -28 75 81 vvcurveto
          hintmask 00100000
          189 153 153 189 81 75 -28 -48 59 vhcurveto
          endchar
        </CharString>
        <CharString name="died">
          647 -3 -21 357 86 -76 67 -21 67 85 67 hstemhm
          261 125 -108 90 -89 90 cntrmask 00000111
          hintmask 00100111
          598 366 rmoveto
          12 vlineto
          20 -2 22 -23 -16 -17 -2 -2 -16 vhcurveto
          -3 -52 -53 -3 -52 hhcurveto
          hintmask 00011111
          2 15 -1 16 1 15 3 39 5 39 7 38 rrcurveto
          1 4 2 5 5 vvcurveto
          12 -11 9 -10 1 vhcurveto
          -76 hlineto
          -12 -18 -2 -20 -13 6 -17 1 -15 hvcurveto
          5 -28 3 -29 2 -28 rrcurveto
          hintmask 00100111
          1 -15 -1 -16 2 -15 rrcurveto
          hintmask 01000111
          -64 -64 4 5 -64 hvcurveto
          -3 -4 1 -3 hhcurveto
          hintmask 00010111
          -21 -3 -17 -14 hvcurveto
          -32 vlineto
          hintmask 01000111
          -14 10 -10 16 22 21 4 1 21 vhcurveto
          hintmask 10100111
          4 45 46 1 44 hhcurveto
          -110 -8 -109 -9 -109 vhcurveto
          -5 -1 -5 -5 vvcurveto
          -21 17 -3 15 vhcurveto
          65 hlineto
          14 11 4 14 4 hvcurveto
          5 vlineto
          36 -6 39 -3 37 vhcurveto
          -6 77 -3 78 77 vvcurveto
          46 47 -1 -4 46 hvcurveto
          45 -3 rlineto
          hintmask 01000111
          -1 6 6 -1 7 hhcurveto
          23 4 15 18 hvcurveto
          endchar
        </CharString>
        <CharString name="dieresis">
          647 529 147 hstem
          114 22 callgsubr
          vstem
          -40 callgsubr
          endchar
        </CharString>
        <CharString name="dieresis.cap">
          647 492 147 hstem
          89 36 callgsubr
          vstem
          -3 callsubr
          endchar
        </CharString>
        <CharString name="dieresis.dup">
          647 529 147 hstem
          114 22 callgsubr
          vstem
          -40 callgsubr
          endchar
        </CharString>
        <CharString name="dieresis.ts1">
          647 546 150 hstem
          124 150 98 150 vstem
          274 620 rmoveto
          40 -34 36 -42 vhcurveto
          -8 hlineto
          -40 -7 -26 -31 -37 vvcurveto
          -40 31 -35 46 vhcurveto
          7 hlineto
          35 7 31 28 39 vvcurveto
          248 1 rmoveto
          40 -31 35 -46 vhcurveto
          -7 hlineto
          -35 -7 -31 -28 -39 vvcurveto
          -40 34 -36 42 vhcurveto
          8 hlineto
          40 7 26 31 37 vvcurveto
          endchar
        </CharString>
        <CharString name="discount">
          647 22 -21 22 192 323 191 21 -20 21 -20 hstemhm
          134 191 -102 191 -93 191 hintmask 00001000
          571 714 rmoveto
          20 -16 17 -20 vhcurveto
          hintmask 11010010
          -7 -1 -20 -3 -9 -19 -9 -16 rlinecurve
          -68 -108 -277 -444 -47 -74 rlineto
          -8 -14 -15 -16 -18 vvcurveto
          -20 16 -17 20 vhcurveto
          2 hlineto
          22 1 9 19 11 16 68 109 rcurveline
          287 460 41 65 rlineto
          8 13 12 15 15 vvcurveto
          -59 -594 rmoveto
          -47 -34 -43 -51 -7 vhcurveto
          -8 hlineto
          hintmask 01000001
          -58 -40 45 50 47 34 43 51 7 hvcurveto
          hintmask 01000010
          8 hlineto
          hintmask 00100001
          58 40 -45 -50 hvcurveto
          -187 512 rmoveto
          -55 -45 -36 -48 -3 vhcurveto
          -6 hlineto
          hintmask 00100100
          -56 -36 49 48 55 45 36 48 3 hvcurveto
          6 hlineto
          56 36 -49 -48 hvcurveto
          endchar
        </CharString>
        <CharString name="divide">
          1002 -100 163 151 73 151 163 hstem
          419 163 cntrmask 11100000
          926 250 16 callgsubr
          -344 269 -35 callsubr
          -538 vmoveto
          17 callgsubr
        </CharString>
        <CharString name="divorced">
          647 -92 -21 142 87 38 88 7 87 50 87 1 87 53 -20 21 -20 hstemhm
          -252 87 444 88 444 87 cntrmask 0000000011100000
          hintmask 0101110111100000
          898 251 rmoveto
          54 -18 55 -36 40 vhcurveto
          55 -50 -74 18 -72 hhcurveto
          -13 hlineto
          -59 -6 -58 -18 -42 -44 rrcurveto
          -38 -41 -19 -56 -56 vvcurveto
          -68 27 -68 55 -41 vhcurveto
          -33 44 56 -13 55 hhcurveto
          96 callsubr
          73 149 hvcurveto
          -671 hmoveto
          126 -91 97 -145 -7 -6 0 -1 -7 vhcurveto
          -45 -5 -42 -9 -39 -24 rrcurveto
          -64 -39 -33 -74 -73 vvcurveto
          -55 19 -56 39 -40 vhcurveto
          -49 48 71 -20 67 hhcurveto
          121 114 75 147 hvcurveto
          160 339 rmoveto
          23 -18 2 -14 vhcurveto
          -65 hlineto
          hintmask 1111111011100000
          -5 -4 0 -1 -4 hvcurveto
          -13 -4 -15 -8 -8 2 -9 1 -7 hvcurveto
          9 -76 7 -78 -77 vvcurveto
          -132 -5 -133 -12 -132 vhcurveto
          -1 -8 -2 -9 -9 vvcurveto
          -25 18 -1 14 vhcurveto
          64 hlineto
          25 6 9 17 8 -1 7 -1 7 hvcurveto
          -13 129 -4 134 130 vvcurveto
          78 5 78 11 77 vhcurveto
          1 8 3 11 10 vvcurveto
          424 -339 rmoveto
          -35 -8 -37 -25 -25 vhcurveto
          -30 -30 -45 -8 -42 hhcurveto
          -46 -49 3 32 -37 hvcurveto
          -27 25 -9 32 -4 35 rrcurveto
          4 -1 4 4 vvcurveto
          38 17 40 30 23 vhcurveto
          26 35 48 4 42 hhcurveto
          73 78 -24 -111 hvcurveto
          -654 4 rmoveto
          -4 -1 -5 -4 vvcurveto
          -75 -7 -38 -51 -126 hhcurveto
          -42 -44 8 29 -30 hvcurveto
          -26 26 -8 37 35 vvcurveto
          103 73 32 78 43 48 -3 -28 35 vhcurveto
          30 -23 15 -40 -37 vvcurveto
          endchar
        </CharString>
        <CharString name="dlinebelow">
          718 -149 62 81 46 -40 56 288 64 -4 46 180 35 callgsubr
          hintmask 0010001001000000
          39 callsubr
          hintmask 0001010010000000
          58 callgsubr
          hintmask 0100100101000000
          -12 callgsubr
          hintmask 0010000000000000
          122 vmoveto
          hintmask 0100100110000000
          5 callsubr
          hintmask 0001000001000000
          127 callgsubr
          hintmask 1000000000000000
          122 -493 -30 callgsubr
        </CharString>
        <CharString name="dollar">
          647 -56 22 29 56 67 143 186 139 57 56 51 -20 hstem
          75 139 81 56 81 139 cntrmask 0000001110000000
          571 212 rmoveto
          65 -37 124 -183 31 vhcurveto
          211 vlineto
          31 -2 70 -8 35 -47 rrcurveto
          0 -55 -13 -57 vvcurveto
          -42 32 -27 37 29 41 18 55 90 -63 81 -157 8 vhcurveto
          51 -56 -51 vlineto
          -170 -13 -50 -110 -81 vvcurveto
          -80 53 -49 12 -11 vhcurveto
          53 -45 46 -9 56 -12 rrcurveto
          -238 vlineto
          -47 4 -63 16 -30 52 rrcurveto
          55 10 4 45 13 vvcurveto
          46 -35 24 -34 -28 -42 -17 -56 -94 63 -89 157 -10 vhcurveto
          -51 56 51 vlineto
          172 15 48 119 83 vvcurveto
          -276 231 rmoveto
          -84 15 -47 35 51 vvcurveto
          34 26 56 105 9 vhcurveto
          187 -479 rmoveto
          -59 -49 -47 -82 -7 vhcurveto
          227 vlineto
          82 -12 49 -47 -55 vvcurveto
          endchar
        </CharString>
        <CharString name="dollar.oldstyle">
          789 -55 57 -6 57 -51 57 -54 57 386 -20 32 57 122 57 -53 57 51 -20 hstemhm
          75 89 -89 139 71 56 106 56 71 139 -89 89 hintmask 0000111010001100
          713 211 rmoveto
          120 -115 66 -95 21 vhcurveto
          221 vlineto
          42 -4 55 -13 29 -37 rrcurveto
          -34 -5 -21 -32 -31 vvcurveto
          -41 32 -28 38 49 20 39 36 129 -118 32 -92 12 vhcurveto
          55 -56 vlineto
          hintmask 0010000110111000
          -51 vlineto
          -36 -37 4 -5 -33 hvcurveto
          52 -56 -59 vlineto
          -98 -15 -112 -66 -113 vvcurveto
          -93 82 -62 94 -28 vhcurveto
          11 -3 12 -4 11 -1 rrcurveto
          -248 vlineto
          -49 4 -49 22 -31 39 rrcurveto
          35 4 23 31 34 vvcurveto
          38 -28 29 -37 2 vhcurveto
          -50 -24 -35 -41 -117 110 -61 100 -6 hvcurveto
          hintmask 1000000000010000
          -57 56 vlineto
          hintmask 0100000000011000
          51 106 vlineto
          hintmask 1001010101011100
          -51 56 60 vlineto
          101 11 109 84 111 vvcurveto
          -266 218 rmoveto
          -106 20 rlineto
          194 106 vlineto
          -162 -183 rmoveto
          -43 14 -78 12 59 vvcurveto
          57 74 21 47 13 vhcurveto
          339 -471 rmoveto
          -57 -71 -38 -50 -8 vhcurveto
          201 vlineto
          hintmask 0100000000011010
          47 -14 74 -23 -61 vvcurveto
          -177 -112 rmoveto
          -106 242 hlineto
          106 -20 rlineto
          endchar
        </CharString>
        <CharString name="dong">
          718 -56 56 hstem
          629 35 rmoveto
          53 vlineto
          -56 -8 0 37 hvcurveto
          397 64 53 -64 119 vlineto
          -177 -8 rlineto
          -53 vlineto
          56 7 0 -37 hvcurveto
          -21 -178 -53 178 -100 vlineto
          36 -59 -53 4 -31 hhcurveto
          -170 -93 -97 -120 -118 88 -98 162 61 51 19 27 38 hvcurveto
          -46 vlineto
          184 -57 rmoveto
          15 -13 13 -15 vhcurveto
          -528 hlineto
          -16 -12 -13 -15 -15 12 -13 16 hvcurveto
          528 hlineto
          15 13 13 15 hvcurveto
          -184 173 rmoveto
          -31 -22 -47 -41 -69 hhcurveto
          -130 0 114 56 59 0 117 142 80 43 -54 -3 3 hvcurveto
          endchar
        </CharString>
        <CharString name="dotaccent">
          363 521 101 callsubr
          602 -101 callgsubr
        </CharString>
        <CharString name="dotaccent.alt">
          363 484 101 callsubr
          565 -101 callgsubr
        </CharString>
        <CharString name="dotaccent.cap">
          363 492 101 callsubr
          573 -101 callgsubr
        </CharString>
        <CharString name="dotlessi">
          -13 callgsubr
          hstemhm
          134 120 hintmask 10110000
          -7 callsubr
          hintmask 11010000
          -76 callgsubr
          endchar
        </CharString>
        <CharString name="dotlessj">
          48 callsubr
          hstem
          -55 139 100 120 vstem
          304 -72 callgsubr
          endchar
        </CharString>
        <CharString name="e">
          -27 callsubr
          -2 callsubr
          hintmask 11010100
          -91 callsubr
          hintmask 10111000
          54 -54 -74 8 -55 hhcurveto
          -185 -88 -110 -118 -119 92 -112 198 36 58 4 27 50 hvcurveto
          hintmask 01110100
          -84 callgsubr
          endchar
        </CharString>
        <CharString name="eacute">
          -27 callsubr
          69 -21 202 -89 callsubr
          8 384 -88 callgsubr
        </CharString>
        <CharString name="ebreve">
          -27 callsubr
          54 73 118 -89 callsubr
          45 448 -102 callsubr
          endchar
        </CharString>
        <CharString name="ecaron">
          -27 callsubr
          67 -21 207 -89 callsubr
          22 434 -54 callsubr
        </CharString>
        <CharString name="ecircumflex">
          -27 callsubr
          67 -21 207 -89 callsubr
          22 271 -64 callgsubr
          endchar
        </CharString>
        <CharString name="ecircumflexacute">
          -27 callsubr
          67 -21 376 -89 callsubr
          20 273 -66 callgsubr
        </CharString>
        <CharString name="ecircumflexdotbelow">
          -27 callsubr
          67 -21 207 -20 75 callgsubr
          hintmask 1100010010000000
          -91 callsubr
          hintmask 1010010100000000
          54 -54 -74 8 -55 hhcurveto
          -185 -88 -110 -118 -119 92 -112 198 36 58 4 27 50 hvcurveto
          hintmask 0111110010000000
          -84 callgsubr
          22 271 -64 callgsubr
          hintmask 0000001000000000
          -75 -618 -101 callgsubr
        </CharString>
        <CharString name="ecircumflexgrave">
          -27 callsubr
          67 -21 165 -89 callsubr
          20 273 -70 callsubr
        </CharString>
        <CharString name="ecircumflexhookabove">
          -27 callsubr
          67 -21 370 -95 callgsubr
          hintmask 00011010
          20 273 -91 callgsubr
          90 306 -107 callsubr
        </CharString>
        <CharString name="ecircumflextilde">
          -27 callsubr
          67 -21 165 88 -33 88 -44 88 -2 callsubr
          hintmask 1100000101000000
          -91 callsubr
          hintmask 1010000110000000
          54 -54 -74 8 -55 hhcurveto
          -185 -88 -110 -118 -119 92 -112 198 36 58 4 27 50 hvcurveto
          hintmask 0110000101000000
          -84 callgsubr
          hintmask 0001101000000000
          20 273 -9 callsubr
        </CharString>
        <CharString name="edblgrave">
          -27 callsubr
          69 -21 203 -95 callgsubr
          hintmask 00011010
          12 289 -90 callgsubr
        </CharString>
        <CharString name="edieresis">
          -27 callsubr
          76 147 hstemhm
          40 139 -92 148 78 139 -94 148 -54 99 hintmask 1100100010000000
          -91 callsubr
          hintmask 1010101000000000
          54 -54 -74 8 -55 hhcurveto
          -185 -88 -110 -118 -119 92 -112 198 36 58 4 27 50 hvcurveto
          hintmask 0110100010000000
          -84 callgsubr
          hintmask 0001010100000000
          -217 352 -62 callsubr
        </CharString>
        <CharString name="edotaccent">
          -27 callsubr
          68 163 75 callgsubr
          hintmask 11001001
          -91 callsubr
          hintmask 10101010
          54 -54 -74 8 -55 hhcurveto
          -185 -88 -110 -118 -119 92 -112 198 36 58 4 27 50 hvcurveto
          hintmask 01101001
          -84 callgsubr
          hintmask 00010100
          -73 352 -101 callgsubr
        </CharString>
        <CharString name="edotbelow">
          -27 callsubr
          75 callgsubr
          hintmask 11010010
          -91 callsubr
          hintmask 10110100
          54 -54 -74 8 -55 hhcurveto
          -185 -88 -110 -118 -119 92 -112 198 36 58 4 27 50 hvcurveto
          hintmask 01110010
          -84 callgsubr
          hintmask 00001000
          -73 -369 -101 callgsubr
        </CharString>
        <CharString name="egrave">
          -27 callsubr
          69 -21 202 -89 callsubr
          -74 303 rmoveto
          -63 callgsubr
        </CharString>
        <CharString name="ehookabove">
          -27 callsubr
          75 -21 190 -89 callsubr
          -31 383 -107 callsubr
        </CharString>
        <CharString name="eight">
          647 -12 51 571 46 hstemhm
          57 59 callgsubr
          589 -74 callsubr
        </CharString>
        <CharString name="eight.oldstyle">
          722 -12 51 571 46 hstemhm
          95 59 callgsubr
          627 -74 callsubr
        </CharString>
        <CharString name="eight.prop">
          722 -12 51 571 46 hstemhm
          95 59 callgsubr
          627 -74 callsubr
        </CharString>
        <CharString name="eight.taboldstyle">
          647 -12 51 571 46 hstemhm
          57 59 callgsubr
          589 -74 callsubr
        </CharString>
        <CharString name="ellipsis">
          922 0 163 hstem
          101 163 116 163 116 163 cntrmask 01110000
          264 81 -35 callsubr
          279 hmoveto
          -57 callsubr
          279 hmoveto
          17 callgsubr
        </CharString>
        <CharString name="emacron">
          -27 callsubr
          118 62 -2 callsubr
          hintmask 11001010
          -91 callsubr
          hintmask 10101100
          54 -54 -74 8 -55 hhcurveto
          -185 -88 -110 -118 -119 92 -112 198 36 58 4 27 50 hvcurveto
          hintmask 01101010
          -84 callgsubr
          hintmask 00010000
          75 321 -30 callgsubr
        </CharString>
        <CharString name="emdash">
          1294 251 46 hstem
          8 1277 vstem
          1285 251 rmoveto
          46 -1277 -46 vlineto
          endchar
        </CharString>
        <CharString name="emdash.alt">
          868 252 46 hstem
          859 252 rmoveto
          46 -851 -46 vlineto
          endchar
        </CharString>
        <CharString name="endash">
          647 251 46 hstem
          4 638 vstem
          642 251 rmoveto
          46 -638 -46 vlineto
          endchar
        </CharString>
        <CharString name="eng">
          665 -206 126 80 114 callgsubr
          hstemhm
          131 114 -114 127 67 127 33 127 hintmask 0010110010000000
          612 56 rmoveto
          245 vlineto
          123 -79 26 -92 -121 -56 -72 -32 -19 vhcurveto
          104 vlineto
          hintmask 0111010100000000
          -181 -85 callgsubr
          -291 -55 callgsubr
          vlineto
          hintmask 1100101110000000
          -67 193 hlineto
          116 104 39 60 44 19 -23 -72 vhcurveto
          -253 vlineto
          -65 -4 -70 -29 -38 vhcurveto
          22 -10 -22 15 -25 hhcurveto
          -35 -28 -29 -34 -35 28 -28 35 129 88 125 137 hvcurveto
          endchar
        </CharString>
        <CharString name="eogonek">
          592 -221 88 126 52 12 callsubr
          -2 callsubr
          hintmask 01101010
          -91 callsubr
          hintmask 11011100
          54 -54 -74 8 -55 hhcurveto
          -185 -88 -110 -118 -115 86 -109 184 -8 hvcurveto
          -39 -31 -13 -30 -42 -81 callgsubr
          -53 -44 78 56 82 hvcurveto
          24 5 25 6 24 13 rrcurveto
          hintmask 00111010
          -84 callgsubr
          endchar
        </CharString>
        <CharString name="eogonekacute">
          592 -221 88 126 52 12 callsubr
          69 -21 202 -20 -2 callsubr
          hintmask 0110001010000000
          -91 callsubr
          hintmask 1101001100000000
          54 -54 -74 8 -55 hhcurveto
          -185 -88 -110 -118 -115 86 -109 184 -8 hvcurveto
          -39 -31 -13 -30 -42 -81 callgsubr
          -53 -44 78 56 82 hvcurveto
          24 5 25 6 24 13 rrcurveto
          hintmask 0011001010000000
          -84 callgsubr
          hintmask 0000110000000000
          8 384 -88 callgsubr
        </CharString>
        <CharString name="equal">
          1002 89 73 177 73 hstem
          75 851 vstem
          926 375 16 callgsubr
          -249 vmoveto
          36 -35 0 -11 vhcurveto
          -759 140 callgsubr
          747 hlineto
          14 38 0 37 hvcurveto
          endchar
        </CharString>
        <CharString name="ereversed">
          -27 callsubr
          hstemhm
          40 99 0 139 134 139 hintmask 00101000
          551 225 rmoveto
          118 -88 110 -185 -55 -74 -8 -54 -54 vhcurveto
          hintmask 11110100
          -48 -49 -7 -75 -29 vvcurveto
          -30 14 0 21 vhcurveto
          337 hlineto
          -46 -2 -5 -117 -158 hhcurveto
          -17 -91 0 74 -36 hvcurveto
          16 -8 -5 1 -18 hhcurveto
          -10 -22 0 -22 -10 18 -48 59 -31 hvcurveto
          -27 50 58 -4 36 hhcurveto
          198 92 112 119 hvcurveto
          -139 25 rmoveto
          -273 hlineto
          43 2 7 114 129 hhcurveto
          129 5 -118 -39 1 hvcurveto
          endchar
        </CharString>
        <CharString name="estimated">
          888 -5 51 49 42 199 42 272 46 hstem
          39 163 503 143 vstem
          848 116 rmoveto
          19 -2 -16 2 -15 hhcurveto
          -26 -2 -12 -13 -11 hvcurveto
          -65 -65 -100 -1 -82 hhcurveto
          -149 -178 37 253 hvcurveto
          616 hlineto
          21 9 9 22 108 -43 110 -100 58 hvcurveto
          42 -73 -88 11 -83 hhcurveto
          -147 -155 -46 -141 -80 hvcurveto
          -27 -49 -13 -59 -54 vvcurveto
          -78 25 -75 54 -63 vhcurveto
          -114 97 153 -22 140 hhcurveto
          110 147 2 98 74 hvcurveto
          5 6 4 7 8 vvcurveto
          -143 262 rmoveto
          -502 hlineto
          71 17 76 50 52 vhcurveto
          51 49 71 22 69 hhcurveto
          62 68 -16 -45 45 hvcurveto
          53 -53 18 -87 -71 vvcurveto
          endchar
        </CharString>
        <CharString name="eth">
          -16 callgsubr
          hstem
          39 139 290 139 vstem
          607 222 rmoveto
          108 vlineto
          102 -45 105 -94 78 vhcurveto
          -7 6 89 39 -23 52 -123 -55 -85 43 -101 13 -92 -3 rlinecurve
          -3 -53 62 -3 59 -17 51 -29 rlinecurve
          -89 -39 23 -52 121 54 51 -42 39 -57 18 -67 rlinecurve
          48 -58 -63 0 -18 hhcurveto
          -177 -103 -105 -130 -115 89 -109 195 177 107 92 136 hvcurveto
          -139 -4 rmoveto
          -48 0 -125 -145 -145 0 122 62 46 1 48 27 35 vhcurveto
          46 36 60 3 20 hhcurveto
          146 0 -160 -29 hvcurveto
          endchar
        </CharString>
        <CharString name="etilde">
          -27 callsubr
          83 88 -44 88 -100 callsubr
          hintmask 00001000
          57 385 -87 callsubr
        </CharString>
        <CharString name="eturned">
          -26 callgsubr
        </CharString>
        <CharString name="exclam">
          397 0 163 89 -21 475 -20 hstem
          117 163 vstem
          280 631 rmoveto
          49 -44 26 -37 -41 -41 -28 -47 -5 2 -14 1 -8 vhcurveto
          46 -345 rlineto
          -24 3 1 -4 29 hhcurveto
          28 1 5 22 3 hvcurveto
          46 346 rlineto
          1 7 2 15 5 vvcurveto
          -550 vmoveto
          17 callgsubr
        </CharString>
        <CharString name="exclamdown">
          397 -185 -21 475 -20 88 163 hstem
          117 163 vstem
          280 418 -35 callsubr
          -549 vmoveto
          5 -2 14 -1 8 vhcurveto
          -46 345 rlineto
          24 -3 -1 4 -29 hhcurveto
          -28 -1 -5 -22 -3 hvcurveto
          -46 -346 rlineto
          -1 -7 -2 -15 -5 vvcurveto
          -49 44 -26 37 41 41 28 47 vhcurveto
          endchar
        </CharString>
        <CharString name="f">
          -13 callsubr
        </CharString>
        <CharString name="f_f">
          762 69 callgsubr
          93 56 13 46 2 46 hstem
          96 callsubr
          242 120 100 137 vstem
          841 606 rmoveto
          44 -38 50 -89 -83 -46 -21 -15 -27 vhcurveto
          36 -46 -64 0 -24 hhcurveto
          -136 -166 -37 -124 24 callgsubr
          242 115 callgsubr
          4 77 4 47 hhcurveto
          31 callgsubr
          332 129 56 -136 94 vlineto
          17 0 99 111 11 0 -2 0 0 -1 -3 -2 -2 vhcurveto
          -4 -6 -8 -15 -20 vvcurveto
          -48 39 -21 29 33 36 23 46 vhcurveto
          -357 -162 rmoveto
          -249 92 hlineto
          89 87 29 91 38 28 -8 0 vhcurveto
          0 -23 -19 -34 vvcurveto
          -23 10 -22 18 -11 vhcurveto
          endchar
        </CharString>
        <CharString name="f_f_i">
          1089 69 callgsubr
          210 46 hstem
          96 callsubr
          242 120 242 120 cntrmask 00011100
          1033 118 callsubr
          -182 92 hlineto
          118 158 0 23 24 23 -2 -13 28 97 callsubr
          54 -46 68 -127 -83 -84 -12 -34 -61 vhcurveto
          46 -51 -62 0 -25 hhcurveto
          -136 -165 -38 -123 24 callgsubr
          242 -332 -55 callsubr
          56 -67 332 212 vlineto
          24 6 0 -35 hvcurveto
          -297 -55 callsubr
          -548 640 rmoveto
          -18 -10 -17 -23 -30 vvcurveto
          -19 8 -28 26 -14 vhcurveto
          -72 -249 92 vlineto
          118 154 0 23 43 28 -13 -1 2 vhcurveto
          endchar
        </CharString>
        <CharString name="f_f_l">
          1089 69 callgsubr
          106 56 -13 56 -4 46 -37 46 hstemhm
          96 callsubr
          242 120 242 120 cntrmask 0000001110000000
          hintmask 1000101110000000
          1033 hmoveto
          56 -67 638 vlineto
          101 callgsubr
          hintmask 1101011110000000
          9 -38 -22 0 -27 hhcurveto
          -123 -66 -25 -18 -33 hvcurveto
          42 -43 -72 1 -27 hhcurveto
          -140 -162 16 callsubr
          242 -332 -55 callsubr
          56 -67 332 242 -332 -55 callsubr
          -549 444 rmoveto
          -249 92 hlineto
          91 93 27 85 37 26 -7 -1 2 vhcurveto
          0 -22 -20 -33 vvcurveto
          -10 2 -23 21 -20 vhcurveto
          4 -4 1 -1 -16 vvcurveto
          362 -75 rmoveto
          -249 92 hlineto
          21 0 38 51 31 vhcurveto
          27 47 64 1 19 hhcurveto
          6 47 -1 -4 hvcurveto
          hintmask 0110101110000000
          80 callsubr
        </CharString>
        <CharString name="f_i">
          726 69 callgsubr
          210 46 hstem
          96 callsubr
          241 120 vstem
          670 118 callsubr
          -181 92 hlineto
          117 156 1 24 12 33 0 -15 30 97 callsubr
          52 -44 70 -129 -130 -174 -35 -126 vhcurveto
          8 callgsubr
          211 vlineto
          24 6 0 -35 hvcurveto
          -297 -55 callsubr
          endchar
        </CharString>
        <CharString name="f_k">
          1071 69 callgsubr
          106 56 39 46 -37 46 hstemhm
          96 callsubr
          226 134 -119 120 62 120 -8 211 -92 120 hintmask 1000000000100000
          1016 hmoveto
          56 vlineto
          -30 -21 0 3 -9 hvcurveto
          -7 1 -2 2 -12 12 -182 198 rcurveline
          143 102 rlineto
          hintmask 0100000001000000
          10 14 6 4 72 hhcurveto
          104 callsubr
          -44 -80 4 -5 hhcurveto
          -56 vlineto
          13 3 -3 -3 4 hvcurveto
          hintmask 0000001010000000
          -2 -2 -7 -5 -3 -2 -183 -131 rcurveline
          hintmask 0001000100000000
          1 452 101 callgsubr
          hintmask 1100110110100000
          9 -38 -22 0 -27 hhcurveto
          -143 -160 16 callsubr
          241 -332 -55 callsubr
          56 -67 110 vlineto
          62 44 126 -137 rlineto
          8 -9 1 -2 0 vvcurveto
          -6 -13 0 -8 vhcurveto
          -56 vlineto
          130 4 rlineto
          36 35 -1 -3 36 hvcurveto
          -533 82 callgsubr
          hintmask 0011001000000000
          6 47 -1 -4 0 0 -2 -2 -2 hvcurveto
          -9 -14 -2 -16 -9 vvcurveto
          hintmask 0110000100000000
          -11 4 -28 24 -17 vhcurveto
          endchar
        </CharString>
        <CharString name="f_l">
          726 69 callgsubr
          106 56 39 46 -37 46 hstemhm
          96 callsubr
          241 120 hintmask 10010010
          670 hmoveto
          56 -67 638 vlineto
          101 callgsubr
          hintmask 11001110
          9 -38 -22 0 -27 hhcurveto
          -143 -160 16 callsubr
          241 -332 -55 callsubr
          -187 82 callgsubr
          6 47 -1 -4 hvcurveto
          hintmask 01110010
          80 callsubr
        </CharString>
        <CharString name="five">
          647 -12 51 46 147 132 103 callsubr
          118 71 -47 76 callgsubr
          hintmask 0011110000000000
          578 -34 callsubr
        </CharString>
        <CharString name="five.oldstyle">
          700 -206 51 325 103 callsubr
          95 147 -97 71 -47 147 -147 76 callgsubr
          hintmask 0111010000000000
          605 -38 callgsubr
        </CharString>
        <CharString name="five.prop">
          700 -12 51 46 147 132 103 callsubr
          145 71 -47 76 callgsubr
          hintmask 0011110000000000
          605 -34 callsubr
        </CharString>
        <CharString name="five.taboldstyle">
          647 -206 51 325 103 callsubr
          68 147 -97 71 -47 147 -147 76 callgsubr
          hintmask 0111010000000000
          578 -38 callgsubr
        </CharString>
        <CharString name="florin">
          -13 callsubr
        </CharString>
        <CharString name="four">
          647 0 56 98 56 452 -20 hstem
          236 124 13 124 vstem
          606 4 callgsubr
        </CharString>
        <CharString name="four.oldstyle">
          661 121 callgsubr
          244 137 -13 137 hintmask 10110100
          614 -1 callgsubr
        </CharString>
        <CharString name="four.prop">
          661 0 56 98 56 452 -20 hstem
          244 124 13 124 vstem
          614 4 callgsubr
        </CharString>
</ttFont>
